<svg width="25" height="24" viewBox="0 0 25 24" fill="none" xmlns="http://www.w3.org/2000/svg">
<path d="M19.5742 11.005H7.93881L13.0221 6.12499C13.4284 5.73499 13.4284 5.09499 13.0221 4.70499C12.8275 4.51774 12.5633 4.41251 12.2878 4.41251C12.0122 4.41251 11.748 4.51774 11.5534 4.70499L4.68881 11.295C4.28256 11.685 4.28256 12.315 4.68881 12.705L11.5534 19.295C11.9596 19.685 12.6159 19.685 13.0221 19.295C13.4284 18.905 13.4284 18.275 13.0221 17.885L7.93881 13.005H19.5742C20.1471 13.005 20.6159 12.555 20.6159 12.005C20.6159 11.455 20.1471 11.005 19.5742 11.005Z" fill="white"/>
</svg>
