<svg width="50" height="60" viewBox="0 0 50 60" fill="none" xmlns="http://www.w3.org/2000/svg">
<path d="M0.567962 55.2435C-0.40211 56.5867 -0.0996489 58.462 1.24353 59.432C2.58671 60.4021 4.46197 60.0996 5.43204 58.7565L0.567962 55.2435ZM44.9617 2.5223C44.6979 0.886587 43.158 -0.22555 41.5223 0.0382752L14.8668 4.33755C13.2311 4.60138 12.1189 6.14126 12.3828 7.77697C12.6466 9.41269 14.1865 10.5248 15.8222 10.261L39.516 6.43942L43.3376 30.1332C43.6014 31.7689 45.1413 32.8811 46.777 32.6172C48.4127 32.3534 49.5248 30.8135 49.261 29.1778L44.9617 2.5223ZM5.43204 58.7565L44.432 4.75647L39.568 1.24353L0.567962 55.2435L5.43204 58.7565Z" fill="#EFE5E5"/>
</svg>
