<svg width="21" height="20" viewBox="0 0 21 20" fill="none" xmlns="http://www.w3.org/2000/svg">
<path opacity="0.4" d="M1.95703 9.76393C1.95703 14.5356 5.82521 18.4037 10.5968 18.4037C15.3685 18.4037 19.2367 14.5356 19.2367 9.76393C19.2367 4.99229 15.3685 1.12411 10.5968 1.12411C5.82521 1.12411 1.95703 4.99229 1.95703 9.76393Z" fill="#C70000"/>
<path d="M14.5167 6.5653C14.7297 6.95473 14.5866 7.44309 14.1972 7.65607C13.095 8.2588 12.06 9.52061 11.2697 10.7307C10.8844 11.3207 10.5753 11.87 10.3628 12.2716C10.2567 12.472 10.1752 12.6346 10.1208 12.7459L10.0418 12.911C9.91759 13.1824 9.65318 13.3629 9.35516 13.3794C9.05707 13.3957 8.77438 13.2456 8.62112 12.9894C8.3714 12.5719 7.97458 12.1908 7.60684 11.9001C7.42815 11.7588 7.26732 11.6474 7.15254 11.5722L6.98353 11.4665C6.59816 11.2465 6.46397 10.7558 6.68383 10.3704C6.90373 9.98475 7.39457 9.85045 7.78014 10.0703L8.03333 10.2276C8.17976 10.3235 8.38059 10.4627 8.60376 10.6391C8.77431 10.774 8.965 10.9361 9.15753 11.1229C9.36392 10.752 9.62191 10.3143 9.92386 9.85182C10.741 8.60069 11.9563 7.04951 13.426 6.24578C13.8154 6.03279 14.3037 6.17585 14.5167 6.5653Z" fill="#FF0000"/>
</svg>
