<svg width="365" height="124" viewBox="0 0 365 124" fill="none" xmlns="http://www.w3.org/2000/svg">
<rect x="0.75226" y="0.75226" width="362.589" height="121.866" rx="29.3382" fill="url(#paint0_linear_75_6171)" fill-opacity="0.16"/>
<rect x="0.75226" y="0.75226" width="362.589" height="121.866" rx="29.3382" stroke="url(#paint1_linear_75_6171)" stroke-width="1.50452"/>
<g filter="url(#filter1_d_75_6171)">
<g clip-path="url(#clip0_75_6171)">
<rect x="24.0625" y="22.5703" width="78.2351" height="78.2351" rx="24.0723" fill="white" fill-opacity="0.07" shape-rendering="crispEdges"/>
<g filter="url(#filter2_f_75_6171)">
<circle cx="62.252" cy="65.7755" r="9.77938" fill="#0084FF"/>
</g>
<path fill-rule="evenodd" clip-rule="evenodd" d="M62.9957 34C59.0588 34 55.858 35.4566 53.0664 37.0406C52.2228 37.5193 51.4391 37.9927 50.6903 38.4452C48.858 39.5522 47.2339 40.5334 45.4506 41.1566C44.4031 41.5226 43.4753 41.8468 42.8174 42.1292C42.1982 42.3949 41.4624 42.7591 40.9402 43.3946C40.4712 43.9655 40.2303 44.6064 40.0706 45.2194C39.9255 45.7759 39.8016 46.5293 39.6826 47.2521C36.7837 64.8607 43.1227 81.5425 58.6026 88.0336C60.124 88.6717 61.2448 89.1419 63.0034 89.1419C64.7623 89.1419 65.8828 88.6717 67.4042 88.0336C82.8836 81.5423 89.2163 64.8599 86.3166 47.252C86.1976 46.5291 86.0735 45.7756 85.9286 45.219C85.7686 44.6059 85.5277 43.965 85.0586 43.3941C84.5364 42.7586 83.8007 42.3945 83.1813 42.1288C82.5235 41.8466 81.5957 41.5226 80.5483 41.1567C78.7641 40.5335 77.1387 39.5521 75.3049 38.4449C74.5558 37.9926 73.7716 37.5191 72.9281 37.0406C70.1349 35.4566 66.9328 34 62.9957 34ZM57.1437 53.0752V55.7982C56.9678 55.8566 56.793 55.9267 56.6193 56.0111C55.1671 56.7169 54.0501 58.0513 53.4758 59.6782C53.2278 60.3809 53.1325 61.1024 53.0883 61.8631C53.0457 62.5953 53.0457 63.487 53.0457 64.556V64.6771C53.0457 65.7458 53.0457 66.6378 53.0883 67.3701C53.1325 68.1308 53.2278 68.8525 53.4758 69.555C54.0501 71.182 55.1671 72.5162 56.6193 73.222C57.2571 73.5321 57.91 73.6491 58.5787 73.7027C59.2147 73.7534 59.9854 73.7534 60.8879 73.7534H65.1081C66.0109 73.7534 66.7813 73.7534 67.4173 73.7027C68.0861 73.6491 68.739 73.5321 69.3766 73.222C70.829 72.5162 71.946 71.182 72.5201 69.555C72.7681 68.8525 72.8634 68.1308 72.9077 67.3701C72.9503 66.6378 72.9503 65.7458 72.9503 64.6771V64.556C72.9503 63.487 72.9503 62.5953 72.9077 61.8631C72.8634 61.1024 72.7681 60.3809 72.5201 59.6782C71.946 58.0513 70.829 56.7169 69.3766 56.0111C69.2031 55.9267 69.0282 55.8566 68.8523 55.7982V53.0752C68.8523 49.5573 66.1706 46.8237 62.998 46.8237C59.8255 46.8237 57.1437 49.5573 57.1437 53.0752ZM62.998 50.6708C61.644 50.6708 60.6563 51.8126 60.6563 53.0752V55.4797L60.8879 55.4797H65.1081L65.3397 55.4797V53.0752C65.3397 51.8126 64.352 50.6708 62.998 50.6708Z" fill="#0084FF"/>
</g>
</g>
<path d="M136.604 40.1047C136.514 39.3467 136.15 38.7583 135.511 38.3394C134.873 37.9206 134.09 37.7111 133.163 37.7111C132.485 37.7111 131.891 37.8208 131.383 38.0402C130.879 38.2597 130.485 38.5613 130.201 38.9453C129.922 39.3293 129.782 39.7656 129.782 40.2543C129.782 40.6632 129.879 41.0147 130.074 41.3089C130.273 41.5982 130.527 41.84 130.837 42.0345C131.146 42.224 131.47 42.3811 131.809 42.5057C132.148 42.6254 132.46 42.7226 132.744 42.7974L134.3 43.2163C134.699 43.321 135.142 43.4656 135.631 43.6501C136.125 43.8346 136.596 44.0865 137.045 44.4056C137.499 44.7198 137.873 45.1237 138.167 45.6173C138.461 46.111 138.608 46.7169 138.608 47.4349C138.608 48.2627 138.391 49.0107 137.957 49.6789C137.529 50.3471 136.9 50.8782 136.072 51.2721C135.25 51.6661 134.25 51.863 133.073 51.863C131.976 51.863 131.026 51.686 130.223 51.332C129.425 50.9779 128.797 50.4842 128.338 49.8509C127.885 49.2176 127.628 48.4821 127.568 47.6444H129.483C129.533 48.2228 129.727 48.7015 130.066 49.0805C130.41 49.4545 130.844 49.7338 131.368 49.9183C131.896 50.0978 132.465 50.1875 133.073 50.1875C133.781 50.1875 134.417 50.0728 134.98 49.8435C135.544 49.6091 135.99 49.285 136.319 48.8711C136.648 48.4522 136.813 47.9635 136.813 47.405C136.813 46.8964 136.671 46.4825 136.387 46.1634C136.102 45.8442 135.728 45.5849 135.265 45.3855C134.801 45.186 134.3 45.0115 133.761 44.8619L131.876 44.3233C130.679 43.9793 129.732 43.4881 129.034 42.8498C128.336 42.2115 127.987 41.3763 127.987 40.344C127.987 39.4863 128.219 38.7384 128.682 38.1001C129.151 37.4568 129.779 36.9582 130.567 36.6041C131.36 36.2451 132.245 36.0656 133.223 36.0656C134.21 36.0656 135.088 36.2426 135.856 36.5966C136.623 36.9457 137.232 37.4244 137.681 38.0328C138.134 38.6411 138.374 39.3318 138.399 40.1047H136.604ZM146.236 51.8331C145.129 51.8331 144.174 51.5888 143.371 51.1001C142.573 50.6064 141.957 49.9183 141.523 49.0356C141.095 48.148 140.88 47.1158 140.88 45.939C140.88 44.7621 141.095 43.7249 141.523 42.8274C141.957 41.9248 142.561 41.2217 143.334 40.718C144.111 40.2094 145.019 39.9551 146.056 39.9551C146.655 39.9551 147.246 40.0548 147.829 40.2543C148.412 40.4537 148.943 40.7779 149.422 41.2267C149.901 41.6705 150.282 42.2589 150.567 42.9919C150.851 43.7249 150.993 44.6275 150.993 45.6996V46.4476H142.137V44.9217H149.198C149.198 44.2735 149.068 43.695 148.809 43.1864C148.554 42.6778 148.19 42.2763 147.717 41.9821C147.248 41.6879 146.694 41.5408 146.056 41.5408C145.353 41.5408 144.745 41.7153 144.231 42.0644C143.723 42.4085 143.331 42.8573 143.057 43.4108C142.783 43.9643 142.645 44.5577 142.645 45.191V46.2083C142.645 47.0759 142.795 47.8114 143.094 48.4148C143.398 49.0132 143.82 49.4695 144.358 49.7836C144.897 50.0928 145.523 50.2474 146.236 50.2474C146.699 50.2474 147.118 50.1825 147.492 50.0529C147.871 49.9183 148.198 49.7188 148.472 49.4545C148.746 49.1852 148.958 48.8511 149.108 48.4522L150.813 48.9309C150.634 49.5094 150.332 50.018 149.908 50.4568C149.484 50.8906 148.961 51.2297 148.338 51.4741C147.714 51.7134 147.014 51.8331 146.236 51.8331ZM158.346 51.8331C157.269 51.8331 156.341 51.5788 155.563 51.0702C154.785 50.5615 154.187 49.8609 153.768 48.9683C153.349 48.0757 153.14 47.056 153.14 45.9091C153.14 44.7422 153.354 43.7125 153.783 42.8199C154.217 41.9223 154.82 41.2217 155.593 40.718C156.371 40.2094 157.279 39.9551 158.316 39.9551C159.124 39.9551 159.852 40.1047 160.5 40.4039C161.148 40.7031 161.679 41.1219 162.093 41.6605C162.507 42.199 162.764 42.8274 162.863 43.5454H161.098C160.964 43.0218 160.664 42.5581 160.201 42.1542C159.742 41.7453 159.124 41.5408 158.346 41.5408C157.657 41.5408 157.054 41.7203 156.536 42.0794C156.022 42.4334 155.62 42.9346 155.331 43.5828C155.047 44.2261 154.905 44.9816 154.905 45.8492C154.905 46.7368 155.045 47.5097 155.324 48.168C155.608 48.8262 156.007 49.3373 156.521 49.7013C157.039 50.0654 157.648 50.2474 158.346 50.2474C158.804 50.2474 159.221 50.1676 159.595 50.008C159.969 49.8484 160.285 49.6191 160.545 49.3199C160.804 49.0207 160.989 48.6616 161.098 48.2428H162.863C162.764 48.9209 162.517 49.5318 162.123 50.0753C161.734 50.6139 161.218 51.0427 160.575 51.3619C159.936 51.676 159.193 51.8331 158.346 51.8331ZM172.685 46.8964V40.1047H174.45V51.5938H172.685V49.649H172.565C172.296 50.2324 171.877 50.7286 171.308 51.1375C170.74 51.5414 170.022 51.7433 169.154 51.7433C168.436 51.7433 167.798 51.5863 167.239 51.2721C166.681 50.953 166.242 50.4743 165.923 49.836C165.604 49.1927 165.444 48.3824 165.444 47.405V40.1047H167.209V47.2853C167.209 48.1231 167.444 48.7913 167.912 49.29C168.386 49.7886 168.989 50.0379 169.722 50.0379C170.161 50.0379 170.608 49.9257 171.061 49.7013C171.52 49.4769 171.904 49.1329 172.213 48.6691C172.527 48.2054 172.685 47.6145 172.685 46.8964ZM177.683 51.5938V40.1047H179.388V41.84H179.508C179.717 41.2715 180.096 40.8103 180.645 40.4562C181.193 40.1022 181.812 39.9252 182.5 39.9252C182.63 39.9252 182.792 39.9277 182.986 39.9326C183.181 39.9376 183.328 39.9451 183.427 39.9551V41.7503C183.368 41.7353 183.231 41.7129 183.016 41.6829C182.807 41.648 182.585 41.6306 182.35 41.6306C181.792 41.6306 181.293 41.7478 180.854 41.9821C180.421 42.2115 180.076 42.5307 179.822 42.9396C179.573 43.3435 179.448 43.8047 179.448 44.3233V51.5938H177.683ZM185.52 51.5938V40.1047H187.285V51.5938H185.52ZM186.418 38.1898C186.073 38.1898 185.777 38.0727 185.527 37.8383C185.283 37.6039 185.161 37.3222 185.161 36.9931C185.161 36.6639 185.283 36.3822 185.527 36.1478C185.777 35.9135 186.073 35.7963 186.418 35.7963C186.762 35.7963 187.056 35.9135 187.3 36.1478C187.549 36.3822 187.674 36.6639 187.674 36.9931C187.674 37.3222 187.549 37.6039 187.3 37.8383C187.056 38.0727 186.762 38.1898 186.418 38.1898ZM195.515 40.1047V41.6007L189.561 41.6007V40.1047L195.515 40.1047ZM191.296 37.3521H193.062V48.3026C193.062 48.8013 193.134 49.1753 193.278 49.4246C193.428 49.6689 193.618 49.8335 193.847 49.9183C194.081 49.998 194.328 50.0379 194.587 50.0379C194.782 50.0379 194.941 50.028 195.066 50.008C195.191 49.9831 195.291 49.9631 195.365 49.9482L195.724 51.5339C195.605 51.5788 195.438 51.6237 195.223 51.6685C195.009 51.7184 194.737 51.7433 194.408 51.7433C193.909 51.7433 193.421 51.6361 192.942 51.4217C192.468 51.2073 192.074 50.8807 191.76 50.4419C191.451 50.003 191.296 49.4495 191.296 48.7813V37.3521ZM199.307 55.9022C199.008 55.9022 198.741 55.8772 198.507 55.8274C198.273 55.7825 198.11 55.7376 198.021 55.6927L198.469 54.1369C198.898 54.2466 199.277 54.2865 199.606 54.2566C199.936 54.2267 200.227 54.0796 200.482 53.8153C200.741 53.556 200.978 53.1346 201.192 52.5512L201.521 51.6536L197.273 40.1047H199.188L202.359 49.26H202.479L205.65 40.1047H207.565L202.688 53.2692C202.469 53.8626 202.197 54.3538 201.873 54.7428C201.549 55.1367 201.172 55.4284 200.743 55.6179C200.319 55.8074 199.841 55.9022 199.307 55.9022Z" fill="#EFE5E5"/>
<path d="M128.294 86.6133V69.1061H134.535C135.891 69.1061 137.017 69.3398 137.911 69.8071C138.812 70.2744 139.484 70.9212 139.929 71.7476C140.373 72.5682 140.596 73.5171 140.596 74.5942C140.596 75.6656 140.371 76.6088 139.92 77.4237C139.476 78.233 138.803 78.8627 137.903 79.3129C137.008 79.7632 135.883 79.9883 134.526 79.9883H129.799V77.7144H134.287C135.142 77.7144 135.837 77.5919 136.373 77.3468C136.914 77.1017 137.31 76.7456 137.561 76.2783C137.812 75.8109 137.937 75.2496 137.937 74.5942C137.937 73.9331 137.809 73.3604 137.552 72.876C137.302 72.3916 136.906 72.0211 136.364 71.7647C135.828 71.5025 135.125 71.3715 134.253 71.3715H130.936V86.6133H128.294ZM136.937 78.7145L141.262 86.6133H138.253L134.013 78.7145H136.937ZM158.265 77.8597C158.265 79.729 157.923 81.3361 157.239 82.681C156.556 84.0203 155.618 85.0518 154.427 85.7755C153.242 86.4936 151.894 86.8526 150.384 86.8526C148.868 86.8526 147.514 86.4936 146.323 85.7755C145.138 85.0518 144.203 84.0174 143.519 82.6725C142.835 81.3275 142.493 79.7233 142.493 77.8597C142.493 75.9905 142.835 74.3862 143.519 73.047C144.203 71.702 145.138 70.6705 146.323 69.9524C147.514 69.2287 148.868 68.8668 150.384 68.8668C151.894 68.8668 153.242 69.2287 154.427 69.9524C155.618 70.6705 156.556 71.702 157.239 73.047C157.923 74.3862 158.265 75.9905 158.265 77.8597ZM155.649 77.8597C155.649 76.435 155.419 75.2353 154.957 74.2608C154.501 73.2806 153.874 72.5397 153.076 72.0382C152.284 71.531 151.387 71.2774 150.384 71.2774C149.375 71.2774 148.474 71.531 147.682 72.0382C146.89 72.5397 146.263 73.2806 145.802 74.2608C145.346 75.2353 145.118 76.435 145.118 77.8597C145.118 79.2844 145.346 80.4869 145.802 81.4671C146.263 82.4417 146.89 83.1825 147.682 83.6897C148.474 84.1912 149.375 84.442 150.384 84.442C151.387 84.442 152.284 84.1912 153.076 83.6897C153.874 83.1825 154.501 82.4417 154.957 81.4671C155.419 80.4869 155.649 79.2844 155.649 77.8597ZM163.448 69.1061V86.6133H160.806V69.1061H163.448ZM174.073 78.1076V80.3216H166.311V78.1076H174.073ZM176.933 86.6133V69.1061H179.489V75.6115H179.643C179.791 75.3379 180.005 75.0216 180.284 74.6626C180.563 74.3036 180.951 73.9901 181.446 73.7223C181.942 73.4487 182.598 73.312 183.413 73.312C184.473 73.312 185.419 73.5798 186.251 74.1155C187.083 74.6512 187.735 75.4234 188.208 76.4321C188.687 77.4408 188.926 78.6547 188.926 80.0737C188.926 81.4928 188.69 82.7095 188.217 83.7239C187.744 84.7326 187.094 85.5105 186.268 86.0576C185.441 86.599 184.498 86.8697 183.438 86.8697C182.64 86.8697 181.988 86.7358 181.481 86.468C180.979 86.2001 180.586 85.8867 180.301 85.5276C180.016 85.1686 179.797 84.8495 179.643 84.5702H179.429V86.6133H176.933ZM179.438 80.0481C179.438 80.9713 179.571 81.7806 179.839 82.4758C180.107 83.1711 180.495 83.7154 181.002 84.1086C181.509 84.4961 182.13 84.6899 182.865 84.6899C183.629 84.6899 184.267 84.4876 184.78 84.083C185.293 83.6726 185.681 83.117 185.943 82.416C186.211 81.715 186.345 80.9257 186.345 80.0481C186.345 79.1819 186.214 78.404 185.951 77.7144C185.695 77.0248 185.307 76.4806 184.789 76.0816C184.276 75.6827 183.635 75.4832 182.865 75.4832C182.125 75.4832 181.498 75.6742 180.985 76.056C180.478 76.4378 180.093 76.9707 179.831 77.6545C179.569 78.3384 179.438 79.1363 179.438 80.0481ZM194.865 86.9039C194.033 86.9039 193.281 86.7501 192.608 86.4423C191.936 86.1289 191.403 85.6758 191.01 85.0831C190.622 84.4904 190.429 83.7638 190.429 82.9033C190.429 82.1624 190.571 81.5526 190.856 81.0739C191.141 80.5952 191.526 80.2162 192.01 79.937C192.494 79.6577 193.036 79.4469 193.634 79.3044C194.233 79.1619 194.842 79.0536 195.464 78.9795C196.25 78.8884 196.888 78.8143 197.378 78.7573C197.869 78.6946 198.225 78.5949 198.447 78.4581C198.669 78.3213 198.78 78.0991 198.78 77.7913V77.7315C198.78 76.9849 198.57 76.4065 198.148 75.9962C197.732 75.5858 197.111 75.3807 196.284 75.3807C195.424 75.3807 194.746 75.5716 194.25 75.9534C193.76 76.3295 193.421 76.7484 193.232 77.21L190.83 76.6629C191.115 75.8651 191.531 75.2211 192.078 74.731C192.631 74.2352 193.267 73.8761 193.985 73.6539C194.703 73.4259 195.458 73.312 196.25 73.312C196.774 73.312 197.33 73.3746 197.917 73.5C198.51 73.6197 199.063 73.842 199.575 74.1668C200.094 74.4916 200.519 74.9561 200.849 75.5602C201.18 76.1586 201.345 76.9365 201.345 77.8939V86.6133H198.849V84.8181H198.746C198.581 85.1487 198.333 85.4735 198.003 85.7926C197.672 86.1118 197.247 86.3768 196.729 86.5876C196.21 86.7985 195.589 86.9039 194.865 86.9039ZM195.421 84.8523C196.128 84.8523 196.732 84.7127 197.233 84.4334C197.74 84.1542 198.125 83.7895 198.387 83.3392C198.655 82.8833 198.789 82.3961 198.789 81.8775V80.1849C198.698 80.2761 198.521 80.3615 198.259 80.4413C198.003 80.5154 197.709 80.581 197.378 80.6379C197.048 80.6892 196.726 80.7377 196.413 80.7833C196.099 80.8232 195.837 80.8574 195.626 80.8858C195.13 80.9485 194.677 81.054 194.267 81.2021C193.862 81.3503 193.537 81.564 193.292 81.8433C193.053 82.1168 192.933 82.4815 192.933 82.9375C192.933 83.57 193.167 84.0488 193.634 84.3736C194.102 84.6927 194.697 84.8523 195.421 84.8523ZM213.836 76.6886L211.52 77.0989C211.423 76.8026 211.269 76.5205 211.058 76.2526C210.853 75.9848 210.574 75.7653 210.22 75.5944C209.867 75.4234 209.425 75.3379 208.895 75.3379C208.172 75.3379 207.567 75.5003 207.083 75.8252C206.599 76.1443 206.356 76.5575 206.356 77.0647C206.356 77.5035 206.519 77.8569 206.844 78.1247C207.169 78.3926 207.693 78.612 208.417 78.7829L210.502 79.2616C211.711 79.5409 212.611 79.9712 213.204 80.5525C213.796 81.1337 214.093 81.8889 214.093 82.8178C214.093 83.6042 213.865 84.3052 213.409 84.9207C212.959 85.5305 212.329 86.0092 211.52 86.3568C210.716 86.7045 209.784 86.8783 208.724 86.8783C207.254 86.8783 206.054 86.5648 205.125 85.938C204.197 85.3054 203.627 84.4078 203.416 83.2452L205.886 82.8691C206.04 83.5131 206.356 84.0003 206.835 84.3309C207.314 84.6557 207.938 84.8181 208.707 84.8181C209.545 84.8181 210.215 84.6443 210.716 84.2967C211.218 83.9433 211.468 83.5131 211.468 83.0059C211.468 82.5955 211.315 82.2507 211.007 81.9715C210.705 81.6922 210.24 81.4814 209.613 81.3389L207.391 80.8517C206.166 80.5724 205.259 80.1279 204.672 79.5181C204.091 78.9083 203.8 78.1361 203.8 77.2015C203.8 76.4264 204.017 75.7482 204.45 75.167C204.883 74.5857 205.482 74.1326 206.245 73.8078C207.009 73.4772 207.884 73.312 208.87 73.312C210.289 73.312 211.406 73.6197 212.221 74.2352C213.036 74.845 213.574 75.6628 213.836 76.6886ZM221.81 86.8783C220.516 86.8783 219.402 86.6019 218.467 86.0491C217.538 85.4906 216.82 84.707 216.313 83.6983C215.812 82.6839 215.561 81.4956 215.561 80.1336C215.561 78.7886 215.812 77.6033 216.313 76.5774C216.82 75.5516 217.527 74.7509 218.433 74.1753C219.345 73.5997 220.411 73.312 221.63 73.312C222.371 73.312 223.089 73.4345 223.785 73.6795C224.48 73.9246 225.104 74.3093 225.657 74.8336C226.209 75.3579 226.645 76.0389 226.965 76.8766C227.284 77.7087 227.443 78.7202 227.443 79.9113V80.8175H217.006V78.9026H224.939C224.939 78.2301 224.802 77.6346 224.528 77.116C224.255 76.5917 223.87 76.1785 223.374 75.8765C222.884 75.5744 222.309 75.4234 221.647 75.4234C220.929 75.4234 220.302 75.6001 219.767 75.9534C219.237 76.301 218.826 76.757 218.536 77.3212C218.251 77.8797 218.108 78.4866 218.108 79.142V80.6379C218.108 81.5156 218.262 82.2621 218.57 82.8776C218.883 83.4931 219.319 83.9633 219.878 84.2881C220.436 84.6073 221.089 84.7668 221.835 84.7668C222.32 84.7668 222.762 84.6984 223.16 84.5617C223.559 84.4192 223.904 84.2083 224.195 83.9291C224.485 83.6498 224.708 83.305 224.862 82.8947L227.281 83.3307C227.087 84.0431 226.739 84.6671 226.238 85.2028C225.742 85.7328 225.118 86.146 224.366 86.4423C223.619 86.733 222.767 86.8783 221.81 86.8783ZM234.442 86.8697C233.382 86.8697 232.436 86.599 231.604 86.0576C230.778 85.5105 230.128 84.7326 229.655 83.7239C229.188 82.7095 228.954 81.4928 228.954 80.0737C228.954 78.6547 229.191 77.4408 229.664 76.4321C230.142 75.4234 230.798 74.6512 231.63 74.1155C232.462 73.5798 233.405 73.312 234.459 73.312C235.274 73.312 235.93 73.4487 236.425 73.7223C236.927 73.9901 237.315 74.3036 237.588 74.6626C237.867 75.0216 238.084 75.3379 238.238 75.6115H238.392V69.1061H240.948V86.6133H238.451V84.5702H238.238C238.084 84.8495 237.862 85.1686 237.571 85.5276C237.286 85.8867 236.893 86.2001 236.391 86.468C235.89 86.7358 235.24 86.8697 234.442 86.8697ZM235.006 84.6899C235.742 84.6899 236.363 84.4961 236.87 84.1086C237.383 83.7154 237.77 83.1711 238.033 82.4758C238.3 81.7806 238.434 80.9713 238.434 80.0481C238.434 79.1363 238.303 78.3384 238.041 77.6545C237.779 76.9707 237.394 76.4378 236.887 76.056C236.38 75.6742 235.753 75.4832 235.006 75.4832C234.237 75.4832 233.596 75.6827 233.083 76.0816C232.57 76.4806 232.183 77.0248 231.92 77.7144C231.664 78.404 231.536 79.1819 231.536 80.0481C231.536 80.9257 231.667 81.715 231.929 82.416C232.191 83.117 232.579 83.6726 233.092 84.083C233.61 84.4876 234.248 84.6899 235.006 84.6899ZM249.462 91.5372V73.4829H251.958V75.6115H252.172C252.32 75.3379 252.534 75.0216 252.813 74.6626C253.092 74.3036 253.48 73.9901 253.975 73.7223C254.471 73.4487 255.127 73.312 255.942 73.312C257.002 73.312 257.948 73.5798 258.78 74.1155C259.612 74.6512 260.264 75.4234 260.737 76.4321C261.216 77.4408 261.455 78.6547 261.455 80.0737C261.455 81.4928 261.219 82.7095 260.746 83.7239C260.273 84.7326 259.623 85.5105 258.797 86.0576C257.97 86.599 257.027 86.8697 255.967 86.8697C255.169 86.8697 254.517 86.7358 254.01 86.468C253.508 86.2001 253.115 85.8867 252.83 85.5276C252.545 85.1686 252.326 84.8495 252.172 84.5702H252.018L252.018 91.5372H249.462ZM251.966 80.0481C251.966 80.9713 252.1 81.7806 252.368 82.4758C252.636 83.1711 253.024 83.7154 253.531 84.1086C254.038 84.4961 254.659 84.6899 255.394 84.6899C256.158 84.6899 256.796 84.4876 257.309 84.083C257.822 83.6726 258.21 83.117 258.472 82.416C258.74 81.715 258.874 80.9257 258.874 80.0481C258.874 79.1819 258.743 78.404 258.48 77.7144C258.224 77.0248 257.836 76.4806 257.318 76.0816C256.805 75.6827 256.164 75.4832 255.394 75.4832C254.654 75.4832 254.027 75.6742 253.514 76.056C253.007 76.4378 252.622 76.9707 252.36 77.6545C252.098 78.3384 251.966 79.1363 251.966 80.0481ZM263.567 86.6133V73.4829H266.037V75.5687H266.174C266.413 74.8621 266.835 74.3064 267.439 73.9018C268.049 73.4915 268.738 73.2863 269.508 73.2863C269.667 73.2863 269.855 73.292 270.072 73.3034C270.294 73.3148 270.468 73.329 270.593 73.3461V75.791C270.491 75.7625 270.309 75.7312 270.046 75.697C269.784 75.6571 269.522 75.6371 269.26 75.6371C268.656 75.6371 268.117 75.7653 267.644 76.0218C267.177 76.2726 266.807 76.623 266.533 77.0733C266.259 77.5178 266.123 78.025 266.123 78.5949V86.6133H263.567ZM272.053 86.6133V73.4829H274.609V86.6133H272.053ZM273.344 71.4569C272.899 71.4569 272.518 71.3088 272.198 71.0124C271.885 70.7104 271.728 70.3514 271.728 69.9353C271.728 69.5136 271.885 69.1546 272.198 68.8582C272.518 68.5562 272.899 68.4052 273.344 68.4052C273.788 68.4052 274.167 68.5562 274.481 68.8582C274.8 69.1546 274.96 69.5136 274.96 69.9353C274.96 70.3514 274.8 70.7104 274.481 71.0124C274.167 71.3088 273.788 71.4569 273.344 71.4569ZM282.826 86.8783C281.555 86.8783 280.461 86.5905 279.544 86.0149C278.632 85.4336 277.931 84.6329 277.441 83.6128C276.951 82.5927 276.706 81.4244 276.706 80.1079C276.706 78.7744 276.956 77.5976 277.458 76.5774C277.959 75.5516 278.666 74.7509 279.578 74.1753C280.49 73.5997 281.564 73.312 282.801 73.312C283.798 73.312 284.687 73.4972 285.468 73.8676C286.248 74.2323 286.878 74.7452 287.357 75.4063C287.841 76.0674 288.129 76.8396 288.22 77.7229H285.733C285.596 77.1074 285.283 76.5774 284.792 76.1329C284.308 75.6884 283.658 75.4662 282.843 75.4662C282.131 75.4662 281.507 75.6542 280.971 76.0303C280.441 76.4008 280.028 76.9308 279.732 77.6204C279.435 78.3042 279.287 79.1135 279.287 80.0481C279.287 81.0055 279.433 81.8319 279.723 82.5271C280.014 83.2224 280.424 83.761 280.954 84.1428C281.49 84.5246 282.12 84.7155 282.843 84.7155C283.328 84.7155 283.767 84.6272 284.16 84.4505C284.559 84.2682 284.892 84.0089 285.16 83.6726C285.434 83.3364 285.624 82.9318 285.733 82.4588H288.22C288.129 83.3079 287.853 84.0659 287.391 84.7326C286.93 85.3994 286.311 85.9237 285.536 86.3055C284.767 86.6874 283.863 86.8783 282.826 86.8783ZM290.201 86.6133V73.4829H292.757V86.6133H290.201ZM291.492 71.4569C291.048 71.4569 290.666 71.3088 290.347 71.0124C290.033 70.7104 289.877 70.3514 289.877 69.9353C289.877 69.5136 290.033 69.1546 290.347 68.8582C290.666 68.5562 291.048 68.4052 291.492 68.4052C291.937 68.4052 292.316 68.5562 292.629 68.8582C292.948 69.1546 293.108 69.5136 293.108 69.9353C293.108 70.3514 292.948 70.7104 292.629 71.0124C292.316 71.3088 291.937 71.4569 291.492 71.4569ZM298 78.8171V86.6133H295.444V73.4829L297.897 73.4829V75.62H298.06C298.362 74.9248 298.835 74.3663 299.479 73.9445C300.128 73.5228 300.946 73.312 301.932 73.312C302.827 73.312 303.61 73.5 304.283 73.8761C304.955 74.2466 305.477 74.7994 305.847 75.5345C306.218 76.2697 306.403 77.1787 306.403 78.2615V86.6133H303.847V78.5692C303.847 77.6175 303.599 76.8738 303.103 76.3381C302.607 75.7967 301.926 75.526 301.06 75.526C300.467 75.526 299.94 75.6542 299.479 75.9107C299.023 76.1671 298.661 76.5433 298.393 77.0391C298.131 77.5292 298 78.1219 298 78.8171ZM314.584 91.8107C313.541 91.8107 312.643 91.6739 311.891 91.4004C311.144 91.1268 310.535 90.765 310.062 90.3147C309.589 89.8645 309.235 89.3716 309.002 88.8359L311.198 87.9297C311.352 88.1805 311.557 88.4455 311.814 88.7247C312.076 89.0097 312.429 89.2519 312.874 89.4514C313.324 89.6508 313.903 89.7505 314.609 89.7505C315.578 89.7505 316.379 89.514 317.011 89.041C317.644 88.5737 317.96 87.8272 317.96 86.8013V84.2197H317.798C317.644 84.499 317.422 84.8096 317.131 85.1515C316.846 85.4934 316.453 85.7898 315.951 86.0405C315.45 86.2913 314.797 86.4167 313.994 86.4167C312.957 86.4167 312.022 86.1745 311.19 85.6901C310.364 85.1999 309.708 84.479 309.224 83.5273C308.745 82.5699 308.506 81.3931 308.506 79.9968C308.506 78.6006 308.742 77.4038 309.215 76.4065C309.694 75.4092 310.349 74.6455 311.181 74.1155C312.013 73.5798 312.957 73.312 314.011 73.312C314.826 73.312 315.484 73.4487 315.986 73.7223C316.487 73.9901 316.877 74.3036 317.157 74.6626C317.442 75.0216 317.661 75.3379 317.815 75.6115H318.003V73.4829H320.508V86.9039C320.508 88.0323 320.246 88.9584 319.721 89.6822C319.197 90.4059 318.487 90.9416 317.593 91.2893C316.704 91.6369 315.701 91.8107 314.584 91.8107ZM314.558 84.2967C315.293 84.2967 315.914 84.1257 316.422 83.7838C316.934 83.4361 317.322 82.9403 317.584 82.2963C317.852 81.6467 317.986 80.8687 317.986 79.9626C317.986 79.0793 317.855 78.3014 317.593 77.6289C317.331 76.9564 316.946 76.4321 316.439 76.056C315.931 75.6742 315.305 75.4832 314.558 75.4832C313.789 75.4832 313.147 75.6827 312.635 76.0816C312.122 76.4749 311.734 77.0106 311.472 77.6887C311.216 78.3669 311.087 79.1249 311.087 79.9626C311.087 80.8232 311.218 81.5783 311.481 82.2279C311.743 82.8776 312.13 83.3848 312.643 83.7496C313.162 84.1143 313.8 84.2967 314.558 84.2967Z" fill="#EFE5E5"/>
<defs>
<filter id="filter1_d_75_6171" x="22.558" y="21.0658" width="81.2434" height="81.2434" filterUnits="userSpaceOnUse" color-interpolation-filters="sRGB">
<feFlood flood-opacity="0" result="BackgroundImageFix"/>
<feColorMatrix in="SourceAlpha" type="matrix" values="0 0 0 0 0 0 0 0 0 0 0 0 0 0 0 0 0 0 127 0" result="hardAlpha"/>
<feMorphology radius="1.50452" operator="dilate" in="SourceAlpha" result="effect1_dropShadow_75_6171"/>
<feOffset/>
<feComposite in2="hardAlpha" operator="out"/>
<feColorMatrix type="matrix" values="0 0 0 0 0.531116 0 0 0 0 0 0 0 0 0 0 0 0 0 0.4 0"/>
<feBlend mode="normal" in2="BackgroundImageFix" result="effect1_dropShadow_75_6171"/>
<feBlend mode="normal" in="SourceGraphic" in2="effect1_dropShadow_75_6171" result="shape"/>
</filter>
<filter id="filter2_f_75_6171" x="25.9931" y="29.5165" width="72.5177" height="72.5177" filterUnits="userSpaceOnUse" color-interpolation-filters="sRGB">
<feFlood flood-opacity="0" result="BackgroundImageFix"/>
<feBlend mode="normal" in="SourceGraphic" in2="BackgroundImageFix" result="shape"/>
<feGaussianBlur stdDeviation="13.2398" result="effect1_foregroundBlur_75_6171"/>
</filter>
<linearGradient id="paint0_linear_75_6171" x1="182.047" y1="-5.03704e-06" x2="210.21" y2="90.1822" gradientUnits="userSpaceOnUse">
<stop stop-color="#870000"/>
<stop offset="1" stop-color="#70717A"/>
</linearGradient>
<linearGradient id="paint1_linear_75_6171" x1="364.094" y1="115.848" x2="26.0942" y2="-34.281" gradientUnits="userSpaceOnUse">
<stop stop-color="white" stop-opacity="0.07"/>
<stop offset="1" stop-color="white" stop-opacity="0.15"/>
</linearGradient>
<clipPath id="clip0_75_6171">
<rect x="24.0625" y="22.5703" width="78.2351" height="78.2351" rx="24.0723" fill="white"/>
</clipPath>
</defs>
</svg>
