<svg width="365" height="124" viewBox="0 0 365 124" fill="none" xmlns="http://www.w3.org/2000/svg">
<rect x="0.75226" y="0.75226" width="362.589" height="121.866" rx="29.3382" fill="url(#paint0_linear_75_6310)" fill-opacity="0.16"/>
<rect x="0.75226" y="0.75226" width="362.589" height="121.866" rx="29.3382" stroke="url(#paint1_linear_75_6310)" stroke-width="1.50452"/>
<g filter="url(#filter1_d_75_6310)">
<g clip-path="url(#clip0_75_6310)">
<rect x="24.0625" y="22.5703" width="78.2351" height="78.2351" rx="24.0723" fill="white" fill-opacity="0.07" shape-rendering="crispEdges"/>
<g filter="url(#filter2_f_75_6310)">
<circle cx="61.7695" cy="65.8672" r="11" fill="#D4999F"/>
</g>
<g filter="url(#filter3_f_75_6310)">
<circle cx="63.1554" cy="65.5461" r="4.43277" fill="#F067A3"/>
</g>
<path d="M75.7798 75.5368C77.2174 71.3179 78.9346 67.0602 81.0457 63.1358C81.1677 62.9087 81.4855 62.2398 81.6199 62.1015C81.783 61.9346 81.9014 61.9763 81.9085 62.2059C80.3103 66.7276 78.4425 71.1498 76.921 75.7007C76.8705 75.9291 77.1347 75.8778 77.2906 75.9612C77.9736 76.3291 77.7011 77.3377 76.9389 77.3872C72.8945 76.2188 68.6984 75.9291 64.5024 75.8372C60.5288 75.7502 56.4779 75.8837 52.5621 76.6271C51.682 76.7947 50.489 77.231 49.6822 77.3181C48.4166 77.4546 48.4291 75.9112 49.5995 75.8337C48.1149 71.1742 46.0644 66.7151 44.543 62.0658C44.6084 62.0646 44.6786 62.0038 44.7417 62.0151C44.8423 62.033 45.4789 63.2354 45.5843 63.4333C47.6055 67.2278 49.2781 71.3119 50.6812 75.3764L50.7675 75.4718C51.1894 75.3997 51.6065 75.2739 52.0266 75.1958C57.396 74.202 63.2885 74.0703 68.7288 74.4637C71.0982 74.6348 73.4741 74.9812 75.7792 75.5362L75.7798 75.5368Z" fill="#F9AFB6"/>
<path d="M75.7571 79.8096C75.7137 79.8483 75.434 79.9813 75.3745 79.9938C75.0633 80.0582 73.4573 79.6295 72.9896 79.5485C70.221 79.0674 67.4238 78.9404 64.6159 78.8766C60.0991 78.7735 55.5216 78.9857 51.1089 80.0087C50.1468 79.9366 50.0754 78.7979 50.9626 78.4867C51.9295 78.1475 53.6931 77.9448 54.7493 77.8095C59.8123 77.1621 65.4912 77.1371 70.5679 77.6825C71.802 77.8149 74.3778 78.11 75.4596 78.5642C75.9529 78.7711 76.1694 79.4406 75.7571 79.8096Z" fill="#F9AFB6"/>
<path d="M74.3755 58.3237C74.5105 58.4668 74.454 58.8144 74.385 58.9884C73.9923 59.9774 72.6332 62.0854 71.9222 62.8997C69.8271 65.3022 67.5202 65.0315 65.6786 62.5361C65.0925 61.742 63.3206 58.62 63.3188 57.7431C63.3188 57.6638 63.3592 57.6042 63.3824 57.5344H62.9659C63.0308 57.6537 63.0272 57.7055 62.9992 57.8313C62.7476 58.9652 61.3254 61.5721 60.6102 62.5367C57.0675 67.3136 53.9037 62.6398 52.2246 59.2048C52.0782 58.905 51.8134 58.4221 52.2573 58.2194C52.4822 58.1169 52.6875 58.3279 52.8166 58.4924C53.8627 59.8242 55.568 63.2371 57.5715 63.1334C58.896 63.0649 60.1336 61.243 60.8125 60.2356C61.4831 59.2406 62.0561 58.1765 62.6648 57.1434C62.7946 57.0092 63.4646 56.9878 63.5883 57.1785C64.6552 58.8537 65.7161 61.1053 67.2489 62.3936C70.1389 64.8223 72.3411 60.2964 73.7632 58.3672C73.9024 58.1634 74.2172 58.1586 74.3743 58.3249L74.3755 58.3237Z" fill="#F9AFB6"/>
<path d="M51.3757 58.6056C51.4584 58.5263 51.6214 58.6324 51.678 58.7493C51.8618 59.1296 52.0635 60.4453 52.0915 60.8984C52.2325 63.1667 51.3846 66.2142 48.4714 65.4195C47.3534 65.1149 45.4517 62.8519 45.075 61.7878C44.9078 61.3151 45.1607 60.8918 45.6367 61.166C45.8152 61.2692 46.5548 62.3667 46.7923 62.6313C47.7455 63.6925 49.3913 64.9825 50.5671 63.4296C51.3424 62.4054 51.4358 60.5162 51.3763 59.2912C51.3709 59.1838 51.3513 58.6294 51.3763 58.6062L51.3757 58.6056Z" fill="#F9AFB6"/>
<path d="M74.877 58.547C75.2411 58.3062 75.0478 59.1491 75.0489 59.2326C75.0757 60.6329 75.3536 64.1573 77.335 64.1275C78.7065 64.1066 79.9989 62.1751 80.7356 61.1689C81.0509 60.8952 81.4436 61.1164 81.4627 61.5069C81.4734 61.7221 80.5327 63.1248 80.3387 63.3943C79.7306 64.239 78.7988 65.3848 77.6956 65.5153C74.896 65.8468 74.3064 62.7564 74.4599 60.6043C74.4771 60.3659 74.7889 58.6054 74.877 58.5476V58.547Z" fill="#F9AFB6"/>
<path d="M64.8394 67.2899C65.4505 68.5334 65.9176 69.675 65.764 71.1463C65.5427 73.2716 63.1608 74.7768 61.4561 73.0331C59.6454 71.1809 60.9128 67.8049 62.1172 65.9426C62.5075 65.3393 62.9121 64.4594 63.6273 65.2541C64.1938 65.883 64.4818 66.5626 64.8394 67.2899ZM63.0174 65.4693C62.8651 65.5104 62.2439 66.5274 62.1314 66.7319C61.1455 68.5167 60.0626 71.9613 62.3992 73.1607C63.5607 73.7568 64.8531 72.7601 65.1916 71.6453C65.7028 69.9636 64.7912 67.6839 63.8564 66.2758C63.6981 66.0368 63.3203 65.387 63.018 65.4687L63.0174 65.4693Z" fill="#F27AA6"/>
<path d="M62.8399 42.5215C63.1106 42.4595 63.2213 42.5364 63.4206 42.6896C65.7275 44.4631 66.7468 47.8957 63.564 49.3873C62.8839 49.7062 62.7137 49.584 62.0884 49.2108C59.6642 47.7646 60.023 45.3711 61.7248 43.4908C61.898 43.3001 62.6405 42.5674 62.8399 42.5215ZM62.9 43.1135C62.8309 43.1326 61.9824 43.9916 61.8747 44.118C60.6056 45.6089 60.336 47.4921 62.1848 48.6379C62.6911 48.9515 62.925 49.1202 63.4926 48.8388C65.8846 47.6549 65.2682 45.3651 63.7514 43.7299C63.5848 43.5505 63.1386 43.0485 62.9006 43.1135H62.9Z" fill="#F4AAB4"/>
<path d="M62.8923 50.2719C63.1595 50.201 63.6016 50.5164 63.8193 50.6857C65.4545 51.9578 65.9358 53.9525 64.5441 55.6241C64.315 55.8989 63.3903 56.7514 63.0559 56.7514C62.6329 56.7514 61.5255 55.6253 61.275 55.2611C60.3593 53.9305 60.5777 52.2833 61.6844 51.1489C61.8706 50.9581 62.668 50.331 62.8923 50.2713V50.2719ZM62.9518 50.8049C62.8863 50.8186 62.283 51.2776 62.1925 51.3605C60.6871 52.7292 60.9472 54.523 62.4306 55.7731C63.0797 56.3204 63.1844 56.2119 63.8009 55.6539C64.9475 54.6154 65.251 53.1656 64.3007 51.8726C64.1139 51.6186 63.2469 50.7423 62.9518 50.8049Z" fill="#F4AAB4"/>
<path d="M41.3551 55.995C41.7121 55.9222 42.3738 56.0433 42.7403 56.1297C44.8978 56.6388 46.2973 58.4851 45.2501 60.6723C45.1109 60.9632 44.8223 61.4878 44.4962 61.5266C42.3256 61.7853 40.7993 60.4207 40.6577 58.2758C40.6202 57.7107 40.6672 56.1357 41.3551 55.995ZM41.4092 56.5261C41.1992 56.5971 41.1195 57.899 41.1343 58.1566C41.2444 60.0833 42.4815 61.3221 44.4653 61.0181C45.5803 59.4705 45.2394 57.6928 43.4531 56.9059C43.0259 56.7175 41.8305 56.3837 41.4092 56.5255V56.5261Z" fill="#F4AAB4"/>
<path d="M84.0299 55.9985C84.5695 55.9514 84.9742 55.9567 85.1896 56.5296C85.9625 58.5815 85.0462 61.3727 82.5863 61.5271C81.892 61.5706 81.7503 61.5152 81.3749 60.9482C79.782 58.5452 81.3683 56.2298 84.0299 55.9985ZM84.6886 56.5248C82.3132 56.3567 80.2664 58.0873 81.6902 60.5124C81.977 61.0007 82.0354 61.0973 82.6363 61.0406C84.8968 60.8266 85.2782 58.3264 84.6886 56.5254V56.5248Z" fill="#F4AAB4"/>
<path d="M49.4422 52.4763C49.8474 52.3553 51.1993 52.9806 51.5604 53.2501C52.9772 54.3065 53.1111 56.0412 52.1846 57.4916C51.63 58.3602 51.2028 58.3435 50.2448 58.0854C48.1968 57.534 47.8302 54.6695 48.7912 53.0784C48.8775 52.9359 49.3011 52.5186 49.4422 52.4763ZM49.441 52.9514C49.1548 53.0361 48.8614 54.2296 48.8132 54.5318C48.6115 55.7998 48.978 57.2437 50.3496 57.6234C50.5203 57.6705 51.1683 57.785 51.304 57.748C51.5759 57.6735 52.0597 56.731 52.1525 56.4472C52.6606 54.8978 51.8913 53.7866 50.4686 53.2125C50.2799 53.1362 49.5963 52.9067 49.441 52.9526V52.9514Z" fill="#F4AAB4"/>
<path d="M76.3502 52.4195C76.8988 52.3533 77.179 52.903 77.3611 53.3435C78.0644 55.0419 77.8853 57.4045 75.8545 58.0054C75.3131 58.1657 74.7222 58.2891 74.3104 57.8307C72.3671 55.6649 73.5262 52.7605 76.3502 52.4195ZM76.4121 52.8952C74.1165 53.0943 72.9657 55.4771 74.5205 57.3222C74.9061 57.7794 75.1964 57.7019 75.748 57.541C77.5491 57.0164 77.5587 54.6223 76.8125 53.2374C76.7024 53.0335 76.6578 52.8738 76.4121 52.8952Z" fill="#F4AAB4"/>
<path d="M72.1785 68.9939C72.9871 68.877 74.4062 69.153 74.5133 70.1402C74.6675 71.5585 73.2668 72.932 71.8679 72.8539C70.1358 72.7573 70.2131 69.2776 72.1785 68.9933V68.9939ZM73.9588 69.832C73.453 69.2329 72.0363 69.2055 71.4793 69.7837C70.9539 70.3292 70.8819 71.8571 71.4823 72.3436C72.0166 72.7764 73.3417 72.0252 73.7118 71.5436C74.0189 71.1441 74.3146 70.2535 73.9588 69.832Z" fill="#F4AAB4"/>
<path d="M53.3897 68.9934C54.7416 68.7979 55.8418 69.49 55.9031 70.9172C55.9942 73.0335 54.2091 73.3608 52.8376 72.1393C51.7183 71.1419 51.5856 69.2546 53.3897 68.994V68.9934ZM53.7503 69.3511C51.4387 69.4871 52.4484 71.899 54.0574 72.3473C54.8309 72.5626 55.1802 72.4523 55.3884 71.6516C55.7044 70.4391 55.1076 69.2713 53.7503 69.3511Z" fill="#F4AAB4"/>
<path d="M62.8937 61.8978C64.2409 61.6713 64.8192 63.5473 63.5869 64.0827C61.9584 64.7903 61.2735 62.1708 62.8937 61.8978Z" fill="#F9AFB6"/>
<path d="M68.8283 66.0179C70.1481 64.6939 72.2146 67.0785 70.6812 68.2618C69.3335 69.3021 67.6205 67.2299 68.8283 66.0179ZM69.5049 66.0698C69.3044 66.1115 69.008 66.3685 68.914 66.5509C68.4356 67.4815 69.5578 68.5617 70.4147 67.9351C71.3304 67.2663 70.5349 65.8552 69.5043 66.0698H69.5049Z" fill="#F4AAB4"/>
<path d="M56.6472 65.6602C57.7064 65.656 58.2782 67.0003 57.7046 67.8391C57.0989 68.7243 55.8648 68.7601 55.3322 67.7795C54.7997 66.7988 55.6119 65.6643 56.6472 65.6602ZM55.8553 67.8218C56.8246 68.7661 58.1919 67.1923 57.2316 66.2939C56.2712 65.3955 54.961 66.9502 55.8553 67.8218Z" fill="#F4AAB4"/>
<path d="M85.0401 54.5009C85.9617 54.3667 86.1249 55.8281 85.1973 55.92C84.3512 56.0035 84.1792 54.6262 85.0401 54.5009Z" fill="#F4AAB4"/>
<path d="M48.5123 51.345C49.6989 51.1035 49.559 53.0504 48.5022 52.6997C47.8193 52.473 47.8746 51.4745 48.5123 51.345Z" fill="#F4AAB4"/>
<path d="M77.3667 51.2819C78.3366 51.1417 78.3979 52.8011 77.2952 52.6389C76.4956 52.5208 76.6915 51.3797 77.3667 51.2819Z" fill="#F9AFB6"/>
<path d="M41.2366 55.7236C40.7228 56.2139 39.7839 55.5345 40.2447 54.8193C40.8222 53.9234 41.9344 55.0579 41.2366 55.7236Z" fill="#F4AAB4"/>
<path d="M63.0167 65.4681C63.319 65.3858 63.6968 66.0362 63.8551 66.2753C64.7898 67.6833 65.7014 69.963 65.1903 71.6447C64.8517 72.7589 63.5593 73.7563 62.3979 73.1601C60.0612 71.9607 61.1442 68.5162 62.1301 66.7313C62.2432 66.5268 62.8638 65.5098 63.0161 65.4687L63.0167 65.4681ZM63.1226 65.818C61.8909 67.3072 60.4545 70.7422 62.0789 72.347C62.6293 72.8907 63.1851 73.0659 63.8622 72.6391C66.0465 71.2608 64.4418 67.34 63.1226 65.818Z" fill="#F4AAB4"/>
<path d="M62.907 43.1112C63.1451 43.0463 63.5919 43.5482 63.7579 43.7276C65.2746 45.3629 65.8911 47.6532 63.4991 48.8366C62.9314 49.1174 62.6976 48.9493 62.1912 48.6357C60.3425 47.4905 60.6126 45.6067 61.8812 44.1157C61.9889 43.9888 62.8374 43.1297 62.9064 43.1112H62.907ZM62.9624 43.7086C62.6857 43.764 61.8134 44.9193 61.6629 45.2079C61.0381 46.4067 61.3261 47.5853 62.5119 48.2548C63.0647 48.5671 63.1409 48.5016 63.6562 48.1588C64.7962 47.3999 64.8623 46.2469 64.2214 45.1113C64.0828 44.8657 63.2176 43.6573 62.9624 43.7086Z" fill="#0B0607"/>
<path d="M62.9524 50.8039C63.2475 50.7419 64.1145 51.6176 64.3013 51.8716C65.2515 53.1646 64.9481 54.6145 63.8015 55.6529C63.1856 56.2109 63.0803 56.3188 62.4311 55.7722C60.9477 54.5221 60.6877 52.7283 62.1931 51.3595C62.2836 51.2773 62.8869 50.8176 62.9524 50.8039ZM62.9964 51.3518C62.834 51.3542 62.2544 51.9265 62.1354 52.0773C61.3048 53.1324 61.5916 54.3855 62.5495 55.2362C62.9179 55.5629 62.9744 55.6857 63.3838 55.3555C64.6018 54.3712 64.7779 52.9011 63.623 51.7768C63.5284 51.6844 63.1011 51.3506 62.9964 51.3524V51.3518Z" fill="#0B0607"/>
<path d="M41.4251 56.5264C41.8463 56.3845 43.0417 56.7183 43.469 56.9067C45.2552 57.6936 45.5962 59.4713 44.4811 61.0189C42.4973 61.3229 41.2603 60.0841 41.1502 58.1574C41.1353 57.8999 41.215 56.5979 41.4251 56.527V56.5264ZM41.6845 57.0545C41.5887 57.2596 41.606 58.1824 41.6321 58.4483C41.7619 59.7461 42.7746 60.7554 44.1241 60.5718C44.2853 60.5497 44.3877 60.3166 44.4508 60.1539C45.1582 58.341 43.7629 57.1529 42.0635 57.0027C41.96 56.9937 41.7345 56.946 41.6839 57.0545H41.6845Z" fill="#0B0607"/>
<path d="M84.6911 56.5275C85.2808 58.329 84.9 60.8287 82.6389 61.0427C82.0379 61.0999 81.9796 61.0033 81.6928 60.5145C80.2683 58.0894 82.3158 56.3588 84.6911 56.5269V56.5275ZM84.4014 57.414C84.3906 57.2929 84.4591 56.9901 84.3038 56.9412C84.1925 56.9066 83.4255 57.0807 83.2583 57.1326C81.8535 57.5678 81.2936 58.6575 81.9403 60.0292C81.9796 60.1133 82.2569 60.5634 82.3021 60.5747C82.4586 60.6146 82.8228 60.5377 82.9739 60.4543C84.2282 60.2593 84.5346 58.8495 84.4615 57.7716C84.4507 57.6166 84.4252 57.5797 84.4019 57.4736C84.3978 57.4539 84.4073 57.4312 84.4019 57.414H84.4014Z" fill="#0B0607"/>
<path d="M49.4488 52.9513C49.6041 52.9054 50.2877 53.1355 50.4764 53.2112C51.8991 53.7853 52.6684 54.8965 52.1603 56.4459C52.0669 56.7303 51.5837 57.6728 51.3118 57.7467C51.1761 57.7836 50.5287 57.6698 50.3574 57.6221C48.9858 57.2423 48.6193 55.7985 48.821 54.5305C48.8692 54.2288 49.1626 53.0348 49.4488 52.9501V52.9513ZM49.6231 53.4843C48.9412 54.7099 48.9638 56.7929 50.596 57.2048C51.1886 57.3544 51.2814 57.2251 51.5593 56.679C52.4215 54.9836 51.2862 53.7257 49.6231 53.4843Z" fill="#0B0607"/>
<path d="M76.4092 52.8965C76.655 52.875 76.7002 53.0348 76.8097 53.2387C77.5552 54.6235 77.5457 57.017 75.7452 57.5422C75.1936 57.7032 74.9032 57.7807 74.5176 57.3234C72.9623 55.4784 74.1136 53.0956 76.4092 52.8965ZM76.4116 53.4288C76.198 53.2947 75.2221 53.7895 75.0085 53.9427C74.0107 54.6581 74.0642 55.8378 74.6932 56.7893C74.9205 57.1327 74.9788 57.2233 75.412 57.1488C76.4854 56.9634 76.9067 55.935 76.8352 54.9412C76.8204 54.732 76.5306 53.5045 76.411 53.4294L76.4116 53.4288Z" fill="#0B0607"/>
<path d="M73.963 69.8294C74.3189 70.2509 74.0225 71.1415 73.7161 71.5409C73.346 72.0226 72.0209 72.7737 71.4866 72.3409C70.8862 71.8545 70.9582 70.3272 71.4836 69.7811C72.0405 69.2029 73.4573 69.2303 73.963 69.8294ZM71.7382 71.9386C72.0233 72.1824 72.9253 71.7174 73.1806 71.4813C73.4537 71.2285 73.8702 70.472 73.6292 70.1346C73.3335 69.7203 72.194 69.7054 71.8096 70.0482C71.4253 70.391 71.3485 71.6053 71.7382 71.9386Z" fill="#0B0607"/>
<path d="M53.7434 69.3515C55.1012 69.2716 55.6975 70.4395 55.3815 71.652C55.1732 72.4521 54.824 72.563 54.0504 72.3477C52.4415 71.9 51.4317 69.488 53.7434 69.3515ZM53.8535 69.7766C53.5453 69.7772 52.8193 69.9298 52.7973 70.3185C52.7586 70.9957 53.5108 71.7373 54.1224 71.9179C54.6407 72.0711 54.8906 72.0336 54.99 71.4374C55.1369 70.5569 54.849 69.773 53.8541 69.776L53.8535 69.7766Z" fill="#0B0607"/>
<path d="M69.5018 66.0689C70.5324 65.8542 71.328 67.2653 70.4122 67.9342C69.5548 68.5607 68.4326 67.4799 68.9116 66.5499C69.005 66.3681 69.3019 66.1106 69.5024 66.0689H69.5018ZM69.6809 66.485C68.9782 66.5505 69.1383 67.8066 69.96 67.6629C70.6603 67.5401 70.4128 66.417 69.6809 66.485Z" fill="#0B0607"/>
<path d="M55.8551 67.8204C54.9607 66.9488 56.318 65.4376 57.2313 66.2924C58.1917 67.1908 56.8237 68.7647 55.8551 67.8204ZM56.5881 66.4904C55.7343 66.5035 55.8902 67.9068 56.7297 67.6368C57.3384 67.4406 57.1956 66.4808 56.5881 66.4904Z" fill="#0B0607"/>
<path d="M63.1214 65.8203C64.4406 67.3423 66.0459 71.2631 63.861 72.6414C63.1839 73.0688 62.6275 72.8929 62.0777 72.3493C60.4533 70.7444 61.8897 67.3095 63.1214 65.8203ZM63.1214 66.6549C62.117 67.9372 60.9609 71.1206 62.6805 72.2223C63.0946 72.4876 63.2505 72.4959 63.6569 72.1978C64.8071 71.3531 64.5744 69.7757 64.1478 68.6061C63.9015 67.9307 63.5159 67.2534 63.1214 66.6549Z" fill="#0B0607"/>
<path d="M62.9646 43.7125C63.2199 43.6613 64.085 44.8696 64.2237 45.1152C64.8651 46.2503 64.7991 47.4038 63.6584 48.1627C63.1431 48.5055 63.067 48.5711 62.5142 48.2587C61.3283 47.5892 61.0403 46.4107 61.6651 45.2118C61.8156 44.9233 62.6873 43.768 62.9646 43.7125Z" fill="#F067A3"/>
<path d="M63.0028 51.3522C63.1075 51.3504 63.5347 51.6842 63.6293 51.7766C64.7843 52.9009 64.6087 54.3716 63.3901 55.3553C62.9808 55.6861 62.9236 55.5633 62.5559 55.236C61.5973 54.3853 61.3105 53.1316 62.1418 52.0771C62.2608 51.9262 62.8403 51.3539 63.0028 51.3516V51.3522Z" fill="#F067A3"/>
<path d="M44.1026 60.5719C42.7531 60.7555 41.7404 59.7463 41.6106 58.4485C41.5839 58.1826 41.5672 57.2598 41.663 57.0547C41.9504 57.1691 42.2777 57.4464 42.524 57.6526C42.7703 57.8589 43.5022 58.461 43.6551 58.6655C43.9277 59.0297 43.9449 60.1051 44.1026 60.5719Z" fill="#F067A3"/>
<path d="M41.668 57.0541C41.7185 56.9462 41.9441 56.9933 42.0476 57.0023C43.747 57.1525 45.1423 58.3406 44.4348 60.1535C44.3712 60.3162 44.2694 60.5493 44.1082 60.5714C43.9505 60.1046 43.9332 59.0292 43.6607 58.6649C43.5078 58.4604 42.7717 57.8554 42.5296 57.6521C42.2874 57.4488 41.956 57.1686 41.6686 57.0541H41.668Z" fill="#F27AA6"/>
<path d="M84.3996 57.4099C84.405 57.4272 84.3955 57.4499 84.3996 57.4695C84.4032 57.5649 84.3627 57.7163 84.4591 57.7676C84.5323 58.8454 84.2259 60.2553 82.9716 60.4502C82.8436 60.4699 82.4212 60.5283 82.3855 60.4115C82.3278 60.2207 82.4569 58.7041 82.5402 58.4979C82.6776 58.1587 83.6773 57.4463 83.9248 57.0832C84.3128 56.9586 84.3098 57.1071 84.3996 57.4099Z" fill="#F067A3"/>
<path d="M84.4085 57.4147C84.318 57.1119 84.321 56.9641 83.9336 57.0881C83.6861 57.4505 82.6865 58.1635 82.549 58.5027C82.4657 58.7084 82.3366 60.225 82.3943 60.4163C82.43 60.5338 82.8525 60.4753 82.9804 60.4551C82.8293 60.5385 82.4651 60.6154 82.3086 60.5755C82.2634 60.5642 81.9867 60.1141 81.9469 60.03C81.3007 58.6583 81.86 57.5686 83.2648 57.1334C83.432 57.0815 84.199 56.9074 84.3103 56.942C84.4656 56.9903 84.3972 57.2937 84.4079 57.4147H84.4085Z" fill="#F27AA6"/>
<path d="M84.4594 57.7666C84.3631 57.7154 84.4035 57.5641 84.4 57.4688C84.4232 57.5748 84.4487 57.6117 84.4594 57.7666Z" fill="#F27AA6"/>
<path d="M49.6219 53.4844C51.285 53.7258 52.4203 54.9837 51.5581 56.6791C51.2802 57.2252 51.1874 57.3545 50.5948 57.2049C48.9626 56.793 48.94 54.71 49.6219 53.4844Z" fill="#F067A3"/>
<path d="M76.4088 53.4257C76.5284 53.5009 76.8182 54.7283 76.833 54.9376C76.9038 55.9319 76.4832 56.9597 75.4097 57.1451C74.976 57.2202 74.9177 57.1296 74.691 56.7856C74.0614 55.8342 74.0085 54.6544 75.0063 53.939C75.2199 53.7858 76.1958 53.291 76.4094 53.4252L76.4088 53.4257Z" fill="#F067A3"/>
<path d="M71.7384 71.9379C71.3487 71.6046 71.4118 70.4022 71.8098 70.0475C72.2079 69.6928 73.3337 69.7196 73.6294 70.1339C73.8704 70.4714 73.4539 71.2285 73.1808 71.4806C72.9255 71.7167 72.0234 72.1817 71.7384 71.9379Z" fill="#F067A3"/>
<path d="M53.859 69.7773C54.8538 69.775 55.1418 70.5583 54.9949 71.4388C54.8955 72.0349 54.6456 72.0725 54.1273 71.9193C53.5156 71.7381 52.7635 70.9965 52.8022 70.3198C52.8242 69.9312 53.5508 69.7785 53.8584 69.7779L53.859 69.7773Z" fill="#F067A3"/>
<path d="M69.6786 66.4874C70.4115 66.4188 70.6586 67.5432 69.9578 67.6661C69.1356 67.8098 68.9754 66.553 69.6786 66.4874Z" fill="#F4AAB4"/>
<path d="M56.5965 66.4923C57.2044 66.4827 57.3473 67.4431 56.7382 67.6393C55.8982 67.9095 55.7428 66.506 56.5965 66.4923Z" fill="#F4AAB4"/>
<path d="M63.1228 66.6523C63.5167 67.2509 63.9028 67.9281 64.1492 68.6035C64.5758 69.7731 64.8085 71.3505 63.6583 72.1953C63.2519 72.4933 63.096 72.485 62.6819 72.2197C60.9622 71.1175 62.1184 67.9341 63.1228 66.6523Z" fill="#F067A3"/>
</g>
</g>
<path d="M128.226 51.5938V36.275H133.402C134.599 36.275 135.581 36.4794 136.349 36.8883C137.117 37.2923 137.686 37.8483 138.055 38.5564C138.424 39.2644 138.608 40.0698 138.608 40.9723C138.608 41.8749 138.424 42.6753 138.055 43.3734C137.686 44.0715 137.12 44.62 136.357 45.019C135.594 45.4129 134.619 45.6099 133.432 45.6099H129.243V43.9344H133.372C134.19 43.9344 134.848 43.8147 135.347 43.5753C135.851 43.336 136.215 42.9969 136.439 42.5581C136.668 42.1143 136.783 41.5857 136.783 40.9723C136.783 40.359 136.668 39.8229 136.439 39.3642C136.21 38.9054 135.843 38.5514 135.339 38.302C134.836 38.0477 134.17 37.9206 133.342 37.9206H130.081V51.5938H128.226ZM135.437 44.7123L139.207 51.5938H137.052L133.342 44.7123H135.437ZM146.153 51.8331C145.046 51.8331 144.092 51.5888 143.289 51.1001C142.491 50.6064 141.875 49.9183 141.441 49.0356C141.012 48.148 140.798 47.1158 140.798 45.939C140.798 44.7621 141.012 43.7249 141.441 42.8274C141.875 41.9248 142.478 41.2217 143.251 40.718C144.029 40.2094 144.937 39.9551 145.974 39.9551C146.572 39.9551 147.163 40.0548 147.747 40.2543C148.33 40.4537 148.861 40.7779 149.34 41.2267C149.819 41.6705 150.2 42.2589 150.484 42.9919C150.769 43.7249 150.911 44.6275 150.911 45.6996V46.4476H142.054V44.9217H149.115C149.115 44.2735 148.986 43.695 148.727 43.1864C148.472 42.6778 148.108 42.2763 147.634 41.9821C147.166 41.6879 146.612 41.5408 145.974 41.5408C145.271 41.5408 144.662 41.7153 144.149 42.0644C143.64 42.4085 143.249 42.8573 142.975 43.4108C142.7 43.9643 142.563 44.5577 142.563 45.191V46.2083C142.563 47.0759 142.713 47.8114 143.012 48.4148C143.316 49.0132 143.737 49.4695 144.276 49.7836C144.815 50.0928 145.44 50.2474 146.153 50.2474C146.617 50.2474 147.036 50.1825 147.41 50.0529C147.789 49.9183 148.116 49.7188 148.39 49.4545C148.664 49.1852 148.876 48.8511 149.026 48.4522L150.731 48.9309C150.552 49.5094 150.25 50.018 149.826 50.4568C149.402 50.8906 148.879 51.2297 148.255 51.4741C147.632 51.7134 146.931 51.8331 146.153 51.8331ZM161.734 42.6778L160.148 43.1265C160.049 42.8623 159.901 42.6055 159.707 42.3561C159.517 42.1018 159.258 41.8924 158.929 41.7278C158.6 41.5633 158.179 41.481 157.665 41.481C156.962 41.481 156.376 41.643 155.907 41.9672C155.443 42.2863 155.212 42.6927 155.212 43.1864C155.212 43.6252 155.371 43.9718 155.69 44.2261C156.009 44.4804 156.508 44.6923 157.186 44.8619L158.892 45.2807C159.919 45.5301 160.684 45.9115 161.188 46.4252C161.692 46.9338 161.943 47.5895 161.943 48.3924C161.943 49.0506 161.754 49.639 161.375 50.1576C161.001 50.6762 160.477 51.0851 159.804 51.3843C159.131 51.6835 158.348 51.8331 157.456 51.8331C156.284 51.8331 155.314 51.5788 154.546 51.0702C153.778 50.5615 153.292 49.8185 153.087 48.8412L154.763 48.4223C154.922 49.0406 155.224 49.5044 155.668 49.8135C156.117 50.1227 156.703 50.2773 157.426 50.2773C158.248 50.2773 158.902 50.1028 159.385 49.7537C159.874 49.3997 160.118 48.9758 160.118 48.4821C160.118 48.0832 159.979 47.7491 159.699 47.4798C159.42 47.2056 158.991 47.0011 158.413 46.8665L156.498 46.4177C155.446 46.1684 154.673 45.7819 154.179 45.2583C153.691 44.7297 153.446 44.069 153.446 43.2761C153.446 42.6279 153.628 42.0544 153.992 41.5558C154.361 41.0571 154.863 40.6657 155.496 40.3814C156.134 40.0972 156.857 39.9551 157.665 39.9551C158.802 39.9551 159.694 40.2044 160.343 40.7031C160.996 41.2017 161.46 41.86 161.734 42.6778ZM171.841 46.8964V40.1047H173.606V51.5938H171.841V49.649H171.721C171.452 50.2324 171.033 50.7286 170.465 51.1375C169.896 51.5414 169.178 51.7433 168.311 51.7433C167.593 51.7433 166.954 51.5863 166.396 51.2721C165.837 50.953 165.399 50.4743 165.079 49.836C164.76 49.1927 164.601 48.3824 164.601 47.405V40.1047H166.366V47.2853C166.366 48.1231 166.6 48.7913 167.069 49.29C167.543 49.7886 168.146 50.0379 168.879 50.0379C169.318 50.0379 169.764 49.9257 170.218 49.7013C170.677 49.4769 171.061 49.1329 171.37 48.6691C171.684 48.2054 171.841 47.6145 171.841 46.8964ZM178.605 36.275V51.5938H176.84V36.275H178.605ZM186.835 40.1047V41.6007H180.881V40.1047H186.835ZM182.616 37.3521H184.381V48.3026C184.381 48.8013 184.453 49.1753 184.598 49.4246C184.748 49.6689 184.937 49.8335 185.167 49.9183C185.401 49.998 185.648 50.0379 185.907 50.0379C186.102 50.0379 186.261 50.028 186.386 50.008C186.51 49.9831 186.61 49.9631 186.685 49.9482L187.044 51.5339C186.924 51.5788 186.757 51.6237 186.543 51.6685C186.328 51.7184 186.057 51.7433 185.728 51.7433C185.229 51.7433 184.74 51.6361 184.261 51.4217C183.788 51.2073 183.394 50.8807 183.08 50.4419C182.77 50.003 182.616 49.4495 182.616 48.7813L182.616 37.3521ZM197.422 42.6778L195.837 43.1265C195.737 42.8623 195.59 42.6055 195.395 42.3561C195.206 42.1018 194.946 41.8924 194.617 41.7278C194.288 41.5633 193.867 41.481 193.353 41.481C192.65 41.481 192.064 41.643 191.595 41.9672C191.132 42.2863 190.9 42.6927 190.9 43.1864C190.9 43.6252 191.059 43.9718 191.379 44.2261C191.698 44.4804 192.196 44.6923 192.875 44.8619L194.58 45.2807C195.607 45.5301 196.373 45.9115 196.876 46.4252C197.38 46.9338 197.632 47.5895 197.632 48.3924C197.632 49.0506 197.442 49.639 197.063 50.1576C196.689 50.6762 196.166 51.0851 195.492 51.3843C194.819 51.6835 194.036 51.8331 193.144 51.8331C191.972 51.8331 191.002 51.5788 190.234 51.0702C189.466 50.5615 188.98 49.8185 188.776 48.8412L190.451 48.4223C190.611 49.0406 190.912 49.5044 191.356 49.8135C191.805 50.1227 192.391 50.2773 193.114 50.2773C193.937 50.2773 194.59 50.1028 195.074 49.7537C195.562 49.3997 195.807 48.9758 195.807 48.4821C195.807 48.0832 195.667 47.7491 195.388 47.4798C195.109 47.2056 194.68 47.0011 194.101 46.8665L192.186 46.4177C191.134 46.1684 190.361 45.7819 189.868 45.2583C189.379 44.7297 189.135 44.069 189.135 43.2761C189.135 42.6279 189.317 42.0544 189.681 41.5558C190.05 41.0571 190.551 40.6657 191.184 40.3814C191.822 40.0972 192.545 39.9551 193.353 39.9551C194.49 39.9551 195.383 40.2044 196.031 40.7031C196.684 41.2017 197.148 41.86 197.422 42.6778Z" fill="#EFE5E5"/>
<path d="M134.167 86.8526C133.386 86.8412 132.617 86.6988 131.859 86.4252C131.107 86.1517 130.423 85.6958 129.808 85.0575C129.192 84.4192 128.699 83.5615 128.329 82.4844C127.964 81.4073 127.782 80.0623 127.782 78.4495C127.782 76.9222 127.933 75.5659 128.235 74.3805C128.542 73.1951 128.984 72.195 129.56 71.38C130.135 70.5594 130.831 69.9353 131.645 69.5079C132.46 69.0805 133.375 68.8668 134.39 68.8668C135.432 68.8668 136.358 69.0719 137.168 69.4823C137.977 69.8926 138.632 70.4596 139.134 71.1834C139.641 71.9072 139.963 72.7307 140.1 73.6539H137.493C137.316 72.9244 136.965 72.3289 136.441 71.8673C135.917 71.4057 135.233 71.1748 134.39 71.1748C133.107 71.1748 132.107 71.7333 131.389 72.8503C130.677 73.9673 130.318 75.5203 130.312 77.5092H130.44C130.742 77.0134 131.113 76.5917 131.551 76.2441C131.996 75.8907 132.492 75.62 133.039 75.432C133.592 75.2382 134.173 75.1413 134.783 75.1413C135.797 75.1413 136.715 75.3892 137.535 75.885C138.362 76.3751 139.02 77.0533 139.51 77.9195C140 78.7858 140.245 79.7774 140.245 80.8944C140.245 82.0114 139.992 83.0229 139.484 83.9291C138.983 84.8352 138.276 85.5533 137.364 86.0833C136.453 86.6076 135.387 86.864 134.167 86.8526ZM134.159 84.63C134.831 84.63 135.432 84.4648 135.962 84.1342C136.492 83.8037 136.911 83.3592 137.219 82.8007C137.527 82.2422 137.681 81.6182 137.681 80.9286C137.681 80.2561 137.53 79.6435 137.228 79.0907C136.931 78.5379 136.521 78.0991 135.997 77.7742C135.478 77.4494 134.885 77.287 134.219 77.287C133.711 77.287 133.241 77.3838 132.808 77.5776C132.381 77.7714 132.004 78.0392 131.68 78.3812C131.355 78.7231 131.098 79.1163 130.91 79.5608C130.728 79.9997 130.637 80.4641 130.637 80.9542C130.637 81.6096 130.788 82.2165 131.09 82.775C131.398 83.3335 131.816 83.7838 132.346 84.1257C132.882 84.4619 133.486 84.63 134.159 84.63ZM150.377 76.7484V78.971H142.615V76.7484H150.377ZM152.999 86.6133L160.642 71.4997V71.3715L151.803 71.3715V69.1061L163.377 69.1061V71.4484L155.761 86.6133H152.999ZM170.778 83.6726V72.1152H173.077V83.6726H170.778ZM166.153 79.0394V76.7484H177.711V79.0394H166.153ZM192.779 73.4829V75.5345H185.359L185.359 73.4829H192.779ZM187.394 86.6133V71.9613C187.394 71.1407 187.573 70.4596 187.932 69.9182C188.292 69.3711 188.767 68.9637 189.36 68.6958C189.953 68.4223 190.597 68.2855 191.292 68.2855C191.805 68.2855 192.244 68.3282 192.608 68.4137C192.973 68.4935 193.244 68.5676 193.421 68.636L192.822 70.7047C192.702 70.6705 192.549 70.6306 192.361 70.585C192.172 70.5337 191.945 70.5081 191.677 70.5081C191.056 70.5081 190.611 70.6619 190.343 70.9697C190.081 71.2774 189.95 71.7219 189.95 72.3032V86.6133H187.394ZM194.664 86.6133V73.4829H197.22V86.6133L194.664 86.6133ZM195.955 71.4569C195.511 71.4569 195.129 71.3088 194.81 71.0124C194.496 70.7104 194.34 70.3514 194.34 69.9353C194.34 69.5136 194.496 69.1546 194.81 68.8582C195.129 68.5562 195.511 68.4052 195.955 68.4052C196.4 68.4052 196.779 68.5562 197.092 68.8582C197.411 69.1546 197.571 69.5136 197.571 69.9353C197.571 70.3514 197.411 70.7104 197.092 71.0124C196.779 71.3088 196.4 71.4569 195.955 71.4569ZM205.412 91.8107C204.369 91.8107 203.471 91.6739 202.719 91.4004C201.973 91.1268 201.363 90.765 200.89 90.3147C200.417 89.8645 200.063 89.3716 199.83 88.8359L202.027 87.9297C202.181 88.1805 202.386 88.4455 202.642 88.7247C202.904 89.0097 203.258 89.2519 203.702 89.4514C204.152 89.6508 204.731 89.7505 205.437 89.7505C206.406 89.7505 207.207 89.514 207.84 89.041C208.472 88.5737 208.788 87.8272 208.788 86.8013V84.2197H208.626C208.472 84.499 208.25 84.8096 207.959 85.1515C207.674 85.4934 207.281 85.7898 206.78 86.0405C206.278 86.2913 205.626 86.4167 204.822 86.4167C203.785 86.4167 202.85 86.1745 202.018 85.6901C201.192 85.1999 200.536 84.479 200.052 83.5273C199.573 82.5699 199.334 81.3931 199.334 79.9968C199.334 78.6006 199.57 77.4038 200.043 76.4065C200.522 75.4092 201.178 74.6455 202.01 74.1155C202.842 73.5798 203.785 73.312 204.839 73.312C205.654 73.312 206.312 73.4487 206.814 73.7223C207.315 73.9901 207.706 74.3036 207.985 74.6626C208.27 75.0216 208.489 75.3379 208.643 75.6115H208.831V73.4829H211.336V86.9039C211.336 88.0323 211.074 88.9584 210.549 89.6822C210.025 90.4059 209.316 90.9416 208.421 91.2893C207.532 91.6369 206.529 91.8107 205.412 91.8107ZM205.386 84.2967C206.121 84.2967 206.743 84.1257 207.25 83.7838C207.763 83.4361 208.15 82.9403 208.412 82.2963C208.68 81.6467 208.814 80.8687 208.814 79.9626C208.814 79.0793 208.683 78.3014 208.421 77.6289C208.159 76.9564 207.774 76.4321 207.267 76.056C206.76 75.6742 206.133 75.4832 205.386 75.4832C204.617 75.4832 203.976 75.6827 203.463 76.0816C202.95 76.4749 202.562 77.0106 202.3 77.6887C202.044 78.3669 201.916 79.1249 201.916 79.9626C201.916 80.8232 202.047 81.5783 202.309 82.2279C202.571 82.8776 202.958 83.3848 203.471 83.7496C203.99 84.1143 204.628 84.2967 205.386 84.2967ZM222.329 81.1679V73.4829H224.894V86.6133H222.38V84.3394H222.244C221.942 85.0404 221.457 85.6245 220.79 86.0918C220.129 86.5534 219.306 86.7842 218.32 86.7842C217.477 86.7842 216.73 86.599 216.08 86.2286C215.436 85.8525 214.929 85.2968 214.559 84.5617C214.194 83.8265 214.012 82.9175 214.012 81.8347V73.4829H216.568V81.527C216.568 82.4217 216.815 83.1341 217.311 83.6641C217.807 84.1941 218.451 84.4591 219.243 84.4591C219.722 84.4591 220.198 84.3394 220.671 84.1C221.149 83.8607 221.546 83.4988 221.859 83.0144C222.178 82.53 222.335 81.9145 222.329 81.1679ZM227.576 86.6133V73.4829H230.046V75.5687H230.183C230.422 74.8621 230.844 74.3064 231.448 73.9018C232.058 73.4915 232.748 73.2863 233.517 73.2863C233.676 73.2863 233.865 73.292 234.081 73.3034C234.303 73.3148 234.477 73.329 234.603 73.3461V75.791C234.5 75.7625 234.318 75.7312 234.055 75.697C233.793 75.6571 233.531 75.6371 233.269 75.6371C232.665 75.6371 232.126 75.7653 231.653 76.0218C231.186 76.2726 230.816 76.623 230.542 77.0733C230.268 77.5178 230.132 78.025 230.132 78.5949V86.6133H227.576ZM241.251 86.8783C239.957 86.8783 238.843 86.6019 237.909 86.0491C236.98 85.4906 236.262 84.707 235.754 83.6983C235.253 82.6839 235.002 81.4956 235.002 80.1336C235.002 78.7886 235.253 77.6033 235.754 76.5774C236.262 75.5516 236.968 74.7509 237.874 74.1753C238.786 73.5997 239.852 73.312 241.072 73.312C241.812 73.312 242.53 73.4345 243.226 73.6795C243.921 73.9246 244.545 74.3093 245.098 74.8336C245.651 75.3579 246.087 76.0389 246.406 76.8766C246.725 77.7087 246.884 78.7202 246.884 79.9113V80.8175H236.447V78.9026H244.38C244.38 78.2301 244.243 77.6346 243.969 77.116C243.696 76.5917 243.311 76.1785 242.815 75.8765C242.325 75.5744 241.75 75.4234 241.089 75.4234C240.371 75.4234 239.744 75.6001 239.208 75.9534C238.678 76.301 238.268 76.757 237.977 77.3212C237.692 77.8797 237.55 78.4866 237.55 79.142V80.6379C237.55 81.5156 237.703 82.2621 238.011 82.8776C238.325 83.4931 238.761 83.9633 239.319 84.2881C239.878 84.6073 240.53 84.7668 241.277 84.7668C241.761 84.7668 242.203 84.6984 242.602 84.5617C243.001 84.4192 243.345 84.2083 243.636 83.9291C243.927 83.6498 244.149 83.305 244.303 82.8947L246.722 83.3307C246.528 84.0431 246.181 84.6671 245.679 85.2028C245.183 85.7328 244.559 86.146 243.807 86.4423C243.06 86.733 242.208 86.8783 241.251 86.8783ZM260.092 91.8107C259.049 91.8107 258.151 91.6739 257.399 91.4004C256.652 91.1268 256.043 90.765 255.57 90.3147C255.097 89.8645 254.743 89.3716 254.51 88.8359L256.707 87.9297C256.86 88.1805 257.066 88.4455 257.322 88.7247C257.584 89.0097 257.938 89.2519 258.382 89.4514C258.832 89.6508 259.411 89.7505 260.117 89.7505C261.086 89.7505 261.887 89.514 262.52 89.041C263.152 88.5737 263.468 87.8272 263.468 86.8013V84.2197H263.306C263.152 84.499 262.93 84.8096 262.639 85.1515C262.354 85.4934 261.961 85.7898 261.46 86.0405C260.958 86.2913 260.305 86.4167 259.502 86.4167C258.465 86.4167 257.53 86.1745 256.698 85.6901C255.872 85.1999 255.216 84.479 254.732 83.5273C254.253 82.5699 254.014 81.3931 254.014 79.9968C254.014 78.6006 254.25 77.4038 254.723 76.4065C255.202 75.4092 255.857 74.6455 256.69 74.1155C257.522 73.5798 258.465 73.312 259.519 73.312C260.334 73.312 260.992 73.4487 261.494 73.7223C261.995 73.9901 262.386 74.3036 262.665 74.6626C262.95 75.0216 263.169 75.3379 263.323 75.6115H263.511V73.4829H266.016V86.9039C266.016 88.0323 265.754 88.9584 265.229 89.6822C264.705 90.4059 263.996 90.9416 263.101 91.2893C262.212 91.6369 261.209 91.8107 260.092 91.8107ZM260.066 84.2967C260.801 84.2967 261.422 84.1257 261.93 83.7838C262.443 83.4361 262.83 82.9403 263.092 82.2963C263.36 81.6467 263.494 80.8687 263.494 79.9626C263.494 79.0793 263.363 78.3014 263.101 77.6289C262.839 76.9564 262.454 76.4321 261.947 76.056C261.44 75.6742 260.813 75.4832 260.066 75.4832C259.297 75.4832 258.656 75.6827 258.143 76.0816C257.63 76.4749 257.242 77.0106 256.98 77.6887C256.724 78.3669 256.595 79.1249 256.595 79.9626C256.595 80.8232 256.727 81.5783 256.989 82.2279C257.251 82.8776 257.638 83.3848 258.151 83.7496C258.67 84.1143 259.308 84.2967 260.066 84.2967ZM268.691 86.6133V73.4829H271.162V75.5687H271.299C271.538 74.8621 271.96 74.3064 272.564 73.9018C273.174 73.4915 273.863 73.2863 274.633 73.2863C274.792 73.2863 274.98 73.292 275.197 73.3034C275.419 73.3148 275.593 73.329 275.718 73.3461V75.791C275.616 75.7625 275.433 75.7312 275.171 75.697C274.909 75.6571 274.647 75.6371 274.385 75.6371C273.781 75.6371 273.242 75.7653 272.769 76.0218C272.302 76.2726 271.931 76.623 271.658 77.0733C271.384 77.5178 271.247 78.025 271.247 78.5949V86.6133H268.691ZM282.239 86.8783C281.008 86.8783 279.933 86.5962 279.016 86.032C278.098 85.4678 277.386 84.6785 276.879 83.6641C276.372 82.6497 276.118 81.4643 276.118 80.1079C276.118 78.7459 276.372 77.5548 276.879 76.5347C277.386 75.5146 278.098 74.7224 279.016 74.1582C279.933 73.594 281.008 73.312 282.239 73.312C283.47 73.312 284.544 73.594 285.461 74.1582C286.379 74.7224 287.091 75.5146 287.598 76.5347C288.106 77.5548 288.359 78.7459 288.359 80.1079C288.359 81.4643 288.106 82.6497 287.598 83.6641C287.091 84.6785 286.379 85.4678 285.461 86.032C284.544 86.5962 283.47 86.8783 282.239 86.8783ZM282.247 84.7326C283.045 84.7326 283.706 84.5218 284.23 84.1C284.755 83.6783 285.142 83.117 285.393 82.416C285.649 81.715 285.778 80.9428 285.778 80.0994C285.778 79.2616 285.649 78.4923 285.393 77.7913C285.142 77.0847 284.755 76.5176 284.23 76.0902C283.706 75.6628 283.045 75.4491 282.247 75.4491C281.444 75.4491 280.777 75.6628 280.247 76.0902C279.722 76.5176 279.332 77.0847 279.076 77.7913C278.825 78.4923 278.7 79.2616 278.7 80.0994C278.7 80.9428 278.825 81.715 279.076 82.416C279.332 83.117 279.722 83.6783 280.247 84.1C280.777 84.5218 281.444 84.7326 282.247 84.7326ZM292.907 86.6133L289.043 73.4829H291.685L294.258 83.1255H294.386L296.967 73.4829L299.609 73.4829L302.173 83.0828H302.302L304.858 73.4829H307.499L303.644 86.6133H301.037L298.369 77.1331H298.173L295.506 86.6133L292.907 86.6133ZM315.302 73.4829V75.5345H308.13V73.4829H315.302ZM310.053 70.3371H312.609V82.7579C312.609 83.2538 312.683 83.627 312.831 83.8778C312.979 84.1228 313.17 84.291 313.404 84.3821C313.643 84.4676 313.903 84.5104 314.182 84.5104C314.387 84.5104 314.567 84.4961 314.72 84.4676C314.874 84.4391 314.994 84.4163 315.079 84.3992L315.541 86.5107C315.393 86.5677 315.182 86.6247 314.908 86.6817C314.635 86.7444 314.293 86.7786 313.883 86.7842C313.21 86.7956 312.583 86.676 312.002 86.4252C311.421 86.1745 310.951 85.7869 310.592 85.2626C310.232 84.7383 310.053 84.0801 310.053 83.2879V70.3371ZM320.215 78.8171V86.6133H317.659V69.1061H320.181V75.62H320.343C320.651 74.9134 321.121 74.352 321.754 73.936C322.386 73.52 323.213 73.312 324.233 73.312C325.133 73.312 325.92 73.4972 326.592 73.8676C327.27 74.238 327.794 74.7908 328.165 75.526C328.541 76.2555 328.729 77.1673 328.729 78.2615V86.6133H326.173V78.5692C326.173 77.6061 325.925 76.8595 325.429 76.3295C324.934 75.7938 324.244 75.526 323.361 75.526C322.757 75.526 322.215 75.6542 321.736 75.9107C321.263 76.1671 320.89 76.5433 320.617 77.0391C320.349 77.5292 320.215 78.1219 320.215 78.8171Z" fill="#EFE5E5"/>
<defs>
<filter id="filter1_d_75_6310" x="22.558" y="21.0658" width="81.2434" height="81.2434" filterUnits="userSpaceOnUse" color-interpolation-filters="sRGB">
<feFlood flood-opacity="0" result="BackgroundImageFix"/>
<feColorMatrix in="SourceAlpha" type="matrix" values="0 0 0 0 0 0 0 0 0 0 0 0 0 0 0 0 0 0 127 0" result="hardAlpha"/>
<feMorphology radius="1.50452" operator="dilate" in="SourceAlpha" result="effect1_dropShadow_75_6310"/>
<feOffset/>
<feComposite in2="hardAlpha" operator="out"/>
<feColorMatrix type="matrix" values="0 0 0 0 0.531116 0 0 0 0 0 0 0 0 0 0 0 0 0 0.4 0"/>
<feBlend mode="normal" in2="BackgroundImageFix" result="effect1_dropShadow_75_6310"/>
<feBlend mode="normal" in="SourceGraphic" in2="effect1_dropShadow_75_6310" result="shape"/>
</filter>
<filter id="filter2_f_75_6310" x="24.3059" y="28.4036" width="74.9273" height="74.9273" filterUnits="userSpaceOnUse" color-interpolation-filters="sRGB">
<feFlood flood-opacity="0" result="BackgroundImageFix"/>
<feBlend mode="normal" in="SourceGraphic" in2="BackgroundImageFix" result="shape"/>
<feGaussianBlur stdDeviation="13.2318" result="effect1_foregroundBlur_75_6310"/>
</filter>
<filter id="filter3_f_75_6310" x="32.259" y="34.6497" width="61.7944" height="61.7944" filterUnits="userSpaceOnUse" color-interpolation-filters="sRGB">
<feFlood flood-opacity="0" result="BackgroundImageFix"/>
<feBlend mode="normal" in="SourceGraphic" in2="BackgroundImageFix" result="shape"/>
<feGaussianBlur stdDeviation="13.2318" result="effect1_foregroundBlur_75_6310"/>
</filter>
<linearGradient id="paint0_linear_75_6310" x1="182.047" y1="-5.03704e-06" x2="210.21" y2="90.1822" gradientUnits="userSpaceOnUse">
<stop stop-color="#870000"/>
<stop offset="1" stop-color="#70717A"/>
</linearGradient>
<linearGradient id="paint1_linear_75_6310" x1="364.094" y1="115.848" x2="26.0942" y2="-34.281" gradientUnits="userSpaceOnUse">
<stop stop-color="white" stop-opacity="0.07"/>
<stop offset="1" stop-color="white" stop-opacity="0.15"/>
</linearGradient>
<clipPath id="clip0_75_6310">
<rect x="24.0625" y="22.5703" width="78.2351" height="78.2351" rx="24.0723" fill="white"/>
</clipPath>
</defs>
</svg>
