<svg width="365" height="124" viewBox="0 0 365 124" fill="none" xmlns="http://www.w3.org/2000/svg">
<rect x="0.75226" y="0.75226" width="362.589" height="121.866" rx="29.3382" fill="url(#paint0_linear_75_6385)" fill-opacity="0.16"/>
<rect x="0.75226" y="0.75226" width="362.589" height="121.866" rx="29.3382" stroke="url(#paint1_linear_75_6385)" stroke-width="1.50452"/>
<g filter="url(#filter1_d_75_6385)">
<g clip-path="url(#clip0_75_6385)">
<rect x="24.0625" y="22.5703" width="78.2351" height="78.2351" rx="24.0723" fill="white" fill-opacity="0.07" shape-rendering="crispEdges"/>
<g filter="url(#filter2_f_75_6385)">
<circle cx="61.7773" cy="65.8672" r="11" fill="#1D9720"/>
</g>
<g filter="url(#filter3_f_75_6385)">
<circle cx="65.168" cy="67.5586" r="11" fill="#95E430"/>
</g>
<path d="M38.5843 78.2245L38.5843 79.793H37.0159V78.2245H38.5843ZM38.5843 76.656V78.2245H37.0159L37.0159 76.656H38.5843ZM38.5843 75.0875V76.656H37.0159V75.0875H38.5843ZM38.5843 73.519V75.0875H37.0159V73.519H38.5843ZM38.5843 71.9506V73.519H37.0159V71.9506H38.5843ZM38.5843 70.3821V71.9506H37.0159V70.3821H38.5843ZM38.5843 68.8136V70.3821H37.0159V68.8136H38.5843ZM38.5843 67.2451V68.8136H37.0159V67.2451H38.5843ZM38.5843 65.6766V67.2451H37.0159V65.6766H38.5843ZM38.5843 64.1082V65.6766H37.0159V64.1082H38.5843ZM38.5843 62.5397V64.1082H37.0159V62.5397H38.5843ZM38.5843 60.9712V62.5397H37.0159V60.9712H38.5843ZM38.5843 59.4027V60.9712H37.0159V59.4027H38.5843ZM38.5843 57.8342V59.4027H37.0159V57.8342H38.5843ZM38.5843 56.2658L38.5843 57.8342H37.0159L37.0159 56.2658H38.5843ZM40.1528 56.2658L40.1528 57.8342H38.5843L38.5843 56.2658H40.1528ZM40.1528 57.8342V59.4027H38.5843V57.8342H40.1528ZM40.1528 59.4027V60.9712H38.5843V59.4027H40.1528ZM40.1528 60.9712V62.5397H38.5843V60.9712H40.1528ZM40.1528 62.5397V64.1082H38.5843V62.5397H40.1528ZM40.1528 64.1082V65.6766H38.5843V64.1082H40.1528ZM40.1528 65.6766V67.2451H38.5843V65.6766H40.1528ZM41.7213 67.2451V68.8136H40.1528V67.2451H41.7213ZM41.7213 68.8136V70.3821H40.1528V68.8136H41.7213ZM41.7213 70.3821V71.9506H40.1528V70.3821H41.7213ZM41.7213 71.9506V73.519H40.1528V71.9506H41.7213ZM41.7213 73.519V75.0875H40.1528V73.519H41.7213ZM41.7213 75.0875V76.656H40.1528V75.0875H41.7213ZM41.7213 76.656V78.2245H40.1528V76.656H41.7213ZM41.7213 78.2245L41.7213 79.793H40.1528L40.1528 78.2245H41.7213ZM43.2898 78.2245V79.793H41.7213L41.7213 78.2245H43.2898ZM44.8583 78.2245V79.793H43.2898V78.2245H44.8583ZM44.8583 76.656V78.2245H43.2898V76.656H44.8583ZM44.8583 75.0875V76.656H43.2898V75.0875H44.8583ZM44.8583 73.519V75.0875H43.2898V73.519H44.8583ZM44.8583 71.9506V73.519H43.2898V71.9506H44.8583ZM44.8583 70.3821V71.9506H43.2898V70.3821H44.8583ZM44.8583 68.8136V70.3821H43.2898V68.8136H44.8583ZM44.8583 67.2451V68.8136H43.2898V67.2451H44.8583ZM43.2898 67.2451V68.8136H41.7213V67.2451H43.2898ZM43.2898 65.6766V67.2451H41.7213V65.6766H43.2898ZM43.2898 68.8136V70.3821H41.7213V68.8136H43.2898ZM43.2898 70.3821V71.9506H41.7213V70.3821H43.2898ZM43.2898 71.9506V73.519H41.7213V71.9506H43.2898ZM43.2898 73.519V75.0875H41.7213V73.519H43.2898ZM43.2898 75.0875V76.656H41.7213V75.0875H43.2898ZM43.2898 76.656V78.2245H41.7213V76.656H43.2898ZM40.1528 78.2245L40.1528 79.793H38.5843L38.5843 78.2245H40.1528ZM40.1528 76.656V78.2245H38.5843V76.656H40.1528ZM40.1528 75.0875V76.656H38.5843V75.0875H40.1528ZM40.1528 73.519V75.0875H38.5843V73.519H40.1528ZM40.1528 71.9506V73.519H38.5843V71.9506H40.1528ZM40.1528 70.3821V71.9506H38.5843V70.3821H40.1528ZM40.1528 68.8136V70.3821H38.5843V68.8136H40.1528ZM40.1528 67.2451V68.8136H38.5843V67.2451H40.1528ZM38.5843 51.5603V53.1288H37.0159V51.5603H38.5843ZM38.5843 53.1288V54.6973H37.0159V53.1288H38.5843ZM38.5843 54.6973V56.2658H37.0159V54.6973H38.5843ZM43.2898 48.4234V49.9918H41.7213V48.4234H43.2898ZM43.2898 51.5603V53.1288H41.7213V51.5603H43.2898ZM43.2898 53.1288V54.6973H41.7213V53.1288H43.2898ZM43.2898 54.6973L43.2898 56.2658H41.7213V54.6973H43.2898ZM43.2898 56.2658V57.8342H41.7213L41.7213 56.2658H43.2898ZM43.2898 57.8342V59.4027H41.7213V57.8342H43.2898ZM43.2898 59.4027V60.9712H41.7213V59.4027H43.2898ZM43.2898 60.9712V62.5397H41.7213V60.9712H43.2898ZM44.8583 62.5397V64.1082H43.2898V62.5397L44.8583 62.5397ZM44.8583 64.1082V65.6766H43.2898V64.1082H44.8583ZM44.8583 65.6766V67.2451H43.2898V65.6766H44.8583ZM44.8583 60.9712V62.5397L43.2898 62.5397V60.9712L44.8583 60.9712ZM44.8583 59.4027V60.9712L43.2898 60.9712V59.4027H44.8583ZM44.8583 57.8342V59.4027H43.2898V57.8342H44.8583ZM44.8583 56.2658V57.8342H43.2898V56.2658H44.8583ZM44.8583 54.6973L44.8583 56.2658H43.2898L43.2898 54.6973H44.8583ZM44.8583 53.1288V54.6973H43.2898V53.1288H44.8583ZM44.8583 51.5603V53.1288H43.2898V51.5603H44.8583ZM44.8583 49.9918V51.5603H43.2898V49.9918H44.8583ZM44.8583 48.4234V49.9918H43.2898V48.4234H44.8583ZM44.8583 46.8549V48.4234H43.2898V46.8549H44.8583ZM43.2898 49.9918V51.5603H41.7213V49.9918H43.2898ZM44.8583 45.2864V46.8549H43.2898V45.2864H44.8583ZM44.8583 43.7179V45.2864H43.2898V43.7179H44.8583ZM41.7213 48.4234V49.9918H40.1528V48.4234H41.7213ZM41.7213 49.9918V51.5603H40.1528V49.9918H41.7213ZM41.7213 51.5603V53.1288H40.1528V51.5603H41.7213ZM40.1528 53.1288V54.6973H38.5843V53.1288H40.1528ZM40.1528 54.6973V56.2658H38.5843V54.6973H40.1528ZM40.1528 51.5603V53.1288H38.5843V51.5603H40.1528ZM40.1528 49.9918V51.5603H38.5843V49.9918H40.1528ZM41.7213 53.1288V54.6973H40.1528V53.1288H41.7213ZM41.7213 54.6973V56.2658H40.1528V54.6973H41.7213ZM41.7213 56.2658L41.7213 57.8342H40.1528L40.1528 56.2658H41.7213ZM41.7213 57.8342V59.4027H40.1528V57.8342H41.7213ZM41.7213 59.4027V60.9712H40.1528V59.4027H41.7213ZM41.7213 60.9712V62.5397H40.1528V60.9712H41.7213ZM41.7213 62.5397V64.1082H40.1528V62.5397H41.7213ZM41.7213 64.1082V65.6766H40.1528V64.1082H41.7213ZM41.7213 65.6766V67.2451H40.1528V65.6766H41.7213ZM43.2898 64.1082V65.6766H41.7213V64.1082H43.2898ZM43.2898 62.5397V64.1082H41.7213V62.5397H43.2898ZM55.8376 78.2245V79.793H54.2691V78.2245H55.8376ZM55.8376 76.656V78.2245H54.2691V76.656H55.8376ZM55.8376 75.0875V76.656H54.2691V75.0875H55.8376ZM55.8376 73.519V75.0875H54.2691V73.519H55.8376ZM55.8376 71.9506V73.519H54.2691V71.9506H55.8376ZM55.8376 70.3821V71.9506H54.2691V70.3821H55.8376ZM55.8376 68.8136V70.3821H54.2691V68.8136H55.8376ZM55.8376 67.2451V68.8136H54.2691V67.2451H55.8376ZM55.8376 65.6766V67.2451H54.2691V65.6766H55.8376ZM55.8376 64.1082V65.6766H54.2691V64.1082H55.8376ZM55.8376 62.5397V64.1082H54.2691V62.5397H55.8376ZM55.8376 60.9712V62.5397H54.2691V60.9712H55.8376ZM55.8376 59.4027V60.9712H54.2691V59.4027H55.8376ZM55.8376 57.8342V59.4027H54.2691V57.8342H55.8376ZM55.8376 56.2658V57.8342H54.2691V56.2658H55.8376ZM57.4061 56.2658V57.8342H55.8376V56.2658H57.4061ZM57.4061 57.8342V59.4027H55.8376V57.8342H57.4061ZM57.4061 59.4027V60.9712H55.8376V59.4027H57.4061ZM57.4061 60.9712V62.5397H55.8376V60.9712H57.4061ZM57.4061 62.5397V64.1082H55.8376V62.5397H57.4061ZM57.4061 64.1082V65.6766H55.8376V64.1082H57.4061ZM57.4061 65.6766V67.2451H55.8376V65.6766H57.4061ZM58.9746 67.2451V68.8136H57.4061V67.2451H58.9746ZM58.9746 68.8136V70.3821H57.4061V68.8136H58.9746ZM58.9746 70.3821V71.9506H57.4061V70.3821H58.9746ZM58.9746 71.9506V73.519H57.4061V71.9506H58.9746ZM58.9746 73.519V75.0875H57.4061V73.519H58.9746ZM58.9746 75.0875V76.656H57.4061V75.0875H58.9746ZM58.9746 76.656V78.2245H57.4061V76.656H58.9746ZM58.9746 78.2245V79.793H57.4061V78.2245H58.9746ZM60.5431 78.2245V79.793H58.9746V78.2245H60.5431ZM62.1115 78.2245V79.793H60.5431V78.2245H62.1115ZM62.1115 76.656V78.2245H60.5431V76.656H62.1115ZM62.1115 75.0875V76.656H60.5431V75.0875H62.1115ZM62.1115 73.519V75.0875H60.5431V73.519H62.1115ZM62.1115 71.9506V73.519H60.5431V71.9506H62.1115ZM62.1115 70.3821V71.9506H60.5431V70.3821H62.1115ZM62.1115 68.8136V70.3821H60.5431V68.8136H62.1115ZM62.1115 67.2451V68.8136H60.5431V67.2451H62.1115ZM60.5431 67.2451V68.8136H58.9746V67.2451H60.5431ZM60.5431 65.6766V67.2451H58.9746V65.6766H60.5431ZM60.5431 68.8136V70.3821H58.9746V68.8136H60.5431ZM60.5431 70.3821V71.9506H58.9746V70.3821H60.5431ZM60.5431 71.9506V73.519H58.9746V71.9506H60.5431ZM60.5431 73.519V75.0875H58.9746V73.519H60.5431ZM60.5431 75.0875V76.656H58.9746V75.0875H60.5431ZM60.5431 76.656V78.2245H58.9746V76.656H60.5431ZM57.4061 78.2245V79.793H55.8376V78.2245H57.4061ZM57.4061 76.656V78.2245H55.8376V76.656H57.4061ZM57.4061 75.0875V76.656H55.8376V75.0875H57.4061ZM57.4061 73.519V75.0875H55.8376V73.519H57.4061ZM57.4061 71.9506V73.519H55.8376V71.9506H57.4061ZM57.4061 70.3821V71.9506H55.8376V70.3821H57.4061ZM57.4061 68.8136V70.3821H55.8376V68.8136H57.4061ZM57.4061 67.2451V68.8136H55.8376V67.2451H57.4061ZM55.8376 43.7179V45.2864H54.2691V43.7179H55.8376ZM55.8376 45.2864V46.8549H54.2691V45.2864H55.8376ZM55.8376 46.8549V48.4234H54.2691V46.8549H55.8376ZM55.8376 48.4234V49.9918H54.2691V48.4234H55.8376ZM55.8376 49.9918V51.5603H54.2691V49.9918H55.8376ZM55.8376 51.5603L55.8376 53.1288H54.2691L54.2691 51.5603H55.8376ZM55.8376 53.1288V54.6973H54.2691V53.1288H55.8376ZM55.8376 54.6973V56.2658H54.2691V54.6973H55.8376ZM60.5431 48.4234V49.9918H58.9746V48.4234H60.5431ZM60.5431 51.5603L60.5431 53.1288H58.9746L58.9746 51.5603H60.5431ZM60.5431 53.1288V54.6973H58.9746V53.1288H60.5431ZM60.5431 54.6973V56.2658H58.9746V54.6973H60.5431ZM60.5431 56.2658V57.8342H58.9746V56.2658H60.5431ZM60.5431 57.8342V59.4027H58.9746V57.8342H60.5431ZM60.5431 59.4027V60.9712H58.9746V59.4027H60.5431ZM60.5431 60.9712V62.5397H58.9746V60.9712H60.5431ZM62.1115 62.5397V64.1082H60.5431V62.5397H62.1115ZM62.1115 64.1082V65.6766H60.5431V64.1082H62.1115ZM62.1115 65.6766V67.2451H60.5431V65.6766H62.1115ZM62.1115 60.9712V62.5397H60.5431V60.9712H62.1115ZM62.1115 59.4027V60.9712H60.5431V59.4027H62.1115ZM62.1115 57.8342V59.4027H60.5431V57.8342H62.1115ZM62.1115 56.2658V57.8342H60.5431V56.2658H62.1115ZM62.1115 54.6973V56.2658H60.5431V54.6973H62.1115ZM62.1115 53.1288V54.6973H60.5431V53.1288H62.1115ZM62.1115 51.5603L62.1115 53.1288H60.5431L60.5431 51.5603H62.1115ZM62.1115 49.9918V51.5603H60.5431V49.9918H62.1115ZM60.5431 49.9918V51.5603H58.9746V49.9918H60.5431ZM58.9746 46.8549V48.4234L57.4061 48.4234V46.8549L58.9746 46.8549ZM58.9746 48.4234V49.9918L57.4061 49.9918V48.4234L58.9746 48.4234ZM58.9746 49.9918V51.5603L57.4061 51.5603V49.9918L58.9746 49.9918ZM58.9746 51.5603L58.9746 53.1288L57.4061 53.1288L57.4061 51.5603L58.9746 51.5603ZM57.4061 53.1288V54.6973H55.8376V53.1288H57.4061ZM57.4061 54.6973V56.2658H55.8376V54.6973H57.4061ZM57.4061 51.5603L57.4061 53.1288H55.8376L55.8376 51.5603H57.4061ZM57.4061 49.9918V51.5603H55.8376V49.9918H57.4061ZM57.4061 48.4234V49.9918H55.8376V48.4234H57.4061ZM57.4061 46.8549V48.4234H55.8376V46.8549H57.4061ZM57.4061 45.2864V46.8549H55.8376V45.2864H57.4061ZM58.9746 53.1288V54.6973L57.4061 54.6973V53.1288L58.9746 53.1288ZM58.9746 54.6973V56.2658L57.4061 56.2658V54.6973L58.9746 54.6973ZM58.9746 56.2658V57.8342L57.4061 57.8342V56.2658L58.9746 56.2658ZM58.9746 57.8342V59.4027L57.4061 59.4027V57.8342L58.9746 57.8342ZM58.9746 59.4027V60.9712H57.4061V59.4027L58.9746 59.4027ZM58.9746 60.9712V62.5397H57.4061V60.9712H58.9746ZM58.9746 62.5397V64.1082H57.4061V62.5397H58.9746ZM58.9746 64.1082V65.6766H57.4061V64.1082H58.9746ZM58.9746 65.6766V67.2451H57.4061V65.6766H58.9746ZM60.5431 64.1082V65.6766H58.9746V64.1082H60.5431ZM60.5431 62.5397V64.1082H58.9746V62.5397H60.5431ZM47.9952 40.581V42.1494H46.4267V40.581H47.9952ZM49.5637 40.581V42.1494H47.9952V40.581H49.5637ZM51.1322 40.581V42.1494H49.5637V40.581H51.1322ZM52.7007 40.581V42.1494H51.1322V40.581H52.7007ZM54.2691 42.1494L54.2691 43.7179H52.7007L52.7007 42.1494H54.2691ZM52.7007 42.1494L52.7007 43.7179H51.1322L51.1322 42.1494H52.7007ZM51.1322 42.1494L51.1322 43.7179H49.5637V42.1494H51.1322ZM49.5637 42.1494V43.7179H47.9952V42.1494H49.5637ZM47.9952 42.1494V43.7179H46.4267V42.1494H47.9952ZM46.4267 42.1494V43.7179L44.8583 43.7179V42.1494L46.4267 42.1494ZM46.4267 43.7179V45.2864H44.8583V43.7179L46.4267 43.7179ZM46.4267 45.2864V46.8549H44.8583V45.2864H46.4267ZM47.9952 43.7179V45.2864H46.4267V43.7179H47.9952ZM49.5637 43.7179V45.2864L47.9952 45.2864V43.7179H49.5637ZM51.1322 43.7179V45.2864H49.5637V43.7179H51.1322ZM52.7007 43.7179V45.2864H51.1322V43.7179H52.7007ZM54.2691 43.7179V45.2864H52.7007V43.7179H54.2691ZM54.2691 45.2864V46.8549H52.7007V45.2864H54.2691ZM52.7007 45.2864V46.8549H51.1322V45.2864H52.7007ZM51.1322 45.2864V46.8549H49.5637V45.2864H51.1322ZM49.5637 45.2864V46.8549L47.9952 46.8549V45.2864L49.5637 45.2864ZM47.9952 45.2864V46.8549H46.4267V45.2864H47.9952ZM46.4267 46.8549V48.4234H44.8583V46.8549H46.4267ZM47.9952 46.8549V48.4234H46.4267V46.8549H47.9952ZM54.2691 46.8549V48.4234H52.7007V46.8549H54.2691ZM52.7007 46.8549V48.4234H51.1322V46.8549H52.7007ZM54.2691 48.4234V49.9918H52.7007V48.4234H54.2691ZM46.4267 48.4234V49.9918H44.8583V48.4234H46.4267ZM43.2898 45.2864V46.8549H41.7213V45.2864H43.2898ZM43.2898 46.8549V48.4234H41.7213V46.8549H43.2898ZM41.7213 46.8549V48.4234H40.1528V46.8549H41.7213ZM40.1528 48.4234V49.9918H38.5843V48.4234H40.1528ZM38.5843 49.9918V51.5603H37.0159V49.9918H38.5843ZM46.4267 49.9918V51.5603H44.8583V49.9918H46.4267ZM47.9952 48.4234V49.9918H46.4267V48.4234H47.9952ZM49.5637 46.8549V48.4234L47.9952 48.4234V46.8549L49.5637 46.8549ZM51.1322 46.8549V48.4234H49.5637V46.8549H51.1322ZM52.7007 48.4234V49.9918H51.1322V48.4234H52.7007ZM54.2691 49.9918V51.5603H52.7007V49.9918H54.2691ZM46.4267 68.8136V70.3821H44.8583V68.8136H46.4267ZM47.9952 68.8136V70.3821H46.4267V68.8136H47.9952ZM49.5637 68.8136V70.3821H47.9952V68.8136H49.5637ZM51.1322 68.8136V70.3821H49.5637V68.8136H51.1322ZM52.7007 68.8136V70.3821H51.1322V68.8136H52.7007ZM54.2691 68.8136V70.3821H52.7007V68.8136H54.2691ZM54.2691 67.2451V68.8136H52.7007V67.2451H54.2691ZM52.7007 67.2451V68.8136H51.1322V67.2451H52.7007ZM51.1322 67.2451V68.8136H49.5637V67.2451H51.1322ZM49.5637 67.2451V68.8136H47.9952V67.2451H49.5637ZM47.9952 67.2451V68.8136H46.4267V67.2451H47.9952ZM46.4267 67.2451V68.8136H44.8583V67.2451H46.4267ZM46.4267 65.6766V67.2451H44.8583V65.6766H46.4267ZM47.9952 65.6766V67.2451H46.4267V65.6766H47.9952ZM49.5637 65.6766V67.2451H47.9952V65.6766H49.5637ZM51.1322 65.6766V67.2451H49.5637V65.6766H51.1322ZM52.7007 65.6766V67.2451H51.1322V65.6766H52.7007ZM54.2691 65.6766V67.2451H52.7007V65.6766H54.2691ZM54.2691 64.1082V65.6766H52.7007V64.1082H54.2691ZM52.7007 64.1082V65.6766H51.1322V64.1082H52.7007ZM51.1322 64.1082V65.6766H49.5637V64.1082H51.1322ZM49.5637 64.1082V65.6766H47.9952V64.1082H49.5637ZM47.9952 64.1082V65.6766H46.4267V64.1082H47.9952ZM46.4267 64.1082V65.6766H44.8583V64.1082H46.4267ZM46.4267 62.5397V64.1082H44.8583V62.5397H46.4267ZM47.9952 62.5397V64.1082H46.4267V62.5397H47.9952ZM49.5637 62.5397V64.1082H47.9952V62.5397H49.5637ZM51.1322 62.5397V64.1082H49.5637V62.5397H51.1322ZM52.7007 62.5397V64.1082H51.1322V62.5397H52.7007ZM54.2691 62.5397V64.1082H52.7007V62.5397H54.2691ZM49.5637 48.4234V49.9918L47.9952 49.9918V48.4234L49.5637 48.4234ZM51.1322 48.4234V49.9918H49.5637V48.4234H51.1322ZM47.9952 49.9918V51.5603H46.4267V49.9918H47.9952ZM46.4267 51.5603V53.1288H44.8583V51.5603H46.4267ZM52.7007 49.9918V51.5603H51.1322V49.9918H52.7007ZM54.2691 51.5603L54.2691 53.1288H52.7007L52.7007 51.5603H54.2691ZM82.5324 48.4234V49.9918H80.9639V48.4234H82.5324ZM84.1009 49.9918V51.5603H82.5324V49.9918H84.1009ZM84.1009 51.5603V53.1288H82.5324V51.5603H84.1009ZM84.1009 53.1288V54.6973H82.5324V53.1288H84.1009ZM84.1009 54.6973V56.2658H82.5324V54.6973H84.1009ZM84.1009 56.2658L84.1009 57.8342H82.5324L82.5324 56.2658H84.1009ZM84.1009 48.4234V49.9918H82.5324V48.4234H84.1009ZM79.3955 48.4234V49.9918H77.827V48.4234H79.3955ZM79.3955 49.9918V51.5603H77.827V49.9918H79.3955ZM79.3955 51.5603V53.1288H77.827V51.5603H79.3955ZM79.3955 53.1288V54.6973H77.827V53.1288H79.3955ZM79.3955 54.6973V56.2658H77.827V54.6973H79.3955ZM80.9639 56.2658L80.9639 57.8342H79.3955L79.3955 56.2658H80.9639ZM82.5324 56.2658L82.5324 57.8342H80.9639L80.9639 56.2658H82.5324ZM82.5324 54.6973V56.2658H80.9639V54.6973H82.5324ZM82.5324 53.1288V54.6973H80.9639V53.1288H82.5324ZM82.5324 51.5603V53.1288H80.9639V51.5603H82.5324ZM82.5324 49.9918V51.5603H80.9639V49.9918H82.5324ZM80.9639 48.4234V49.9918H79.3955V48.4234H80.9639ZM79.3955 56.2658L79.3955 57.8342H77.827L77.827 56.2658H79.3955ZM80.9639 54.6973V56.2658H79.3955V54.6973H80.9639ZM80.9639 53.1288V54.6973H79.3955V53.1288H80.9639ZM80.9639 51.5603V53.1288H79.3955V51.5603H80.9639ZM80.9639 49.9918V51.5603H79.3955V49.9918H80.9639ZM69.9846 57.8342V59.4027H68.4161V57.8342H69.9846ZM71.5531 57.8342V59.4027H69.9846V57.8342H71.5531ZM73.1215 57.8342V59.4027H71.5531V57.8342H73.1215ZM74.69 57.8342V59.4027H73.1215V57.8342H74.69ZM76.2585 57.8342V59.4027H74.69V57.8342H76.2585ZM77.827 57.8342V59.4027H76.2585V57.8342H77.827ZM79.3955 57.8342V59.4027H77.827V57.8342H79.3955ZM80.9639 57.8342V59.4027H79.3955V57.8342H80.9639ZM82.5324 57.8342V59.4027H80.9639V57.8342H82.5324ZM84.1009 57.8342V59.4027H82.5324V57.8342H84.1009ZM85.6694 57.8342V59.4027H84.1009V57.8342H85.6694ZM87.2379 57.8342V59.4027H85.6694V57.8342H87.2379ZM88.8063 57.8342V59.4027L87.2379 59.4027V57.8342L88.8063 57.8342ZM90.3748 57.8342V59.4027H88.8063V57.8342H90.3748ZM91.9433 57.8342V59.4027H90.3748V57.8342H91.9433ZM93.5118 57.8342V59.4027H91.9433V57.8342H93.5118ZM93.5118 59.4027V60.9712H91.9433V59.4027H93.5118ZM93.5118 60.9712V62.5397H91.9433V60.9712H93.5118ZM93.5118 62.5397V64.1082H91.9433V62.5397H93.5118ZM91.9433 62.5397V64.1082H90.3748V62.5397H91.9433ZM90.3748 62.5397V64.1082H88.8063V62.5397H90.3748ZM90.3748 60.9712V62.5397H88.8063V60.9712H90.3748ZM88.8063 60.9712V62.5397H87.2379V60.9712H88.8063ZM87.2379 60.9712V62.5397H85.6694V60.9712H87.2379ZM85.6694 60.9712V62.5397H84.1009V60.9712H85.6694ZM84.1009 60.9712V62.5397L82.5324 62.5397V60.9712L84.1009 60.9712ZM82.5324 60.9712V62.5397H80.9639V60.9712H82.5324ZM80.9639 60.9712V62.5397H79.3955V60.9712H80.9639ZM79.3955 60.9712V62.5397H77.827V60.9712H79.3955ZM79.3955 59.4027V60.9712H77.827V59.4027H79.3955ZM80.9639 59.4027V60.9712H79.3955V59.4027H80.9639ZM84.1009 59.4027V60.9712L82.5324 60.9712V59.4027H84.1009ZM85.6694 59.4027V60.9712H84.1009V59.4027H85.6694ZM88.8063 59.4027V60.9712H87.2379V59.4027L88.8063 59.4027ZM90.3748 59.4027V60.9712H88.8063V59.4027H90.3748ZM91.9433 59.4027V60.9712H90.3748V59.4027H91.9433ZM91.9433 60.9712V62.5397H90.3748V60.9712H91.9433ZM87.2379 59.4027V60.9712H85.6694V59.4027H87.2379ZM82.5324 59.4027V60.9712H80.9639V59.4027H82.5324ZM77.827 59.4027V60.9712H76.2585V59.4027H77.827ZM76.2585 59.4027V60.9712H74.69V59.4027H76.2585ZM74.69 59.4027V60.9712H73.1215V59.4027H74.69ZM74.69 60.9712V62.5397H73.1215V60.9712H74.69ZM73.1215 60.9712V62.5397H71.5531V60.9712H73.1215ZM71.5531 60.9712V62.5397H69.9846V60.9712H71.5531ZM69.9846 60.9712V62.5397H68.4161V60.9712H69.9846ZM69.9846 59.4027V60.9712H68.4161V59.4027H69.9846ZM71.5531 59.4027V60.9712H69.9846V59.4027H71.5531ZM73.1215 59.4027V60.9712H71.5531V59.4027H73.1215ZM69.9846 62.5397V64.1082H68.4161V62.5397H69.9846ZM71.5531 62.5397V64.1082H69.9846V62.5397H71.5531ZM73.1215 62.5397V64.1082H71.5531V62.5397H73.1215ZM74.69 62.5397V64.1082H73.1215V62.5397H74.69ZM76.2585 62.5397V64.1082H74.69V62.5397H76.2585ZM77.827 62.5397V64.1082H76.2585V62.5397H77.827ZM79.3955 62.5397V64.1082H77.827V62.5397H79.3955ZM80.9639 62.5397V64.1082H79.3955V62.5397H80.9639ZM77.827 60.9712V62.5397H76.2585V60.9712H77.827ZM76.2585 60.9712V62.5397H74.69V60.9712H76.2585ZM88.8063 62.5397V64.1082H87.2379V62.5397H88.8063ZM87.2379 62.5397V64.1082H85.6694V62.5397H87.2379ZM84.1009 64.1082V65.6766L82.5324 65.6766V64.1082L84.1009 64.1082ZM82.5324 64.1082V65.6766H80.9639V64.1082H82.5324ZM82.5324 62.5397V64.1082H80.9639V62.5397H82.5324ZM84.1009 62.5397V64.1082L82.5324 64.1082V62.5397L84.1009 62.5397ZM85.6694 62.5397V64.1082H84.1009V62.5397H85.6694ZM84.1009 70.3821V71.9506L82.5324 71.9506V70.3821L84.1009 70.3821ZM84.1009 68.8136V70.3821L82.5324 70.3821V68.8136L84.1009 68.8136ZM84.1009 67.2451V68.8136L82.5324 68.8136V67.2451L84.1009 67.2451ZM84.1009 65.6766V67.2451L82.5324 67.2451V65.6766L84.1009 65.6766ZM84.1009 71.9506V73.519L82.5324 73.519V71.9506L84.1009 71.9506ZM82.5324 71.9506V73.519H80.9639V71.9506H82.5324ZM80.9639 71.9506V73.519H79.3955V71.9506H80.9639ZM79.3955 71.9506V73.519H77.827V71.9506H79.3955ZM79.3955 70.3821V71.9506H77.827V70.3821H79.3955ZM79.3955 68.8136V70.3821H77.827V68.8136H79.3955ZM79.3955 67.2451V68.8136H77.827V67.2451H79.3955ZM79.3955 65.6766V67.2451H77.827V65.6766H79.3955ZM79.3955 64.1082V65.6766H77.827V64.1082H79.3955ZM80.9639 64.1082V65.6766H79.3955V64.1082H80.9639ZM80.9639 65.6766V67.2451H79.3955V65.6766H80.9639ZM80.9639 67.2451V68.8136H79.3955V67.2451H80.9639ZM80.9639 68.8136V70.3821H79.3955V68.8136H80.9639ZM80.9639 70.3821V71.9506H79.3955V70.3821H80.9639ZM82.5324 68.8136V70.3821H80.9639V68.8136H82.5324ZM82.5324 67.2451V68.8136H80.9639V67.2451H82.5324ZM82.5324 65.6766V67.2451H80.9639V65.6766H82.5324ZM82.5324 70.3821V71.9506H80.9639V70.3821H82.5324Z" fill="#00D319" fill-opacity="0.54"/>
</g>
</g>
<path d="M128.854 51.5938H126.91L132.534 36.275H134.449L140.074 51.5938H138.129L133.552 38.6985H133.432L128.854 51.5938ZM129.572 45.6099H137.411V47.2554H129.572V45.6099ZM148.803 43.1116V44.7572H142.101V43.1116H148.803ZM152.149 51.5938V36.275H157.325C158.526 36.275 159.509 36.4919 160.272 36.9257C161.04 37.3546 161.608 37.9355 161.977 38.6686C162.346 39.4016 162.531 40.2194 162.531 41.1219C162.531 42.0245 162.346 42.8448 161.977 43.5828C161.613 44.3208 161.05 44.9092 160.287 45.3481C159.524 45.7819 158.546 45.9988 157.355 45.9988H153.645V44.3532H157.295C158.117 44.3532 158.778 44.2111 159.277 43.9269C159.776 43.6427 160.137 43.2587 160.361 42.775C160.591 42.2863 160.706 41.7353 160.706 41.1219C160.706 40.5086 160.591 39.9601 160.361 39.4764C160.137 38.9927 159.773 38.6137 159.269 38.3394C158.766 38.0602 158.098 37.9206 157.265 37.9206H154.004V51.5938H152.149ZM167.045 36.275V51.5938H165.279V36.275H167.045ZM173.659 51.863C172.931 51.863 172.27 51.7259 171.677 51.4516C171.083 51.1724 170.612 50.771 170.263 50.2474C169.914 49.7188 169.739 49.0805 169.739 48.3325C169.739 47.6743 169.869 47.1407 170.128 46.7318C170.388 46.318 170.734 45.9938 171.168 45.7595C171.602 45.5251 172.081 45.3506 172.604 45.2359C173.133 45.1162 173.664 45.0214 174.197 44.9516C174.895 44.8619 175.461 44.7946 175.895 44.7497C176.334 44.6998 176.653 44.6175 176.853 44.5028C177.057 44.3882 177.159 44.1887 177.159 43.9045V43.8446C177.159 43.1066 176.957 42.5331 176.553 42.1242C176.155 41.7153 175.549 41.5109 174.736 41.5109C173.893 41.5109 173.232 41.6954 172.754 42.0644C172.275 42.4334 171.938 42.8274 171.744 43.2462L170.068 42.6478C170.368 41.9497 170.767 41.4062 171.265 41.0172C171.769 40.6233 172.317 40.349 172.911 40.1944C173.509 40.0349 174.098 39.9551 174.676 39.9551C175.045 39.9551 175.469 40 175.948 40.0897C176.431 40.1745 176.898 40.3515 177.346 40.6208C177.8 40.8901 178.177 41.2965 178.476 41.84C178.775 42.3835 178.925 43.1116 178.925 44.0241V51.5938H177.159V50.0379H177.07C176.95 50.2873 176.75 50.554 176.471 50.8383C176.192 51.1225 175.82 51.3644 175.357 51.5638C174.893 51.7633 174.327 51.863 173.659 51.863ZM173.928 50.2773C174.626 50.2773 175.215 50.1402 175.693 49.8659C176.177 49.5916 176.541 49.2376 176.785 48.8038C177.035 48.3699 177.159 47.9137 177.159 47.4349V45.8193C177.085 45.9091 176.92 45.9913 176.666 46.0661C176.416 46.1359 176.127 46.1983 175.798 46.2531C175.474 46.303 175.157 46.3479 174.848 46.3878C174.544 46.4227 174.297 46.4526 174.108 46.4775C173.649 46.5374 173.22 46.6346 172.821 46.7692C172.427 46.8989 172.108 47.0959 171.864 47.3601C171.624 47.6195 171.505 47.9735 171.505 48.4223C171.505 49.0356 171.731 49.4994 172.185 49.8135C172.644 50.1227 173.225 50.2773 173.928 50.2773ZM182.872 55.9022C182.573 55.9022 182.306 55.8772 182.072 55.8274C181.837 55.7825 181.675 55.7376 181.586 55.6927L182.034 54.1369C182.463 54.2466 182.842 54.2865 183.171 54.2566C183.5 54.2267 183.792 54.0796 184.046 53.8153C184.306 53.556 184.543 53.1346 184.757 52.5512L185.086 51.6536L180.838 40.1047H182.752L185.924 49.26H186.044L189.215 40.1047H191.13L186.253 53.2692C186.034 53.8626 185.762 54.3538 185.438 54.7428C185.114 55.1367 184.737 55.4284 184.308 55.6179C183.884 55.8074 183.406 55.9022 182.872 55.9022ZM197.865 51.8331C196.758 51.8331 195.804 51.5888 195.001 51.1001C194.203 50.6064 193.587 49.9183 193.153 49.0356C192.724 48.148 192.51 47.1158 192.51 45.939C192.51 44.7621 192.724 43.7249 193.153 42.8274C193.587 41.9248 194.19 41.2217 194.963 40.718C195.741 40.2094 196.649 39.9551 197.686 39.9551C198.284 39.9551 198.875 40.0548 199.459 40.2543C200.042 40.4537 200.573 40.7779 201.052 41.2267C201.531 41.6705 201.912 42.2589 202.196 42.9919C202.481 43.7249 202.623 44.6275 202.623 45.6996V46.4476H193.767V44.9217H200.827C200.827 44.2735 200.698 43.695 200.439 43.1864C200.184 42.6778 199.82 42.2763 199.346 41.9821C198.878 41.6879 198.324 41.5408 197.686 41.5408C196.983 41.5408 196.374 41.7153 195.861 42.0644C195.352 42.4085 194.961 42.8573 194.687 43.4108C194.412 43.9643 194.275 44.5577 194.275 45.191V46.2083C194.275 47.0759 194.425 47.8114 194.724 48.4148C195.028 49.0132 195.449 49.4695 195.988 49.7836C196.527 50.0928 197.152 50.2474 197.865 50.2474C198.329 50.2474 198.748 50.1825 199.122 50.0529C199.501 49.9183 199.828 49.7188 200.102 49.4545C200.376 49.1852 200.588 48.8511 200.738 48.4522L202.443 48.9309C202.264 49.5094 201.962 50.018 201.538 50.4568C201.114 50.8906 200.591 51.2297 199.967 51.4741C199.344 51.7134 198.643 51.8331 197.865 51.8331ZM205.308 51.5938V40.1047H207.013V41.84H207.133C207.342 41.2715 207.721 40.8103 208.27 40.4562C208.818 40.1022 209.437 39.9252 210.125 39.9252C210.255 39.9252 210.417 39.9277 210.611 39.9326C210.806 39.9376 210.953 39.9451 211.052 39.9551V41.7503C210.993 41.7353 210.855 41.7129 210.641 41.6829C210.432 41.648 210.21 41.6306 209.975 41.6306C209.417 41.6306 208.918 41.7478 208.479 41.9821C208.046 42.2115 207.701 42.5307 207.447 42.9396C207.198 43.3435 207.073 43.8047 207.073 44.3233V51.5938H205.308ZM221.283 42.6778L219.697 43.1265C219.598 42.8623 219.45 42.6055 219.256 42.3561C219.067 42.1018 218.807 41.8924 218.478 41.7278C218.149 41.5633 217.728 41.481 217.214 41.481C216.511 41.481 215.925 41.643 215.456 41.9672C214.992 42.2863 214.761 42.6927 214.761 43.1864C214.761 43.6252 214.92 43.9718 215.239 44.2261C215.558 44.4804 216.057 44.6923 216.735 44.8619L218.441 45.2807C219.468 45.5301 220.233 45.9115 220.737 46.4252C221.241 46.9338 221.492 47.5895 221.492 48.3924C221.492 49.0506 221.303 49.639 220.924 50.1576C220.55 50.6762 220.026 51.0851 219.353 51.3843C218.68 51.6835 217.897 51.8331 217.005 51.8331C215.833 51.8331 214.863 51.5788 214.095 51.0702C213.327 50.5615 212.841 49.8185 212.636 48.8412L214.312 48.4223C214.471 49.0406 214.773 49.5044 215.217 49.8135C215.666 50.1227 216.252 50.2773 216.975 50.2773C217.797 50.2773 218.451 50.1028 218.934 49.7537C219.423 49.3997 219.667 48.9758 219.667 48.4821C219.667 48.0832 219.528 47.7491 219.249 47.4798C218.969 47.2056 218.54 47.0011 217.962 46.8665L216.047 46.4177C214.995 46.1684 214.222 45.7819 213.728 45.2583C213.24 44.7297 212.995 44.069 212.995 43.2761C212.995 42.6279 213.177 42.0544 213.541 41.5558C213.91 41.0571 214.412 40.6657 215.045 40.3814C215.683 40.0972 216.406 39.9551 217.214 39.9551C218.351 39.9551 219.244 40.2044 219.892 40.7031C220.545 41.2017 221.009 41.86 221.283 42.6778Z" fill="#EFE5E5"/>
<path d="M128.294 86.6133V69.1061H134.535C135.891 69.1061 137.017 69.3398 137.911 69.8071C138.812 70.2744 139.484 70.9212 139.929 71.7476C140.373 72.5682 140.596 73.5171 140.596 74.5942C140.596 75.6656 140.371 76.6088 139.92 77.4237C139.476 78.233 138.803 78.8627 137.903 79.3129C137.008 79.7632 135.883 79.9883 134.526 79.9883H129.799V77.7144H134.287C135.142 77.7144 135.837 77.5919 136.373 77.3468C136.914 77.1017 137.31 76.7456 137.561 76.2783C137.812 75.8109 137.937 75.2496 137.937 74.5942C137.937 73.9331 137.809 73.3604 137.552 72.876C137.302 72.3916 136.906 72.0211 136.364 71.7647C135.828 71.5025 135.125 71.3715 134.253 71.3715H130.936V86.6133H128.294ZM136.937 78.7145L141.262 86.6133H138.253L134.013 78.7145H136.937ZM148.347 86.8783C147.053 86.8783 145.939 86.6019 145.004 86.0491C144.076 85.4906 143.358 84.707 142.85 83.6983C142.349 82.6839 142.098 81.4956 142.098 80.1336C142.098 78.7886 142.349 77.6033 142.85 76.5774C143.358 75.5516 144.064 74.7509 144.97 74.1753C145.882 73.5997 146.948 73.312 148.167 73.312C148.908 73.312 149.626 73.4345 150.322 73.6795C151.017 73.9246 151.641 74.3093 152.194 74.8336C152.747 75.3579 153.182 76.0389 153.502 76.8766C153.821 77.7087 153.98 78.7202 153.98 79.9113V80.8175H143.543V78.9026H151.476C151.476 78.2301 151.339 77.6346 151.065 77.116C150.792 76.5917 150.407 76.1785 149.911 75.8765C149.421 75.5744 148.846 75.4234 148.185 75.4234C147.466 75.4234 146.84 75.6001 146.304 75.9534C145.774 76.301 145.364 76.757 145.073 77.3212C144.788 77.8797 144.645 78.4866 144.645 79.142V80.6379C144.645 81.5156 144.799 82.2621 145.107 82.8776C145.421 83.4931 145.856 83.9633 146.415 84.2881C146.973 84.6073 147.626 84.7668 148.373 84.7668C148.857 84.7668 149.299 84.6984 149.698 84.5617C150.096 84.4192 150.441 84.2083 150.732 83.9291C151.023 83.6498 151.245 83.305 151.399 82.8947L153.818 83.3307C153.624 84.0431 153.277 84.6671 152.775 85.2028C152.279 85.7328 151.655 86.146 150.903 86.4423C150.156 86.733 149.304 86.8783 148.347 86.8783ZM165.903 76.6886L163.587 77.0989C163.49 76.8026 163.336 76.5205 163.125 76.2526C162.92 75.9848 162.641 75.7653 162.287 75.5944C161.934 75.4234 161.492 75.3379 160.962 75.3379C160.238 75.3379 159.634 75.5003 159.15 75.8252C158.666 76.1443 158.423 76.5575 158.423 77.0647C158.423 77.5035 158.586 77.8569 158.911 78.1247C159.235 78.3926 159.76 78.612 160.484 78.7829L162.569 79.2616C163.778 79.5409 164.678 79.9712 165.271 80.5525C165.863 81.1337 166.16 81.8889 166.16 82.8178C166.16 83.6042 165.932 84.3052 165.476 84.9207C165.026 85.5305 164.396 86.0092 163.587 86.3568C162.783 86.7045 161.851 86.8783 160.791 86.8783C159.321 86.8783 158.121 86.5648 157.192 85.938C156.263 85.3054 155.694 84.4078 155.483 83.2452L157.953 82.8691C158.107 83.5131 158.423 84.0003 158.902 84.3309C159.381 84.6557 160.005 84.8181 160.774 84.8181C161.612 84.8181 162.282 84.6443 162.783 84.2967C163.285 83.9433 163.535 83.5131 163.535 83.0059C163.535 82.5955 163.381 82.2507 163.074 81.9715C162.772 81.6922 162.307 81.4814 161.68 81.3389L159.458 80.8517C158.232 80.5724 157.326 80.1279 156.739 79.5181C156.158 78.9083 155.867 78.1361 155.867 77.2015C155.867 76.4264 156.084 75.7482 156.517 75.167C156.95 74.5857 157.549 74.1326 158.312 73.8078C159.076 73.4772 159.951 73.312 160.937 73.312C162.356 73.312 163.473 73.6197 164.288 74.2352C165.103 74.845 165.641 75.6628 165.903 76.6886ZM176.535 81.1679V73.4829H179.1V86.6133H176.587V84.3394H176.45C176.148 85.0404 175.663 85.6245 174.997 86.0918C174.336 86.5534 173.512 86.7842 172.526 86.7842C171.683 86.7842 170.936 86.599 170.286 86.2286C169.642 85.8525 169.135 85.2968 168.765 84.5617C168.4 83.8265 168.218 82.9175 168.218 81.8347V73.4829H170.774V81.527C170.774 82.4217 171.022 83.1341 171.517 83.6641C172.013 84.1941 172.657 84.4591 173.449 84.4591C173.928 84.4591 174.404 84.3394 174.877 84.1C175.356 83.8607 175.752 83.4988 176.065 83.0144C176.384 82.53 176.541 81.9145 176.535 81.1679ZM184.338 69.1061V86.6133H181.782V69.1061H184.338ZM193.153 73.4829V75.5345H185.981V73.4829H193.153ZM187.905 70.3371H190.461V82.7579C190.461 83.2538 190.535 83.627 190.683 83.8778C190.831 84.1228 191.022 84.291 191.256 84.3821C191.495 84.4676 191.754 84.5104 192.034 84.5104C192.239 84.5104 192.418 84.4961 192.572 84.4676C192.726 84.4391 192.846 84.4163 192.931 84.3992L193.393 86.5107C193.245 86.5677 193.034 86.6247 192.76 86.6817C192.487 86.7444 192.145 86.7786 191.734 86.7842C191.062 86.7956 190.435 86.676 189.854 86.4252C189.272 86.1745 188.802 85.7869 188.443 85.2626C188.084 84.7383 187.905 84.0801 187.905 83.2879V70.3371ZM204.856 76.6886L202.54 77.0989C202.443 76.8026 202.289 76.5205 202.078 76.2526C201.873 75.9848 201.594 75.7653 201.24 75.5944C200.887 75.4234 200.445 75.3379 199.915 75.3379C199.191 75.3379 198.587 75.5003 198.103 75.8252C197.619 76.1443 197.376 76.5575 197.376 77.0647C197.376 77.5035 197.539 77.8569 197.864 78.1247C198.188 78.3926 198.713 78.612 199.437 78.7829L201.522 79.2616C202.731 79.5409 203.631 79.9712 204.224 80.5525C204.816 81.1337 205.113 81.8889 205.113 82.8178C205.113 83.6042 204.885 84.3052 204.429 84.9207C203.979 85.5305 203.349 86.0092 202.54 86.3568C201.736 86.7045 200.804 86.8783 199.744 86.8783C198.274 86.8783 197.074 86.5648 196.145 85.938C195.216 85.3054 194.647 84.4078 194.436 83.2452L196.906 82.8691C197.06 83.5131 197.376 84.0003 197.855 84.3309C198.334 84.6557 198.958 84.8181 199.727 84.8181C200.565 84.8181 201.235 84.6443 201.736 84.2967C202.238 83.9433 202.488 83.5131 202.488 83.0059C202.488 82.5955 202.334 82.2507 202.027 81.9715C201.725 81.6922 201.26 81.4814 200.633 81.3389L198.411 80.8517C197.185 80.5724 196.279 80.1279 195.692 79.5181C195.111 78.9083 194.82 78.1361 194.82 77.2015C194.82 76.4264 195.037 75.7482 195.47 75.167C195.903 74.5857 196.502 74.1326 197.265 73.8078C198.029 73.4772 198.904 73.312 199.89 73.312C201.309 73.312 202.426 73.6197 203.241 74.2352C204.056 74.845 204.594 75.6628 204.856 76.6886ZM217.704 86.8697C216.644 86.8697 215.698 86.599 214.866 86.0576C214.04 85.5105 213.39 84.7326 212.917 83.7239C212.45 82.7095 212.216 81.4928 212.216 80.0737C212.216 78.6547 212.453 77.4408 212.926 76.4321C213.405 75.4234 214.06 74.6512 214.892 74.1155C215.724 73.5798 216.667 73.312 217.722 73.312C218.537 73.312 219.192 73.4487 219.688 73.7223C220.189 73.9901 220.577 74.3036 220.85 74.6626C221.13 75.0216 221.346 75.3379 221.5 75.6115H221.654V69.1061H224.21V86.6133H221.714V84.5702H221.5C221.346 84.8495 221.124 85.1686 220.833 85.5276C220.548 85.8867 220.155 86.2001 219.654 86.468C219.152 86.7358 218.502 86.8697 217.704 86.8697ZM218.269 84.6899C219.004 84.6899 219.625 84.4961 220.132 84.1086C220.645 83.7154 221.033 83.1711 221.295 82.4758C221.563 81.7806 221.697 80.9713 221.697 80.0481C221.697 79.1363 221.566 78.3384 221.303 77.6545C221.041 76.9707 220.657 76.4378 220.149 76.056C219.642 75.6742 219.015 75.4832 218.269 75.4832C217.499 75.4832 216.858 75.6827 216.345 76.0816C215.832 76.4806 215.445 77.0248 215.183 77.7144C214.926 78.404 214.798 79.1819 214.798 80.0481C214.798 80.9257 214.929 81.715 215.191 82.416C215.453 83.117 215.841 83.6726 216.354 84.083C216.872 84.4876 217.511 84.6899 218.269 84.6899ZM227.106 86.6133V73.4829H229.576V75.5687H229.713C229.952 74.8621 230.374 74.3064 230.978 73.9018C231.588 73.4915 232.277 73.2863 233.047 73.2863C233.206 73.2863 233.394 73.292 233.611 73.3034C233.833 73.3148 234.007 73.329 234.132 73.3461V75.791C234.03 75.7625 233.847 75.7312 233.585 75.697C233.323 75.6571 233.061 75.6371 232.799 75.6371C232.195 75.6371 231.656 75.7653 231.183 76.0218C230.716 76.2726 230.345 76.623 230.072 77.0733C229.798 77.5178 229.662 78.025 229.662 78.5949V86.6133H227.106ZM235.592 86.6133V73.4829H238.148V86.6133H235.592ZM236.883 71.4569C236.438 71.4569 236.056 71.3088 235.737 71.0124C235.424 70.7104 235.267 70.3514 235.267 69.9353C235.267 69.5136 235.424 69.1546 235.737 68.8582C236.056 68.5562 236.438 68.4052 236.883 68.4052C237.327 68.4052 237.706 68.5562 238.02 68.8582C238.339 69.1546 238.498 69.5136 238.498 69.9353C238.498 70.3514 238.339 70.7104 238.02 71.0124C237.706 71.3088 237.327 71.4569 236.883 71.4569ZM252.067 73.4829L247.305 86.6133H244.57L239.8 73.4829H242.544L245.869 83.5871H246.006L249.323 73.4829H252.067ZM258.929 86.8783C257.636 86.8783 256.521 86.6019 255.587 86.0491C254.658 85.4906 253.94 84.707 253.433 83.6983C252.931 82.6839 252.68 81.4956 252.68 80.1336C252.68 78.7886 252.931 77.6033 253.433 76.5774C253.94 75.5516 254.646 74.7509 255.553 74.1753C256.464 73.5997 257.53 73.312 258.75 73.312C259.491 73.312 260.209 73.4345 260.904 73.6795C261.599 73.9246 262.223 74.3093 262.776 74.8336C263.329 75.3579 263.765 76.0389 264.084 76.8766C264.403 77.7087 264.563 78.7202 264.563 79.9113V80.8175L254.125 80.8175V78.9026L262.058 78.9026C262.058 78.2301 261.921 77.6346 261.648 77.116C261.374 76.5917 260.989 76.1785 260.494 75.8765C260.003 75.5744 259.428 75.4234 258.767 75.4234C258.049 75.4234 257.422 75.6001 256.886 75.9534C256.356 76.301 255.946 76.757 255.655 77.3212C255.37 77.8797 255.228 78.4866 255.228 79.142V80.6379C255.228 81.5156 255.382 82.2621 255.689 82.8776C256.003 83.4931 256.439 83.9633 256.997 84.2881C257.556 84.6073 258.208 84.7668 258.955 84.7668C259.439 84.7668 259.881 84.6984 260.28 84.5617C260.679 84.4192 261.024 84.2083 261.314 83.9291C261.605 83.6498 261.827 83.305 261.981 82.8947L264.4 83.3307C264.206 84.0431 263.859 84.6671 263.357 85.2028C262.861 85.7328 262.237 86.146 261.485 86.4423C260.739 86.733 259.887 86.8783 258.929 86.8783ZM269.202 78.8171V86.6133H266.646V73.4829H269.1V75.62H269.262C269.564 74.9248 270.037 74.3663 270.681 73.9445C271.331 73.5228 272.149 73.312 273.135 73.312C274.029 73.312 274.813 73.5 275.485 73.8761C276.158 74.2466 276.679 74.7994 277.05 75.5345C277.42 76.2697 277.605 77.1787 277.605 78.2615V86.6133H275.049V78.5692C275.049 77.6175 274.801 76.8738 274.306 76.3381C273.81 75.7967 273.129 75.526 272.263 75.526C271.67 75.526 271.143 75.6542 270.681 75.9107C270.225 76.1671 269.863 76.5433 269.595 77.0391C269.333 77.5292 269.202 78.1219 269.202 78.8171ZM292.029 73.4829V75.5345H284.857V73.4829H292.029ZM286.78 70.3371H289.336V82.7579C289.336 83.2538 289.41 83.627 289.558 83.8778C289.706 84.1228 289.897 84.291 290.131 84.3821C290.37 84.4676 290.63 84.5104 290.909 84.5104C291.114 84.5104 291.293 84.4961 291.447 84.4676C291.601 84.4391 291.721 84.4163 291.806 84.3992L292.268 86.5107C292.12 86.5677 291.909 86.6247 291.635 86.6817C291.362 86.7444 291.02 86.7786 290.61 86.7842C289.937 86.7956 289.31 86.676 288.729 86.4252C288.148 86.1745 287.677 85.7869 287.318 85.2626C286.959 84.7383 286.78 84.0801 286.78 83.2879V70.3371ZM299.622 86.8783C298.328 86.8783 297.214 86.6019 296.279 86.0491C295.35 85.4906 294.632 84.707 294.125 83.6983C293.624 82.6839 293.373 81.4956 293.373 80.1336C293.373 78.7886 293.624 77.6033 294.125 76.5774C294.632 75.5516 295.339 74.7509 296.245 74.1753C297.157 73.5997 298.223 73.312 299.442 73.312C300.183 73.312 300.901 73.4345 301.596 73.6795C302.292 73.9246 302.916 74.3093 303.469 74.8336C304.021 75.3579 304.457 76.0389 304.776 76.8766C305.096 77.7087 305.255 78.7202 305.255 79.9113V80.8175H294.818V78.9026H302.75C302.75 78.2301 302.614 77.6346 302.34 77.116C302.067 76.5917 301.682 76.1785 301.186 75.8765C300.696 75.5744 300.12 75.4234 299.459 75.4234C298.741 75.4234 298.114 75.6001 297.579 75.9534C297.049 76.301 296.638 76.757 296.348 77.3212C296.063 77.8797 295.92 78.4866 295.92 79.142V80.6379C295.92 81.5156 296.074 82.2621 296.382 82.8776C296.695 83.4931 297.131 83.9633 297.69 84.2881C298.248 84.6073 298.901 84.7668 299.647 84.7668C300.132 84.7668 300.573 84.6984 300.972 84.5617C301.371 84.4192 301.716 84.2083 302.007 83.9291C302.297 83.6498 302.52 83.305 302.674 82.8947L305.093 83.3307C304.899 84.0431 304.551 84.6671 304.05 85.2028C303.554 85.7328 302.93 86.146 302.178 86.4423C301.431 86.733 300.579 86.8783 299.622 86.8783ZM311.16 86.9039C310.328 86.9039 309.576 86.7501 308.903 86.4423C308.231 86.1289 307.698 85.6758 307.305 85.0831C306.917 84.4904 306.723 83.7638 306.723 82.9033C306.723 82.1624 306.866 81.5526 307.151 81.0739C307.436 80.5952 307.82 80.2162 308.305 79.937C308.789 79.6577 309.331 79.4469 309.929 79.3044C310.527 79.1619 311.137 79.0536 311.758 78.9795C312.545 78.8884 313.183 78.8143 313.673 78.7573C314.163 78.6946 314.52 78.5949 314.742 78.4581C314.964 78.3213 315.075 78.0991 315.075 77.7913V77.7315C315.075 76.9849 314.864 76.4065 314.443 75.9962C314.027 75.5858 313.405 75.3807 312.579 75.3807C311.718 75.3807 311.04 75.5716 310.544 75.9534C310.054 76.3295 309.715 76.7484 309.527 77.21L307.125 76.6629C307.41 75.8651 307.826 75.2211 308.373 74.731C308.926 74.2352 309.561 73.8761 310.279 73.6539C310.998 73.4259 311.753 73.312 312.545 73.312C313.069 73.312 313.625 73.3746 314.212 73.5C314.804 73.6197 315.357 73.842 315.87 74.1668C316.389 74.4916 316.813 74.9561 317.144 75.5602C317.474 76.1586 317.64 76.9365 317.64 77.8939V86.6133H315.144V84.8181H315.041C314.876 85.1487 314.628 85.4735 314.297 85.7926C313.967 86.1118 313.542 86.3768 313.024 86.5876C312.505 86.7985 311.884 86.9039 311.16 86.9039ZM311.716 84.8523C312.422 84.8523 313.026 84.7127 313.528 84.4334C314.035 84.1542 314.42 83.7895 314.682 83.3392C314.95 82.8833 315.084 82.3961 315.084 81.8775V80.1849C314.993 80.2761 314.816 80.3615 314.554 80.4413C314.297 80.5154 314.004 80.581 313.673 80.6379C313.343 80.6892 313.021 80.7377 312.707 80.7833C312.394 80.8232 312.132 80.8574 311.921 80.8858C311.425 80.9485 310.972 81.054 310.562 81.2021C310.157 81.3503 309.832 81.564 309.587 81.8433C309.348 82.1168 309.228 82.4815 309.228 82.9375C309.228 83.57 309.462 84.0488 309.929 84.3736C310.396 84.6927 310.992 84.8523 311.716 84.8523ZM320.292 86.6133V73.4829H322.745V75.62H322.908C323.181 74.8963 323.629 74.3321 324.25 73.9274C324.871 73.5171 325.615 73.312 326.481 73.312C327.359 73.312 328.094 73.5171 328.686 73.9274C329.285 74.3378 329.726 74.902 330.011 75.62H330.148C330.462 74.9191 330.96 74.3606 331.644 73.9445C332.328 73.5228 333.143 73.312 334.089 73.312C335.28 73.312 336.252 73.6852 337.004 74.4318C337.762 75.1784 338.141 76.3039 338.141 77.8084V86.6133H335.585V78.0478C335.585 77.1587 335.343 76.5148 334.858 76.1158C334.374 75.7169 333.795 75.5174 333.123 75.5174C332.291 75.5174 331.644 75.7739 331.183 76.2868C330.721 76.794 330.49 77.4465 330.49 78.2444V86.6133H327.943V77.8854C327.943 77.173 327.72 76.6002 327.276 76.1671C326.831 75.734 326.253 75.5174 325.541 75.5174C325.056 75.5174 324.609 75.6457 324.198 75.9021C323.794 76.1529 323.466 76.5034 323.215 76.9536C322.97 77.4038 322.848 77.9252 322.848 78.5179V86.6133H320.292Z" fill="#EFE5E5"/>
<defs>
<filter id="filter1_d_75_6385" x="22.558" y="21.0658" width="81.2434" height="81.2434" filterUnits="userSpaceOnUse" color-interpolation-filters="sRGB">
<feFlood flood-opacity="0" result="BackgroundImageFix"/>
<feColorMatrix in="SourceAlpha" type="matrix" values="0 0 0 0 0 0 0 0 0 0 0 0 0 0 0 0 0 0 127 0" result="hardAlpha"/>
<feMorphology radius="1.50452" operator="dilate" in="SourceAlpha" result="effect1_dropShadow_75_6385"/>
<feOffset/>
<feComposite in2="hardAlpha" operator="out"/>
<feColorMatrix type="matrix" values="0 0 0 0 0.531116 0 0 0 0 0 0 0 0 0 0 0 0 0 0.4 0"/>
<feBlend mode="normal" in2="BackgroundImageFix" result="effect1_dropShadow_75_6385"/>
<feBlend mode="normal" in="SourceGraphic" in2="effect1_dropShadow_75_6385" result="shape"/>
</filter>
<filter id="filter2_f_75_6385" x="20.9927" y="25.0826" width="81.5692" height="81.5692" filterUnits="userSpaceOnUse" color-interpolation-filters="sRGB">
<feFlood flood-opacity="0" result="BackgroundImageFix"/>
<feBlend mode="normal" in="SourceGraphic" in2="BackgroundImageFix" result="shape"/>
<feGaussianBlur stdDeviation="14.8923" result="effect1_foregroundBlur_75_6385"/>
</filter>
<filter id="filter3_f_75_6385" x="24.3834" y="26.774" width="81.5692" height="81.5692" filterUnits="userSpaceOnUse" color-interpolation-filters="sRGB">
<feFlood flood-opacity="0" result="BackgroundImageFix"/>
<feBlend mode="normal" in="SourceGraphic" in2="BackgroundImageFix" result="shape"/>
<feGaussianBlur stdDeviation="14.8923" result="effect1_foregroundBlur_75_6385"/>
</filter>
<linearGradient id="paint0_linear_75_6385" x1="182.047" y1="-5.03704e-06" x2="210.21" y2="90.1822" gradientUnits="userSpaceOnUse">
<stop stop-color="#870000"/>
<stop offset="1" stop-color="#70717A"/>
</linearGradient>
<linearGradient id="paint1_linear_75_6385" x1="364.094" y1="115.848" x2="26.0942" y2="-34.281" gradientUnits="userSpaceOnUse">
<stop stop-color="white" stop-opacity="0.07"/>
<stop offset="1" stop-color="white" stop-opacity="0.15"/>
</linearGradient>
<clipPath id="clip0_75_6385">
<rect x="24.0625" y="22.5703" width="78.2351" height="78.2351" rx="24.0723" fill="white"/>
</clipPath>
</defs>
</svg>
