<svg width="18" height="19" viewBox="0 0 18 19" fill="none" xmlns="http://www.w3.org/2000/svg">
<path fill-rule="evenodd" clip-rule="evenodd" d="M8.16959 1.00614C6.58413 1.15362 5.05017 1.75042 3.75582 2.72339C3.3555 3.0243 2.68013 3.67322 2.32509 4.09808C1.39318 5.21328 0.709643 6.70594 0.468349 8.15257C0.0642527 10.5755 0.720543 13.0842 2.25527 14.983C3.02969 15.9411 4.02218 16.7367 5.12732 17.2856C7.57494 18.501 10.3523 18.5007 12.7931 17.2847C13.6847 16.8406 14.374 16.3431 15.0568 15.651C15.7677 14.9305 16.2283 14.2891 16.6622 13.4159C17.8776 10.97 17.8776 8.19682 16.6624 5.74928C15.3271 3.0597 12.7123 1.27757 9.70039 1.00422C9.25865 0.964148 8.61252 0.964956 8.16959 1.00614ZM10.3145 6.42802L11.6688 5.07392L12.5686 5.97385L13.4684 6.87374L12.1145 8.22817L10.7605 9.58258L12.1145 10.937L13.4684 12.2914L12.5686 13.1913L11.6688 14.0912L10.3145 12.7371L8.96023 11.383L7.60596 12.7371L6.25166 14.0912L5.35185 13.1913L4.45202 12.2914L5.80598 10.937L7.15998 9.58258L5.80598 8.22817L4.45202 6.87374L5.35185 5.97385L6.25166 5.07392L7.60596 6.42802L8.96023 7.78215L10.3145 6.42802Z" fill="url(#paint0_linear_106_6144)"/>
<path fill-rule="evenodd" clip-rule="evenodd" d="M8.16959 1.00614C6.58413 1.15362 5.05017 1.75042 3.75582 2.72339C3.3555 3.0243 2.68013 3.67322 2.32509 4.09808C1.39318 5.21328 0.709643 6.70594 0.468349 8.15257C0.0642527 10.5755 0.720543 13.0842 2.25527 14.983C3.02969 15.9411 4.02218 16.7367 5.12732 17.2856C7.57494 18.501 10.3523 18.5007 12.7931 17.2847C13.6847 16.8406 14.374 16.3431 15.0568 15.651C15.7677 14.9305 16.2283 14.2891 16.6622 13.4159C17.8776 10.97 17.8776 8.19682 16.6624 5.74928C15.3271 3.0597 12.7123 1.27757 9.70039 1.00422C9.25865 0.964148 8.61252 0.964956 8.16959 1.00614ZM10.3145 6.42802L11.6688 5.07392L12.5686 5.97385L13.4684 6.87374L12.1145 8.22817L10.7605 9.58258L12.1145 10.937L13.4684 12.2914L12.5686 13.1913L11.6688 14.0912L10.3145 12.7371L8.96023 11.383L7.60596 12.7371L6.25166 14.0912L5.35185 13.1913L4.45202 12.2914L5.80598 10.937L7.15998 9.58258L5.80598 8.22817L4.45202 6.87374L5.35185 5.97385L6.25166 5.07392L7.60596 6.42802L8.96023 7.78215L10.3145 6.42802Z" fill="url(#paint1_linear_106_6144)"/>
<defs>
<linearGradient id="paint0_linear_106_6144" x1="8.96267" y1="0.974701" x2="8.96267" y2="18.1969" gradientUnits="userSpaceOnUse">
<stop stop-color="#EF4444"/>
<stop offset="1" stop-color="#B9272A"/>
</linearGradient>
<linearGradient id="paint1_linear_106_6144" x1="8.96267" y1="0.974701" x2="8.96267" y2="18.1969" gradientUnits="userSpaceOnUse">
<stop stop-color="#870000"/>
<stop offset="1" stop-color="#B9272A"/>
</linearGradient>
</defs>
</svg>
