<svg width="12" height="12" viewBox="0 0 12 12" fill="none" xmlns="http://www.w3.org/2000/svg">
<path d="M6.19769 0.645508C6.73983 0.645508 7.16685 1.05498 7.43945 1.60749L8.34987 3.44334C8.37746 3.50016 8.44292 3.58016 8.54129 3.65336C8.63956 3.72647 8.73581 3.7668 8.79911 3.77744L10.4471 4.05351C11.0424 4.15353 11.5413 4.44533 11.7033 4.95342C11.8651 5.4611 11.628 5.98867 11.1999 6.4175L11.1995 6.41797L9.91924 7.70881C9.8685 7.75996 9.81167 7.85631 9.77602 7.98186C9.74063 8.10659 9.73748 8.2202 9.75355 8.29357L9.75375 8.2946L10.12 9.89146C10.272 10.5561 10.2216 11.2151 9.75287 11.5597C9.2825 11.9054 8.63977 11.7521 8.05583 11.4044L6.51105 10.4823C6.44616 10.4436 6.33476 10.4122 6.20027 10.4122C6.06677 10.4122 5.95305 10.4432 5.88392 10.4834L5.88294 10.4839L4.34119 11.4042C3.75796 11.7532 3.116 11.9037 2.64561 11.5576C2.17719 11.213 2.12431 10.5552 2.27671 9.8911L2.64292 8.2946L2.64314 8.29357C2.6592 8.2202 2.65606 8.10659 2.62065 7.98186C2.585 7.85631 2.52816 7.75996 2.47742 7.70881L1.19623 6.41698C0.770908 5.98815 0.534564 5.46105 0.695113 4.95412C0.856127 4.44572 1.35411 4.15357 1.94978 4.05347L3.59639 3.77764L3.59691 3.77755C3.65728 3.76708 3.7521 3.7272 3.85015 3.65389C3.94839 3.58045 4.01399 3.50027 4.04165 3.44334L4.04305 3.4405L4.95228 1.60701L4.95264 1.60629C5.22786 1.05423 5.65617 0.645508 6.19769 0.645508Z" fill="url(#paint0_linear_410_11074)"/>
<defs>
<linearGradient id="paint0_linear_410_11074" x1="6.19947" y1="0.645508" x2="10.5" y2="15" gradientUnits="userSpaceOnUse">
<stop stop-color="#C70000"/>
<stop offset="1" stop-color="#870000"/>
</linearGradient>
</defs>
</svg>
