<svg width="18" height="18" viewBox="0 0 18 18" fill="none" xmlns="http://www.w3.org/2000/svg">
<path d="M8.99854 0.9375C9.78551 0.9375 10.4054 1.5319 10.8011 2.33393L12.1227 4.99887C12.1627 5.08135 12.2577 5.19749 12.4005 5.30373C12.5432 5.40986 12.6829 5.46841 12.7748 5.48385L15.167 5.8846C16.0311 6.0298 16.7554 6.45337 16.9905 7.19093C17.2254 7.92788 16.8813 8.6937 16.2598 9.3162L16.2592 9.31687L14.4008 11.1907C14.3271 11.2649 14.2446 11.4048 14.1929 11.587C14.1415 11.7681 14.1369 11.933 14.1603 12.0395L14.1606 12.041L14.6922 14.359C14.9128 15.3238 14.8397 16.2805 14.1593 16.7807C13.4765 17.2825 12.5435 17.06 11.6958 16.5552L9.45341 15.2167C9.35921 15.1605 9.19751 15.1149 9.00229 15.1149C8.80849 15.1149 8.64341 15.1599 8.54306 15.2183L8.54164 15.2191L6.30362 16.5549C5.457 17.0615 4.52512 17.28 3.8423 16.7776C3.16233 16.2774 3.08557 15.3225 3.3068 14.3585L3.83839 12.041L3.83871 12.0395C3.86202 11.933 3.85746 11.7681 3.80606 11.587C3.75431 11.4048 3.67181 11.2649 3.59815 11.1907L1.73835 9.31545C1.12095 8.69295 0.77787 7.9278 1.01093 7.19194C1.24466 6.45394 1.96754 6.02985 2.83221 5.88454L5.22245 5.48414L5.22321 5.48401C5.31084 5.46881 5.44849 5.41092 5.59082 5.30451C5.73342 5.1979 5.82866 5.08151 5.8688 4.99887L5.87083 4.99475L7.19068 2.33323L7.1912 2.33218C7.59071 1.53081 8.21246 0.9375 8.99854 0.9375Z" fill="url(#paint0_linear_180_3842)"/>
<defs>
<linearGradient id="paint0_linear_180_3842" x1="9.00112" y1="0.9375" x2="9.00112" y2="17.0635" gradientUnits="userSpaceOnUse">
<stop stop-color="#460000"/>
<stop offset="1" stop-color="#C70000"/>
</linearGradient>
</defs>
</svg>
