<svg width="14" height="14" viewBox="0 0 14 14" fill="none" xmlns="http://www.w3.org/2000/svg">
<g clip-path="url(#clip0_202_2475)">
<path d="M8.06456 0.290964C8.64287 0.592516 8.96182 0.913046 9.29689 1.47397C11.2737 0.937648 12.7142 2.25491 12.6756 4.2505C12.6714 4.46067 12.5466 4.73199 12.602 4.93303C12.6181 4.99067 12.9315 5.15023 13.0149 5.23528C13.3247 5.553 13.5427 5.83487 13.7208 6.24327C13.9262 6.8527 13.9248 7.36793 13.7152 7.78828C13.7649 8.00196 13.7993 8.19386 13.7208 8.41387C13.4607 9.00432 12.8509 9.45489 12.7261 9.76207C12.5852 10.1107 12.7093 10.5704 12.4976 11.0737C11.9501 12.3755 10.6407 12.9357 9.29759 12.5527C8.17041 14.4962 5.81021 14.473 4.6669 12.5527C3.2334 12.8556 1.98074 12.3854 1.43118 10.9718C1.24331 10.4882 1.38281 9.97505 1.25733 9.67561C1.18793 9.50972 0.82763 9.32626 0.697248 9.18708C-0.169165 8.26204 -0.218935 6.78311 0.496767 5.75966C0.665002 5.51926 1.31762 4.9991 1.35337 4.86203C1.38912 4.72497 1.29308 4.54853 1.29028 4.39038C1.26014 2.73571 2.0887 1.30598 3.91265 1.3362C4.12364 1.33972 4.57928 1.49998 4.66901 1.47397C4.72999 1.4564 5.16741 0.800579 5.41275 0.641017C6.21958 -0.00988439 7.12805 0.00136229 8.06456 0.290964Z" fill="#3796EF"/>
<path d="M13.7161 8.4128C13.768 8.19138 13.5689 8.01143 13.5703 7.81602C13.5717 7.60233 13.7512 7.56789 13.7855 7.39638C13.8633 7.00485 13.5374 6.67518 13.7168 6.24219C14.089 7.09623 14.089 7.56789 13.7168 8.4128H13.7161Z" fill="#4C96DA"/>
<path d="M8.06728 0.289505C7.73852 0.390725 7.38452 0.172117 7.12726 0.160168C6.67653 0.139783 5.80661 0.384398 5.41406 0.639557C6.13257 -0.10202 7.18404 -0.170906 8.06728 0.289505Z" fill="#539CE5"/>
<path d="M9.22678 4.42872C9.43707 4.37249 9.89131 5.13937 10.1247 5.26168V5.40086L5.99175 9.52769L3.83343 7.43018C3.70655 7.17502 4.53721 6.61339 4.73489 6.45664C4.88911 6.48335 5.60831 7.43369 5.82772 7.53773C5.92516 7.58342 6.00857 7.59747 6.10391 7.53773L9.22608 4.42872H9.22678Z" fill="#F9FDFC"/>
</g>
<defs>
<clipPath id="clip0_202_2475">
<rect width="14" height="14" fill="white"/>
</clipPath>
</defs>
</svg>
