<svg width="42" height="31" viewBox="0 0 42 31" fill="none" xmlns="http://www.w3.org/2000/svg">
<path d="M3.70169 19.7002C2.69302 19.8784 1.95035 19.4519 1.82528 18.7441C1.72544 18.179 2.01696 17.435 2.88199 16.6744C3.57298 16.0636 4.54174 15.6418 5.5504 15.4636C6.28259 15.3342 6.97659 15.3432 7.65464 15.4928C7.99801 14.6521 10.4369 9.8726 10.132 8.14693C10.0628 7.75499 9.85557 7.52219 9.44882 7.52509C9.32351 7.52529 9.18825 7.53983 9.0424 7.56557C6.59064 7.99878 1.47179 11.8137 1.8674 14.0528C1.93879 14.4568 2.19229 14.81 2.66971 15.0828C2.76354 15.1351 2.80359 15.1845 2.8111 15.227C2.82238 15.2908 2.74983 15.3412 2.65564 15.3578C2.56754 15.3734 2.46495 15.3602 2.39846 15.303C2.04756 15.0016 1.85394 14.6504 1.78577 14.2646C1.32951 11.6822 6.57269 7.61342 9.15508 7.15717C9.25841 7.13894 9.35365 7.12834 9.44033 7.12249C10.0526 7.07694 10.3535 7.39662 10.449 7.93737C10.7942 9.8909 8.40048 14.7313 8.03605 15.5414C8.69001 15.714 9.30528 16.0753 9.69518 16.5797C9.70749 16.5964 9.71321 16.611 9.71591 16.6262C9.72874 16.6991 9.65226 16.7628 9.58243 16.7751C9.54597 16.7815 9.50984 16.7722 9.4893 16.7446C9.21991 16.3723 8.86134 16.0629 8.42931 15.8698C8.28971 15.8067 8.12293 15.7673 7.97083 15.7221C6.58129 18.3549 4.94124 19.4812 3.70169 19.7002ZM3.60764 19.5226C4.73479 19.3234 6.25816 18.246 7.57928 15.6691C6.89043 15.5119 6.3314 15.4509 5.56579 15.5862C4.69081 15.7407 3.83553 16.0955 3.18044 16.5904C2.2021 17.3303 1.86768 18.0974 1.96753 18.6625C2.07864 19.2914 2.72051 19.6793 3.60764 19.5226ZM10.5756 14.5413C10.366 14.5783 10.2173 14.3571 10.1647 14.0593C10.0794 13.5763 10.2345 12.8941 10.4357 12.5609C10.498 12.4528 10.5711 12.4054 10.641 12.393C10.8111 12.363 10.9708 12.5572 10.9783 12.5997L10.9788 12.6028C10.9067 12.8505 10.4325 13.8021 10.424 14.2861C10.4659 14.3633 10.5265 14.387 10.5933 14.3752C10.8789 14.3248 11.3343 13.6397 11.4413 13.4829C11.4531 13.2835 11.5504 12.6992 11.9514 12.6283C11.9939 12.6208 12.027 12.6306 12.0329 12.664C12.0351 12.6762 12.0317 12.6925 12.0283 12.7087C11.9849 12.8887 11.8188 13.3316 11.6184 13.5456C11.606 13.6167 11.6026 13.6863 11.6138 13.75C11.6514 13.9627 11.8331 14.1217 12.2143 14.0982C12.2741 14.1002 12.3323 14.093 12.3901 14.0828C12.9764 13.9792 13.5014 13.3507 13.9521 12.9579L14.4808 12.4571C14.5121 12.4391 14.5323 12.4292 14.5444 12.4271C14.5566 12.4249 14.5632 12.4269 14.5648 12.436C14.5675 12.4512 14.5536 12.4787 14.5291 12.5175L14.1821 12.8764C13.8508 13.2357 12.9448 14.1195 12.2582 14.2408C11.9028 14.3036 11.6057 14.165 11.4728 13.6433C11.3452 13.8257 10.9159 14.4811 10.5756 14.5413ZM14.7907 16.7822L14.7045 16.7912C14.3264 16.8142 14.0127 16.4749 13.9023 16.0808C13.8901 16.0297 13.8774 15.9755 13.8672 15.9178C13.8049 15.5654 13.8013 15.0836 13.8711 14.5919C13.9537 14.0134 14.1001 13.4235 14.2096 13.0502C14.1768 13.0058 14.1683 13.0293 14.1478 12.9483C14.327 12.7569 14.3827 12.4338 14.4861 12.1147C14.7624 11.2669 15.1254 10.3068 15.471 9.49698C15.6338 9.1236 15.8756 8.59522 16.1359 8.08243C16.3918 7.57979 16.6616 7.10294 16.8664 6.79103C17.0744 6.47858 17.3 6.10662 17.5361 5.86441C17.5919 5.80756 17.7738 5.68456 17.8978 5.65952C17.9191 5.65576 17.9408 5.65504 17.9571 5.65843C18.0512 5.67629 18.1257 5.72577 18.1445 5.83211C18.1488 5.85641 18.1505 5.8843 18.1493 5.91271C18.1262 6.34915 17.7208 7.12255 17.555 7.44321C17.3072 7.93816 17.0412 8.43627 16.7781 8.91515C16.6332 9.19448 16.3924 9.62243 16.1515 10.0503C15.9057 10.4854 15.6629 10.9199 15.4869 11.1828C15.3295 11.4268 15.1862 11.662 15.0235 11.9289C14.8243 12.2555 14.828 12.2767 14.6801 12.7697C14.431 13.647 14.1919 14.5634 14.1382 15.4125C14.1301 15.6678 14.1317 15.8899 14.1629 16.0661C14.2214 16.3972 14.3772 16.5702 14.7297 16.5079L14.8081 16.4909C15.0955 16.4151 15.3973 16.2082 15.7023 15.9131C16.0104 15.6175 16.3211 15.2305 16.6284 14.8065C16.9438 14.3748 17.2593 13.9087 17.5532 13.462C17.8451 13.0219 18.1215 12.6003 18.3518 12.2369C18.4994 12.0259 18.644 11.8156 18.7926 11.6107L18.801 11.6406C18.8075 11.677 18.7905 11.7051 18.7587 11.7733L18.4912 12.2279C18.4259 12.3366 18.396 12.3982 18.3156 12.5284C18.1896 12.7198 18.0668 12.9107 17.9468 13.1011C17.8756 13.2296 17.8472 13.2816 17.7721 13.3888C17.5847 13.6757 17.4009 13.9651 17.2206 14.257C16.9381 14.733 16.504 15.3611 16.0469 15.8773C15.6314 16.3455 15.1857 16.7125 14.7907 16.7822ZM15.0605 11.6247C15.2033 11.3865 15.343 11.1487 15.4893 10.913C15.6388 10.6766 15.7475 10.4413 15.9049 10.1973C16.0699 9.94256 16.5609 9.01618 16.6974 8.76022C16.8295 8.51446 16.9395 8.30391 17.0694 8.04597C17.3801 7.44591 17.9119 6.48413 17.9707 5.85967C17.8201 5.96461 17.4985 6.43185 17.1791 6.96452C16.8502 7.51449 16.5276 8.13542 16.3773 8.43765C16.2658 8.65787 15.9587 9.31368 15.6742 9.99054C15.3876 10.674 15.1275 11.3653 15.0605 11.6247ZM19.1604 10.6779C19.0875 10.6908 19.0242 10.6518 19.0147 10.6159L19.0131 10.6068C18.9965 10.5126 19.1485 10.398 19.2297 10.343C19.2983 10.3591 19.328 10.3851 19.3344 10.4216C19.3393 10.4489 19.327 10.4856 19.3126 10.5288C19.2735 10.6266 19.2151 10.6683 19.1604 10.6779ZM18.99 12.8165C18.8046 12.8493 18.6461 12.8209 18.5551 12.696C18.4857 12.6048 18.42 12.5695 18.3937 12.4206C18.3599 12.2292 18.464 11.9852 18.5356 11.8409C18.5794 11.7518 18.7157 11.5303 18.8178 11.434C18.8289 11.4258 18.8521 11.4154 18.8825 11.41C18.9584 11.3966 19.0701 11.4082 19.0836 11.4841C19.0894 11.5176 19.0782 11.5603 19.0418 11.62C18.8954 11.8557 18.6099 12.3323 18.6679 12.6604L18.6706 12.6756C18.7592 12.7163 18.8724 12.7182 18.9939 12.6968C19.477 12.6114 20.1388 12.1373 20.3302 11.997C20.5851 11.8078 20.9213 11.5479 21.1624 11.3518L21.3699 11.1961C21.3901 11.1862 21.4127 11.1729 21.4249 11.1707C21.4309 11.1697 21.4346 11.1722 21.4351 11.1752C21.4361 11.1812 21.4292 11.195 21.4092 11.2236C21.2744 11.4009 20.6626 11.8568 20.5524 11.9421C20.3687 12.0904 19.5459 12.7183 18.99 12.8165ZM22.8903 13.1519C22.4832 13.2238 22.1797 13.0488 22.0777 12.4715L22.0734 12.4472C22.0199 12.1089 22.1699 11.7346 22.1624 11.6921C22.1618 11.689 22.1619 11.689 22.1588 11.6896L22.1478 11.6978C21.9123 11.943 21.7111 12.1164 21.4702 12.3846C21.428 12.4296 21.3742 12.4798 21.3165 12.49C21.2679 12.4986 21.218 12.4824 21.1631 12.42C21.0539 12.2984 21.047 12.3654 21.0048 12.2506C20.9985 12.2329 20.9917 12.2122 20.9874 12.1879C20.9251 11.8355 21.1935 10.9077 21.8403 10.5961C21.9125 10.5614 21.9808 10.5399 22.0385 10.5297L22.0446 10.5286C22.3423 10.476 22.4637 10.7021 22.6201 10.7715C22.6775 10.7238 22.7557 10.6881 22.824 10.6666L22.8301 10.6656C22.8604 10.6602 22.8749 10.6889 22.8819 10.7284C22.8948 10.8013 22.8827 10.91 22.8793 10.9263C22.8377 10.9744 22.8219 10.974 22.824 10.9862L22.8423 11.0362C22.8519 11.0909 22.8189 11.1343 22.7794 11.1413C22.7582 11.145 22.7383 11.1392 22.7188 11.1175C22.4832 11.4506 22.225 12.0288 22.3028 12.4693C22.3093 12.5058 22.3157 12.5422 22.3277 12.5745C22.4676 12.9226 22.7181 13.0288 23.0341 12.9729C23.2407 12.9365 23.4785 12.8287 23.7301 12.6745C24.7814 12.0283 26.0481 10.5795 26.3199 10.309L26.3284 10.3044C26.3528 10.3001 26.3901 10.3342 26.403 10.3539L26.4076 10.3624C26.4119 10.3867 26.3694 10.4475 26.3508 10.4665C26.1051 10.7072 24.8483 12.0697 23.764 12.7594C23.4489 12.9623 23.1485 13.1063 22.8903 13.1519ZM21.5062 11.9678C21.6429 11.8904 22.1241 11.3511 22.2801 11.17C22.3814 11.0519 22.4212 11.0291 22.5243 10.8856C22.4761 10.8252 22.4129 10.805 22.3431 10.8173C22.0211 10.8743 21.5351 11.5993 21.5062 11.9678ZM28.1102 11.3806C27.9309 11.4123 27.78 11.3919 27.6721 11.2951C27.5391 11.1807 27.4129 11.1404 27.3635 10.8608L27.3544 10.8092C27.3256 10.5574 27.4717 10.0899 27.4866 9.85536C26.9241 10.2712 26.4481 10.7688 26.1607 11.4117C26.1396 11.4875 26.146 11.6305 26.0913 11.6401C26.0823 11.6418 26.0726 11.6403 26.0594 11.6364C26.0013 11.6091 25.9434 11.5473 25.9321 11.4835C25.8811 11.1948 26.1574 10.4004 26.392 10.0613C26.442 9.98976 26.496 9.95829 26.5446 9.94974C26.6631 9.92881 26.7691 10.0323 26.7756 10.0687L26.7736 10.0753C26.7152 10.2235 26.5353 10.5529 26.516 10.6566C26.541 10.6208 26.5742 10.5961 26.6048 10.5563C26.692 10.4469 27.2062 9.91742 27.4326 9.78032C27.4468 9.77157 27.4644 9.76525 27.4796 9.76262C27.6073 9.74004 27.7881 9.87727 27.8187 10.0504C27.8236 10.0778 27.8248 10.1026 27.8231 10.128C27.7983 10.3956 27.6314 10.8167 27.6754 11.0658C27.6931 11.166 27.7466 11.238 27.8508 11.2604C27.9418 11.2788 28.0416 11.2767 28.148 11.258C28.8681 11.1308 29.8603 10.2035 30.3116 9.72589C30.3197 9.71826 30.4998 9.56734 30.5393 9.56036C30.5454 9.55931 30.549 9.56181 30.5495 9.56484C30.55 9.56787 30.543 9.58162 30.5305 9.59952C30.1818 10.0903 28.891 11.2427 28.1102 11.3806Z" fill="white"/>
<path d="M10.1513 26.2749C10.072 26.2863 10.0278 26.2397 10.0146 26.1481C9.94533 25.6687 10.713 23.9681 11.0483 23.2682C11.1775 22.9971 11.2106 22.6868 11.1674 22.3875C11.1216 22.07 10.9906 21.7678 10.8045 21.536C10.7205 21.4296 10.6152 21.3482 10.4865 21.2982L10.2116 21.3379C9.66199 21.4173 9.4186 21.4368 9.408 21.3853C9.40096 21.3365 9.52042 21.2787 9.78955 21.1993C9.87024 21.1753 9.94869 21.1577 10.022 21.1471C10.2113 21.1198 10.3758 21.1365 10.5177 21.1909C10.9862 21.1108 11.5825 21.0091 12.2359 20.8929L12.3092 20.8824L12.8827 19.8457C13.0977 19.4562 15.3958 15.1001 15.2565 14.1352C15.2371 14.0008 15.1681 13.9329 15.0429 13.9509L14.9975 13.9606C13.8392 14.2713 5.88857 18.9228 6.27166 21.5763C6.32941 21.9763 6.57689 22.3302 7.06727 22.6179C7.14546 22.6627 7.18002 22.7076 7.18528 22.7443C7.19496 22.8114 7.10867 22.8613 7.0079 22.8758C6.91629 22.8891 6.81111 22.8731 6.75345 22.819C6.39692 22.4871 6.20658 22.1187 6.15059 21.731C5.69389 18.5675 14.1798 13.8885 14.992 13.7713C15.2128 13.7457 15.5033 14.0092 15.5443 14.2931C15.5981 14.6657 15.418 15.3182 15.3054 15.6399C15.11 16.2075 14.9165 16.6812 14.6929 17.1841C14.1076 18.5062 13.5371 19.5205 12.8535 20.7882C13.6776 20.6442 14.5556 20.4645 15.3661 20.335C15.4088 20.3288 15.4546 20.3659 15.46 20.4025C15.4644 20.433 15.4435 20.461 15.3794 20.4703C14.5445 20.6033 13.635 20.7595 12.7865 20.9069C12.2426 21.9113 11.948 22.4183 11.306 23.736C11.1597 24.2558 10.6092 26.0779 10.2346 26.2473C10.2024 26.2613 10.1758 26.2714 10.1513 26.2749ZM11.2784 22.8111L11.5234 22.3268C11.7535 21.8697 12.0168 21.4264 12.2453 21.0006C11.6611 21.1006 11.1198 21.1943 10.6723 21.2683C10.7513 21.3192 10.8234 21.3867 10.8877 21.4647C11.1115 21.741 11.1969 21.9874 11.2361 22.2592C11.2604 22.4271 11.2677 22.6068 11.2784 22.8111ZM10.3498 25.9875L10.4377 25.7753C10.5942 25.3911 10.9668 24.5175 11.0902 24.1194C10.9723 24.3609 10.3472 25.9691 10.3498 25.9875ZM15.5428 23.5888C15.3779 23.6126 15.2084 23.475 15.1771 23.2582C15.1643 23.1696 15.1742 23.0653 15.2203 22.9527C15.4181 22.4659 16.2011 21.1527 16.1235 20.6153C16.1178 20.5757 16.1059 20.5368 16.0889 20.505C16.0512 20.4388 15.8792 20.3264 15.7612 20.2437C15.6815 20.3612 15.6507 20.428 15.5804 20.4381C15.5469 20.443 15.5193 20.4251 15.5141 20.3885C15.5066 20.3365 15.5483 20.2588 15.5875 20.2064C15.6167 20.171 15.6446 20.1702 15.6672 20.1326C15.6305 20.0724 15.6091 20.0101 15.5998 19.9459C15.5421 19.5459 15.9183 19.0646 16.1137 19.0363C16.1966 19.0275 16.3084 19.1111 16.3656 19.162C16.4015 19.1943 16.4225 19.2318 16.4287 19.2745C16.463 19.5127 16.0552 19.8833 15.9307 20.0789C15.929 20.0885 15.9307 20.1008 15.9321 20.1099C15.9483 20.2229 16.1304 20.2964 16.2318 20.3722C16.344 20.4588 16.3978 20.5508 16.4141 20.6638C16.4269 20.7523 16.4166 20.8535 16.3932 20.9723C16.2577 21.6527 15.9255 22.1807 15.6445 22.7605C15.4858 23.0858 15.4285 23.2717 15.4404 23.3542C15.4461 23.3939 15.4675 23.4126 15.5072 23.4069C15.5499 23.4007 15.6101 23.364 15.6864 23.3093C16.5881 22.6461 17.7691 20.8297 18.4885 19.8749C18.4937 19.8679 18.5926 19.7757 18.6323 19.77C18.6384 19.7691 18.645 19.7712 18.6459 19.7774C18.648 19.7926 18.6398 19.8219 18.6098 19.873C18.2147 20.5909 16.5868 22.6369 16.2889 22.9917C16.1155 23.1944 15.7932 23.5526 15.5428 23.5888ZM20.079 21.7805C19.6699 21.8396 19.372 21.6551 19.2883 21.0749L19.2848 21.0505C19.2419 20.7106 19.4037 20.3413 19.3975 20.2985C19.3971 20.2955 19.3971 20.2955 19.394 20.2959L19.3827 20.3038C19.1396 20.5415 18.933 20.7085 18.6838 20.9688C18.6403 21.0126 18.5849 21.0611 18.5269 21.0695C18.478 21.0765 18.4287 21.0587 18.3758 20.9946C18.2705 20.8696 18.2614 20.9363 18.2229 20.8204C18.2172 20.8025 18.211 20.7815 18.2075 20.7571C18.1564 20.4029 18.4539 19.484 19.1101 19.1929C19.1833 19.1605 19.2522 19.1412 19.3103 19.1328L19.3164 19.132C19.6156 19.0887 19.7299 19.3185 19.884 19.3929C19.9428 19.347 20.0222 19.3137 20.0911 19.2944L20.0972 19.2935C20.1277 19.2891 20.1413 19.3183 20.147 19.358C20.1576 19.4313 20.142 19.5396 20.1381 19.5557C20.095 19.6024 20.0793 19.6016 20.0811 19.6138L20.0977 19.6644C20.1057 19.7194 20.0713 19.7617 20.0316 19.7675C20.0102 19.7705 19.9906 19.764 19.9718 19.7418C19.7257 20.0672 19.4495 20.637 19.5134 21.0798C19.5187 21.1164 19.524 21.1531 19.535 21.1858C19.6638 21.5381 19.9109 21.652 20.2284 21.6062C20.4361 21.5762 20.6773 21.476 20.9336 21.3299C22.0047 20.717 23.3163 19.3088 23.5965 19.047L23.6052 19.0427C23.6296 19.0392 23.6659 19.0744 23.6781 19.0945L23.6825 19.1032C23.686 19.1276 23.6416 19.187 23.6225 19.2054C23.3693 19.4383 22.0702 20.7605 20.9647 21.4158C20.6434 21.6087 20.3386 21.7431 20.079 21.7805ZM18.7329 20.5534C18.872 20.4804 19.37 19.9565 19.5316 19.7804C19.6366 19.6655 19.6771 19.6441 19.7846 19.5038C19.7383 19.442 19.6759 19.4198 19.6057 19.43C19.282 19.4767 18.7734 20.186 18.7329 20.5534ZM24.0933 18.0838C24.0201 18.0944 23.9581 18.0535 23.9497 18.0173L23.9484 18.0081C23.9347 17.9135 24.0903 17.8037 24.1731 17.7512C24.2412 17.7695 24.27 17.7965 24.2754 17.8331C24.2793 17.8606 24.2658 17.8968 24.2502 17.9396C24.208 18.0361 24.1483 18.0758 24.0933 18.0838ZM23.8556 20.216C23.6694 20.2429 23.5118 20.2095 23.4248 20.0818C23.3583 19.9885 23.2937 19.9511 23.2721 19.8015C23.2443 19.6091 23.3561 19.3686 23.4322 19.2266C23.4788 19.1389 23.6221 18.9218 23.727 18.8287C23.7384 18.8208 23.7619 18.8112 23.7925 18.8068C23.8688 18.7958 23.9801 18.8109 23.9911 18.8872C23.996 18.9208 23.9834 18.9631 23.9451 19.0216C23.7914 19.2527 23.491 19.72 23.5387 20.0498L23.5408 20.065C23.6282 20.1086 23.7412 20.1141 23.8633 20.0964C24.3488 20.0263 25.0254 19.5733 25.221 19.4391C25.4817 19.2581 25.826 19.0089 26.0731 18.8204L26.2854 18.6713C26.3058 18.6621 26.3289 18.6494 26.3412 18.6477C26.3473 18.6468 26.3508 18.6494 26.3512 18.6525C26.3521 18.6586 26.3447 18.6721 26.3238 18.7001C26.1835 18.873 25.5577 19.3094 25.4448 19.3912C25.2565 19.5337 24.4144 20.1353 23.8556 20.216ZM25.799 24.393C25.6861 24.4093 25.5206 24.3209 25.4902 24.1102C25.4756 24.0095 25.4863 23.8677 25.5362 23.6734C25.82 22.5945 26.2864 21.3987 26.77 20.3875C27.2033 19.4802 27.6289 18.7361 28.0123 18.1321C27.9083 18.2531 27.7928 18.382 27.6717 18.5148C27.6469 18.5589 27.6182 18.5974 27.5803 18.6153C27.2383 18.9889 26.9282 19.3672 26.6385 19.6272C26.5387 19.7133 26.3917 19.7751 26.2888 19.7961C26.1697 19.8134 26.0492 19.7559 25.9575 19.7037C25.9064 19.6737 25.8766 19.6187 25.866 19.5454C25.8004 19.0905 26.4519 17.9896 27.2925 17.8526C27.4543 17.8292 27.5635 17.8945 27.6496 18.0161C27.6842 18.061 27.788 18.0897 27.7977 18.1569C27.7969 18.2162 27.7956 18.1852 27.7822 18.2433C28.1446 17.8387 28.2369 17.7225 28.4639 17.4591C28.6014 17.2677 28.7991 16.9743 28.8754 16.9633C28.9121 16.9579 28.9413 16.988 28.9837 17.0224C28.9433 17.153 28.7304 17.4705 28.6503 17.6067C28.229 18.3159 28.0462 18.5823 27.6189 19.3797C27.179 20.2193 26.8189 20.9852 26.4799 21.854C26.2509 22.4699 26.0275 23.082 25.8543 23.7179C25.8335 23.7895 25.8258 23.8654 25.8359 23.9356C25.847 24.012 25.8785 24.0792 25.9475 24.1253C27.3654 22.2654 28.4458 19.4068 29.8808 18.2271C29.8891 18.2197 29.8978 18.2152 29.91 18.2135C29.9375 18.2095 29.9598 18.2344 29.9633 18.2588C29.9659 18.2771 29.9594 18.2967 29.9455 18.3081C29.1534 18.7592 27.5055 22.0269 26.3767 23.7298C26.0845 24.1678 25.9487 24.3713 25.799 24.393ZM26.4316 19.5978C26.453 19.5948 26.4791 19.5816 26.5101 19.5584C26.8003 19.3015 27.1632 18.9218 27.5025 18.5517C27.4985 18.5243 27.5229 18.4989 27.5359 18.4378C27.5751 18.3417 27.5876 18.2776 27.581 18.2318C27.5731 18.1768 27.5325 18.1546 27.4592 18.1652C27.4195 18.171 27.3806 18.1828 27.3806 18.1828C27.0369 18.2636 26.6097 18.8022 26.3478 19.3201C26.3261 19.3637 26.3166 19.4274 26.3245 19.4824C26.3342 19.5496 26.3705 19.6066 26.4316 19.5978ZM30.1031 19.5509C29.8924 19.5814 29.7507 19.3555 29.7075 19.0563C29.6374 18.5708 29.814 17.8938 30.0256 17.5671C30.0913 17.461 30.1658 17.416 30.2361 17.4058C30.407 17.3811 30.5605 17.5803 30.5667 17.6231L30.5671 17.6261C30.4871 17.8714 29.9833 18.8077 29.9596 19.2911C29.999 19.3696 30.0588 19.3952 30.1259 19.3855C30.413 19.3441 30.8898 18.6737 31.0017 18.5204C31.0197 18.3213 31.1353 17.7404 31.5384 17.6823C31.5812 17.6761 31.6139 17.6869 31.6187 17.7206C31.6205 17.7327 31.6166 17.7489 31.6127 17.7651C31.5637 17.9436 31.3837 18.381 31.1767 18.5886C31.162 18.6593 31.1564 18.7287 31.1657 18.7928C31.1965 19.0066 31.373 19.1712 31.7549 19.1597C31.8146 19.1636 31.8731 19.1583 31.9311 19.1499C32.5204 19.0648 33.0649 18.4532 33.5277 18.0746L34.072 17.5908C34.1037 17.5737 34.1243 17.5646 34.1365 17.5628C34.1487 17.561 34.1552 17.5632 34.1565 17.5723C34.1588 17.5876 34.144 17.6147 34.1183 17.6527L33.7601 18.0006C33.4177 18.3493 32.4844 19.204 31.7943 19.3037C31.437 19.3553 31.1445 19.2073 31.0281 18.6818C30.8948 18.86 30.4451 19.5016 30.1031 19.5509ZM34.5731 16.5709C34.4998 16.5815 34.4378 16.5405 34.4294 16.5043L34.4281 16.4952C34.4144 16.4005 34.57 16.2907 34.6529 16.2383C34.7209 16.2565 34.7497 16.2835 34.7551 16.3202C34.759 16.3476 34.7455 16.3839 34.7299 16.4267C34.6877 16.5231 34.628 16.5629 34.5731 16.5709ZM34.3354 18.703C34.1491 18.7299 33.9915 18.6966 33.9045 18.5688C33.8381 18.4756 33.7735 18.4382 33.7518 18.2885C33.724 18.0961 33.8359 17.8556 33.912 17.7137C33.9586 17.6259 34.1018 17.4089 34.2068 17.3157C34.2181 17.3079 34.2416 17.2982 34.2722 17.2938C34.3485 17.2828 34.4598 17.2979 34.4709 17.3742C34.4757 17.4079 34.4631 17.4502 34.4248 17.5087C34.2711 17.7397 33.9707 18.207 34.0184 18.5368L34.0206 18.5521C34.1079 18.5956 34.2209 18.6011 34.3431 18.5835C34.8286 18.5134 35.5051 18.0604 35.7007 17.9261C35.9614 17.7451 36.3057 17.4959 36.5528 17.3075L36.7651 17.1584C36.7856 17.1492 36.8087 17.1365 36.8209 17.1347C36.827 17.1339 36.8305 17.1364 36.831 17.1395C36.8318 17.1456 36.8244 17.1591 36.8035 17.1871C36.6633 17.3601 36.0374 17.7965 35.9245 17.8782C35.7362 18.0208 34.8941 18.6223 34.3354 18.703ZM38.4518 18.2833C38.2716 18.3093 38.1215 18.2842 38.0167 18.184C37.8873 18.0655 37.7625 18.0212 37.7219 17.7403L37.7144 17.6884C37.6936 17.4358 37.8543 16.9731 37.8766 16.7392C37.3013 17.1371 36.8098 17.6195 36.5023 18.253C36.4788 18.3281 36.4808 18.4712 36.4259 18.4792C36.4167 18.4805 36.4071 18.4787 36.394 18.4744C36.3368 18.4453 36.2809 18.3816 36.2716 18.3175C36.2297 18.0274 36.5309 17.2421 36.7761 16.9105C36.8283 16.8406 36.8833 16.8109 36.9321 16.8039C37.0512 16.7866 37.1539 16.8934 37.1592 16.93L37.157 16.9365C37.094 17.0829 36.9038 17.4064 36.8812 17.5094C36.9074 17.4745 36.9413 17.4508 36.9731 17.412C37.0638 17.3054 37.5944 16.7924 37.8251 16.6625C37.8394 16.6541 37.8573 16.6485 37.8726 16.6462C38.0008 16.6277 38.1773 16.7706 38.2024 16.9446C38.2064 16.9721 38.2069 16.997 38.2043 17.0223C38.1711 17.2889 37.9911 17.7046 38.0272 17.9549C38.0417 18.0557 38.0929 18.1294 38.1963 18.155C38.2867 18.1762 38.3866 18.1774 38.4935 18.1619C39.2172 18.0575 40.2381 17.162 40.7043 16.6987C40.7126 16.6913 40.8974 16.5462 40.937 16.5405C40.9432 16.5396 40.9466 16.5422 40.9471 16.5453C40.9476 16.5483 40.9401 16.5618 40.9271 16.5793C40.5631 17.0589 39.2366 18.17 38.4518 18.2833Z" fill="white"/>
<path d="M11.2221 22.8065C6.76846 25.8341 0.533382 31.1455 11.2221 28.1706C24.5831 24.4519 32.6786 20.7661 36.7922 20.7003C40.0831 20.6477 39.6882 22.5102 38.3389 22.9709" stroke="white" stroke-width="0.131635"/>
</svg>
