<svg width="365" height="124" viewBox="0 0 365 124" fill="none" xmlns="http://www.w3.org/2000/svg">
<rect x="0.75226" y="0.75226" width="362.589" height="121.866" rx="29.3382" fill="url(#paint0_linear_75_6180)" fill-opacity="0.16"/>
<rect x="0.75226" y="0.75226" width="362.589" height="121.866" rx="29.3382" stroke="url(#paint1_linear_75_6180)" stroke-width="1.50452"/>
<g filter="url(#filter1_d_75_6180)">
<g clip-path="url(#clip0_75_6180)">
<rect x="24.0625" y="22.5703" width="78.2351" height="78.2351" rx="24.0723" fill="white" fill-opacity="0.07" shape-rendering="crispEdges"/>
<g filter="url(#filter2_f_75_6180)">
<circle cx="62.1133" cy="66.2656" r="11" fill="#DC2CA1"/>
</g>
<g clip-path="url(#clip1_75_6180)">
<path d="M86.3515 37.4258L41.8828 37.4258V38.1532L86.3515 38.1532V37.4258Z" fill="#DC2CA1"/>
<path d="M57.2055 40.3359H50.6445V41.0634H57.2055V40.3359Z" fill="#DC2CA1"/>
<path d="M68.8676 40.3359H65.2227V41.0634H68.8676V40.3359Z" fill="#DC2CA1"/>
<path d="M83.4418 40.3359H73.9648V41.0634H83.4418V40.3359Z" fill="#DC2CA1"/>
<path d="M57.2113 43.2461H47.7344V43.9735H57.2113V43.2461Z" fill="#DC2CA1"/>
<path d="M74.6899 43.2461H68.1289V43.9735H74.6899V43.2461Z" fill="#DC2CA1"/>
<path d="M42.6176 46.1562H38.9727V46.8837H42.6176V46.1562Z" fill="#DC2CA1"/>
<path d="M57.2015 46.1562H44.8086V46.8837H57.2015V46.1562Z" fill="#DC2CA1"/>
<path d="M74.6956 46.1563L59.3867 46.1562V46.8837L74.6956 46.8837V46.1563Z" fill="#DC2CA1"/>
<path d="M51.3695 49.0625H44.8086V49.7899H51.3695V49.0625Z" fill="#DC2CA1"/>
<path d="M65.9477 49.0664H59.3867V49.7938H65.9477V49.0664Z" fill="#DC2CA1"/>
<path d="M77.6156 49.0625H71.0547V49.7899H77.6156V49.0625Z" fill="#DC2CA1"/>
<path d="M86.3422 49.0664H79.7812V49.7938H86.3422V49.0664Z" fill="#DC2CA1"/>
<path d="M54.2855 51.9766H44.8086V52.704H54.2855V51.9766Z" fill="#DC2CA1"/>
<path d="M71.7738 51.9766H62.2969V52.704H71.7738V51.9766Z" fill="#DC2CA1"/>
<path d="M83.4418 51.9766H73.9648V52.704H83.4418V51.9766Z" fill="#DC2CA1"/>
<path d="M65.9477 54.8867H59.3867V55.6141H65.9477V54.8867Z" fill="#DC2CA1"/>
<path d="M83.4359 54.8867H76.875V55.6141H83.4359V54.8867Z" fill="#DC2CA1"/>
<path d="M51.3695 54.8867H44.8086V55.6141H51.3695V54.8867Z" fill="#DC2CA1"/>
<path d="M42.6176 57.793H38.9727V58.5204H42.6176V57.793Z" fill="#DC2CA1"/>
<path d="M63.0219 57.793H56.4609V58.5204H63.0219V57.793Z" fill="#DC2CA1"/>
<path d="M48.4536 57.793H44.8086V58.5204H48.4536V57.793Z" fill="#DC2CA1"/>
<path d="M83.4476 57.793H71.0547V58.5204H83.4476V57.793Z" fill="#DC2CA1"/>
<path d="M51.3597 60.7031H41.8828V61.4305H51.3597V60.7031Z" fill="#DC2CA1"/>
<path d="M60.1117 60.7031H53.5508V61.4305H60.1117V60.7031Z" fill="#DC2CA1"/>
<path d="M71.7739 60.7031H68.1289V61.4305H71.7739V60.7031Z" fill="#DC2CA1"/>
<path d="M80.5258 60.7031H73.9648V61.4305H80.5258V60.7031Z" fill="#DC2CA1"/>
<path d="M48.4438 63.6133H41.8828V64.3407H48.4438V63.6133Z" fill="#DC2CA1"/>
<path d="M63.0219 63.6133H56.4609V64.3407H63.0219V63.6133Z" fill="#DC2CA1"/>
<path d="M80.5218 63.6133H68.1289V64.3407H80.5218V63.6133Z" fill="#DC2CA1"/>
<path d="M86.3715 63.6133H82.7266V64.3407H86.3715V63.6133Z" fill="#DC2CA1"/>
<path d="M54.2855 66.5234H44.8086V67.2509H54.2855V66.5234Z" fill="#DC2CA1"/>
<path d="M60.1059 66.5234H56.4609V67.2509H60.1059V66.5234Z" fill="#DC2CA1"/>
<path d="M83.4475 66.5234H65.2227V67.2509H83.4475V66.5234Z" fill="#DC2CA1"/>
<path d="M63.0334 69.4336H44.8086V70.161H63.0334V69.4336Z" fill="#DC2CA1"/>
<path d="M74.6996 69.4336H65.2227V70.161H74.6996V69.4336Z" fill="#DC2CA1"/>
<path d="M86.3519 69.4336H76.875V70.161H86.3519V69.4336Z" fill="#DC2CA1"/>
<path d="M42.6176 72.3398H38.9727V73.0673H42.6176V72.3398Z" fill="#DC2CA1"/>
<path d="M63.0433 72.3438H47.7344V73.0712H63.0433V72.3438Z" fill="#DC2CA1"/>
<path d="M77.6058 72.3398H68.1289V73.0673H77.6058V72.3398Z" fill="#DC2CA1"/>
<path d="M83.4262 72.3438H79.7812V73.0712H83.4262V72.3438Z" fill="#DC2CA1"/>
<path d="M60.1077 75.2539H41.8828V75.9813H60.1077V75.2539Z" fill="#DC2CA1"/>
<path d="M68.8578 75.2539H62.2969V75.9813H68.8578V75.2539Z" fill="#DC2CA1"/>
<path d="M83.4476 75.2539H71.0547V75.9813H83.4476V75.2539Z" fill="#DC2CA1"/>
<path d="M45.5336 78.1641H38.9727V78.8915H45.5336V78.1641Z" fill="#DC2CA1"/>
<path d="M83.4475 78.1602H65.2227V78.8876H83.4475V78.1602Z" fill="#DC2CA1"/>
<path d="M63.0374 78.1641H50.6445V78.8915H63.0374V78.1641Z" fill="#DC2CA1"/>
<path d="M45.5278 81.0742H41.8828V81.8016H45.5278V81.0742Z" fill="#DC2CA1"/>
<path d="M51.3793 81.0742H47.7344V81.8016H51.3793V81.0742Z" fill="#DC2CA1"/>
<path d="M86.3577 81.0703H73.9648V81.7977H86.3577V81.0703Z" fill="#DC2CA1"/>
<path d="M68.8695 81.0703H56.4766V81.7977H68.8695V81.0703Z" fill="#DC2CA1"/>
<path d="M83.4413 83.9805L38.9727 83.9805V84.7079L83.4413 84.7079V83.9805Z" fill="#DC2CA1"/>
<path d="M39.7017 37.4258H38.9727L38.9727 84.7078H39.7017L39.7017 37.4258Z" fill="#DC2CA1"/>
<path d="M42.6118 37.4258H41.8828V43.2451H42.6118V37.4258Z" fill="#DC2CA1"/>
<path d="M42.6118 49.0664H41.8828V58.5228H42.6118V49.0664Z" fill="#DC2CA1"/>
<path d="M42.6118 63.6133H41.8828V73.0697H42.6118V63.6133Z" fill="#DC2CA1"/>
<path d="M45.5181 40.3359H44.7891V46.8827H45.5181V40.3359Z" fill="#DC2CA1"/>
<path d="M45.5376 54.8867H44.8086V58.5238H45.5376V54.8867Z" fill="#DC2CA1"/>
<path d="M45.5376 69.4336H44.8086V75.9803H45.5376V69.4336Z" fill="#DC2CA1"/>
<path d="M45.5181 78.1641H44.7891V81.8011H45.5181V78.1641Z" fill="#DC2CA1"/>
<path d="M45.5376 49.0625H44.8086V52.6996H45.5376V49.0625Z" fill="#DC2CA1"/>
<path d="M48.4634 37.4258H47.7344V43.9725H48.4634V37.4258Z" fill="#DC2CA1"/>
<path d="M48.4634 60.7031H47.7344V64.3402H48.4634V60.7031Z" fill="#DC2CA1"/>
<path d="M48.4634 75.2539H47.7344V81.8006H48.4634V75.2539Z" fill="#DC2CA1"/>
<path d="M51.3735 51.9766H50.6445L50.6445 70.162H51.3735L51.3735 51.9766Z" fill="#DC2CA1"/>
<path d="M51.3735 81.0703H50.6445V84.7074H51.3735V81.0703Z" fill="#DC2CA1"/>
<path d="M51.3735 46.1562H50.6445V49.7933H51.3735V46.1562Z" fill="#DC2CA1"/>
<path d="M54.2798 49.0625H53.5508V52.6996H54.2798V49.0625Z" fill="#DC2CA1"/>
<path d="M54.2798 54.8828H53.5508V67.2489H54.2798V54.8828Z" fill="#DC2CA1"/>
<path d="M54.2798 72.3438H53.5508V75.9808H54.2798V72.3438Z" fill="#DC2CA1"/>
<path d="M54.2798 78.1641H53.5508V81.8011H54.2798V78.1641Z" fill="#DC2CA1"/>
<path d="M57.1899 40.3359H56.4609V43.973H57.1899V40.3359Z" fill="#DC2CA1"/>
<path d="M57.1899 46.1562H56.4609V52.703H57.1899V46.1562Z" fill="#DC2CA1"/>
<path d="M57.1899 54.8867H56.4609V58.5238H57.1899V54.8867Z" fill="#DC2CA1"/>
<path d="M57.1899 66.5234H56.4609V70.1605H57.1899V66.5234Z" fill="#DC2CA1"/>
<path d="M60.1157 40.3359H59.3867L59.3867 55.3389H60.1157L60.1157 40.3359Z" fill="#DC2CA1"/>
<path d="M60.1157 81.0742H59.3867V84.7113H60.1157V81.0742Z" fill="#DC2CA1"/>
<path d="M63.0259 37.4258H62.2969V43.9725H63.0259V37.4258Z" fill="#DC2CA1"/>
<path d="M63.0259 57.793H62.2969V70.159H63.0259V57.793Z" fill="#DC2CA1"/>
<path d="M63.0259 75.2539H62.2969V78.891H63.0259V75.2539Z" fill="#DC2CA1"/>
<path d="M65.9517 40.3359H65.2227V46.8827H65.9517V40.3359Z" fill="#DC2CA1"/>
<path d="M65.9517 54.8867H65.2227V67.2528H65.9517V54.8867Z" fill="#DC2CA1"/>
<path d="M65.9517 69.4336H65.2227V75.9803H65.9517V69.4336Z" fill="#DC2CA1"/>
<path d="M75.0454 66.5234H74.3164V70.1605H75.0454V66.5234Z" fill="#DC2CA1"/>
<path d="M68.8579 46.1562H68.1289V61.432H68.8579V46.1562Z" fill="#DC2CA1"/>
<path d="M71.7837 55.3398H71.0547V61.432H71.7837V55.3398Z" fill="#DC2CA1"/>
<path d="M71.7837 72.3438H71.0547V75.9808H71.7837V72.3438Z" fill="#DC2CA1"/>
<path d="M71.7837 78.1641H71.0547V84.7108H71.7837V78.1641Z" fill="#DC2CA1"/>
<path d="M71.7837 37.4258H71.0547V41.0629H71.7837V37.4258Z" fill="#DC2CA1"/>
<path d="M74.6938 40.3359H73.9648V46.8827H74.6938V40.3359Z" fill="#DC2CA1"/>
<path d="M74.6938 49.7891H73.9648V55.6084H74.6938V49.7891Z" fill="#DC2CA1"/>
<path d="M77.604 69.4336H76.875V73.0707H77.604V69.4336Z" fill="#DC2CA1"/>
<path d="M77.604 43.2461H76.875V49.7928H77.604V43.2461Z" fill="#DC2CA1"/>
<path d="M80.5102 43.2461H79.7812V52.7025H80.5102V43.2461Z" fill="#DC2CA1"/>
<path d="M80.5102 60.7031H79.7812V64.3402H80.5102V60.7031Z" fill="#DC2CA1"/>
<path d="M83.4556 40.3359H82.7266V46.8827H83.4556V40.3359Z" fill="#DC2CA1"/>
<path d="M83.4556 72.3398H82.7266V75.9769H83.4556V72.3398Z" fill="#DC2CA1"/>
<path d="M83.4556 54.8867H82.7266V64.3431H83.4556V54.8867Z" fill="#DC2CA1"/>
<path d="M86.3657 37.4258H85.6367L85.6367 84.7078H86.3657L86.3657 37.4258Z" fill="#DC2CA1"/>
<path d="M40.0096 37.0955H40.067C40.0661 37.04 40.0178 37 39.9476 37C39.8775 37 39.8255 37.0391 39.8264 37.0973C39.8264 37.1446 39.8601 37.1719 39.9148 37.1864L39.9522 37.1964C39.9877 37.2055 40.0114 37.2164 40.0114 37.2428C40.0114 37.271 39.9841 37.2901 39.9449 37.2901C39.9057 37.2901 39.8784 37.2737 39.8756 37.2382H39.8164C39.8191 37.3037 39.8674 37.341 39.9449 37.341C40.0223 37.341 40.0706 37.3019 40.0706 37.2428C40.0706 37.1855 40.0233 37.1591 39.9731 37.1473L39.9422 37.1391C39.9148 37.1328 39.8857 37.1209 39.8857 37.0937C39.8857 37.0691 39.9084 37.0509 39.9458 37.0509C39.9832 37.0509 40.005 37.0673 40.0087 37.0955H40.0096ZM40.2474 37.0546H40.3495V37.3346H40.4087V37.0546H40.5108V37.0045H40.2465V37.0546H40.2474ZM40.7012 37.3355L40.7286 37.2537H40.8534L40.8807 37.3355H40.9445L40.8279 37.0045H40.7541L40.6374 37.3355H40.7012ZM40.745 37.2055L40.7896 37.0718H40.7923L40.837 37.2055H40.745ZM41.1259 37.3355H41.186V37.2146H41.2471L41.3118 37.3355H41.3792L41.3072 37.2046C41.3464 37.1891 41.3664 37.1555 41.3664 37.1109C41.3664 37.0482 41.3254 37.0055 41.2498 37.0055H41.1259V37.3364V37.3355ZM41.1851 37.1646V37.0546H41.2398C41.2844 37.0546 41.3045 37.0755 41.3045 37.11C41.3045 37.1446 41.2844 37.1637 41.2398 37.1637H41.1842L41.1851 37.1646ZM41.5441 37.0546H41.6462V37.3346H41.7054V37.0546H41.8075V37.0045H41.5432V37.0546H41.5441Z" fill="#E542CE"/>
<path d="M83.6202 84.707H83.4375V84.8893H83.6202V84.707Z" fill="#DC2CA1"/>
<path d="M83.9913 84.707H83.8086V84.8893H83.9913V84.707Z" fill="#DC2CA1"/>
<path d="M84.3429 84.7109H84.1602V84.8933H84.3429V84.7109Z" fill="#DC2CA1"/>
<path d="M84.7179 84.707H84.5352V84.8893H84.7179V84.707Z" fill="#DC2CA1"/>
<path d="M85.089 84.707H84.9062V84.8893H85.089V84.707Z" fill="#DC2CA1"/>
<path d="M85.4483 84.707H85.2656V84.8893H85.4483V84.707Z" fill="#DC2CA1"/>
<path d="M85.6319 84.8906H85.4492V85.0729H85.6319V84.8906Z" fill="#DC2CA1"/>
<path d="M85.2804 84.8906H85.0977V85.0729H85.2804V84.8906Z" fill="#DC2CA1"/>
<path d="M84.8858 84.8906H84.7031V85.0729H84.8858V84.8906Z" fill="#DC2CA1"/>
<path d="M84.5343 84.8906H84.3516V85.0729H84.5343V84.8906Z" fill="#DC2CA1"/>
<path d="M84.1749 84.8906H83.9922V85.0729H84.1749V84.8906Z" fill="#DC2CA1"/>
<path d="M83.8038 84.8906H83.6211V85.0729H83.8038V84.8906Z" fill="#DC2CA1"/>
<path d="M83.6202 85.0703H83.4375V85.2526H83.6202V85.0703Z" fill="#DC2CA1"/>
<path d="M83.9913 85.0703H83.8086V85.2526H83.9913V85.0703Z" fill="#DC2CA1"/>
<path d="M84.3429 85.0703H84.1602V85.2526H84.3429V85.0703Z" fill="#DC2CA1"/>
<path d="M84.7179 85.0703H84.5352V85.2526H84.7179V85.0703Z" fill="#DC2CA1"/>
<path d="M85.089 85.0703H84.9062V85.2526H85.089V85.0703Z" fill="#DC2CA1"/>
<path d="M85.4483 85.0703H85.2656V85.2526H85.4483V85.0703Z" fill="#DC2CA1"/>
<path d="M83.4922 86.0699H83.5523V85.9299H83.6899V85.8799H83.5523V85.7898H83.7045V85.7398H83.4922V86.0708V86.0699ZM83.956 85.7389H83.8959V86.0699H83.956V85.7389ZM84.4299 85.7389H84.3706V85.9644H84.3679L84.2121 85.7389H84.1583V86.0699H84.2184V85.8444H84.2212L84.377 86.0699H84.4308V85.7389H84.4299ZM84.6923 85.7389H84.6322V86.0699H84.6923V85.7389ZM85.0741 85.8298H85.1315C85.1306 85.7744 85.0823 85.7344 85.0121 85.7344C84.942 85.7344 84.89 85.7735 84.89 85.8317C84.89 85.8789 84.9237 85.9062 84.9784 85.9208L85.0158 85.9308C85.0513 85.9399 85.075 85.9508 85.075 85.9771C85.075 86.0053 85.0477 86.0244 85.0085 86.0244C84.9693 86.0244 84.942 86.0081 84.9392 85.9726H84.88C84.8827 86.0381 84.932 86.0754 85.0085 86.0754C85.085 86.0754 85.1342 86.0363 85.1342 85.9771C85.1342 85.9199 85.0869 85.8935 85.0367 85.8817L85.0058 85.8735C84.9784 85.8671 84.9493 85.8553 84.9493 85.828C84.9493 85.8035 84.972 85.7844 85.0094 85.7844C85.0468 85.7844 85.0686 85.8007 85.0714 85.8289L85.0741 85.8298ZM85.3265 86.0699H85.3867V85.9299H85.5397V86.0699H85.5999V85.7389H85.5397V85.879H85.3867V85.7389H85.3265V86.0699Z" fill="#E542CE"/>
</g>
</g>
</g>
<path d="M136.409 40.2992C136.329 39.5911 136 39.0425 135.422 38.6536C134.843 38.2597 134.115 38.0627 133.238 38.0627C132.609 38.0627 132.066 38.1624 131.607 38.3619C131.148 38.5564 130.792 38.8256 130.537 39.1697C130.288 39.5088 130.163 39.8952 130.163 40.3291C130.163 40.6931 130.248 41.0073 130.418 41.2715C130.592 41.5358 130.819 41.7577 131.098 41.9372C131.383 42.1118 131.687 42.2589 132.011 42.3786C132.335 42.4933 132.647 42.588 132.946 42.6628L134.442 43.0517C134.931 43.1714 135.432 43.3335 135.945 43.5379C136.459 43.7424 136.935 44.0117 137.374 44.3458C137.813 44.6799 138.167 45.0938 138.436 45.5874C138.71 46.0811 138.848 46.672 138.848 47.3601C138.848 48.2278 138.623 48.9982 138.174 49.6714C137.731 50.3446 137.085 50.8757 136.237 51.2646C135.394 51.6536 134.375 51.8481 133.178 51.8481C132.031 51.8481 131.039 51.6661 130.201 51.302C129.363 50.938 128.707 50.4219 128.234 49.7537C127.76 49.0805 127.498 48.2827 127.448 47.3601H129.767C129.812 47.9137 129.991 48.3749 130.306 48.7439C130.625 49.1079 131.031 49.3797 131.525 49.5592C132.023 49.7338 132.569 49.821 133.163 49.821C133.816 49.821 134.397 49.7188 134.906 49.5143C135.419 49.3049 135.823 49.0157 136.117 48.6467C136.412 48.2727 136.559 47.8364 136.559 47.3377C136.559 46.8839 136.429 46.5124 136.17 46.2232C135.915 45.934 135.569 45.6946 135.13 45.5051C134.696 45.3157 134.205 45.1486 133.656 45.004L131.846 44.5103C130.62 44.1762 129.647 43.685 128.929 43.0368C128.216 42.3885 127.86 41.5308 127.86 40.4637C127.86 39.5811 128.099 38.8107 128.578 38.1524C129.056 37.4942 129.705 36.9831 130.522 36.6191C131.34 36.2501 132.263 36.0656 133.29 36.0656C134.327 36.0656 135.242 36.2476 136.035 36.6116C136.833 36.9756 137.461 37.4768 137.92 38.115C138.379 38.7483 138.618 39.4764 138.638 40.2992H136.409ZM146.269 51.8256C145.192 51.8256 144.252 51.5788 143.449 51.0851C142.647 50.5914 142.023 49.9008 141.58 49.0132C141.136 48.1256 140.914 47.0884 140.914 45.9016C140.914 44.7098 141.136 43.6676 141.58 42.775C142.023 41.8824 142.647 41.1893 143.449 40.6956C144.252 40.2019 145.192 39.9551 146.269 39.9551C147.346 39.9551 148.286 40.2019 149.089 40.6956C149.892 41.1893 150.515 41.8824 150.959 42.775C151.403 43.6676 151.625 44.7098 151.625 45.9016C151.625 47.0884 151.403 48.1256 150.959 49.0132C150.515 49.9008 149.892 50.5914 149.089 51.0851C148.286 51.5788 147.346 51.8256 146.269 51.8256ZM146.277 49.9482C146.975 49.9482 147.553 49.7637 148.012 49.3947C148.471 49.0257 148.81 48.5345 149.029 47.9211C149.254 47.3078 149.366 46.6321 149.366 45.8941C149.366 45.1611 149.254 44.4879 149.029 43.8745C148.81 43.2562 148.471 42.76 148.012 42.386C147.553 42.012 146.975 41.8251 146.277 41.8251C145.574 41.8251 144.99 42.012 144.527 42.386C144.068 42.76 143.726 43.2562 143.502 43.8745C143.282 44.4879 143.173 45.1611 143.173 45.8941C143.173 46.6321 143.282 47.3078 143.502 47.9211C143.726 48.5345 144.068 49.0257 144.527 49.3947C144.99 49.7637 145.574 49.9482 146.277 49.9482ZM156.358 36.275V51.5938H154.121V36.275H156.358ZM169.195 40.1047L165.029 51.5938H162.635L158.462 40.1047L160.863 40.1047L163.772 48.9459H163.892L166.794 40.1047H169.195ZM171.297 51.5938V40.1047H173.533V51.5938H171.297ZM172.426 38.332C172.038 38.332 171.703 38.2023 171.424 37.943C171.15 37.6787 171.013 37.3646 171.013 37.0005C171.013 36.6315 171.15 36.3174 171.424 36.0581C171.703 35.7938 172.038 35.6616 172.426 35.6616C172.815 35.6616 173.147 35.7938 173.421 36.0581C173.701 36.3174 173.84 36.6315 173.84 37.0005C173.84 37.3646 173.701 37.6787 173.421 37.943C173.147 38.2023 172.815 38.332 172.426 38.332ZM178.779 44.7721V51.5938H176.542V40.1047H178.689V41.9746H178.831C179.095 41.3663 179.509 40.8776 180.073 40.5086C180.641 40.1396 181.357 39.9551 182.219 39.9551C183.002 39.9551 183.688 40.1196 184.276 40.4488C184.865 40.7729 185.321 41.2566 185.645 41.8999C185.969 42.5431 186.131 43.3385 186.131 44.2859V51.5938H183.895V44.5552C183.895 43.7224 183.678 43.0717 183.244 42.603C182.81 42.1292 182.214 41.8924 181.457 41.8924C180.938 41.8924 180.477 42.0046 180.073 42.229C179.674 42.4534 179.357 42.7825 179.123 43.2163C178.893 43.6452 178.779 44.1638 178.779 44.7721ZM193.948 56.1415C193.035 56.1415 192.25 56.0218 191.592 55.7825C190.938 55.5431 190.405 55.2265 189.991 54.8325C189.577 54.4386 189.268 54.0073 189.064 53.5385L190.986 52.7456C191.121 52.9651 191.3 53.1969 191.524 53.4413C191.754 53.6906 192.063 53.9025 192.452 54.0771C192.846 54.2516 193.352 54.3389 193.97 54.3389C194.818 54.3389 195.519 54.1319 196.072 53.718C196.626 53.3091 196.902 52.6559 196.902 51.7583V49.4994H196.76C196.626 49.7437 196.431 50.0155 196.177 50.3147C195.928 50.6139 195.583 50.8732 195.145 51.0926C194.706 51.312 194.135 51.4217 193.432 51.4217C192.524 51.4217 191.706 51.2098 190.978 50.7859C190.255 50.3571 189.682 49.7263 189.258 48.8935C188.839 48.0558 188.63 47.026 188.63 45.8043C188.63 44.5826 188.837 43.5354 189.251 42.6628C189.669 41.7901 190.243 41.1219 190.971 40.6582C191.699 40.1895 192.524 39.9551 193.447 39.9551C194.16 39.9551 194.736 40.0748 195.175 40.3141C195.613 40.5485 195.955 40.8227 196.199 41.1369C196.449 41.4511 196.641 41.7278 196.775 41.9672H196.94V40.1047H199.131V51.8481C199.131 52.8354 198.902 53.6457 198.443 54.279C197.985 54.9123 197.364 55.3811 196.581 55.6852C195.803 55.9894 194.925 56.1415 193.948 56.1415ZM193.925 49.5667C194.569 49.5667 195.112 49.4171 195.556 49.1179C196.005 48.8137 196.344 48.3799 196.573 47.8164C196.808 47.248 196.925 46.5673 196.925 45.7744C196.925 45.0015 196.81 44.3208 196.581 43.7324C196.351 43.144 196.015 42.6852 195.571 42.3561C195.127 42.022 194.579 41.855 193.925 41.855C193.252 41.855 192.691 42.0295 192.242 42.3786C191.794 42.7226 191.455 43.1914 191.225 43.7848C191.001 44.3782 190.889 45.0414 190.889 45.7744C190.889 46.5274 191.003 47.1881 191.233 47.7566C191.462 48.3251 191.801 48.7689 192.25 49.088C192.704 49.4071 193.262 49.5667 193.925 49.5667ZM207.885 51.5938V36.275L213.345 36.275C214.537 36.275 215.524 36.4919 216.307 36.9257C217.09 37.3596 217.676 37.953 218.065 38.7059C218.454 39.4539 218.648 40.2967 218.648 41.2341C218.648 42.1766 218.451 43.0243 218.057 43.7773C217.668 44.5253 217.08 45.1187 216.292 45.5575C215.509 45.9913 214.524 46.2083 213.338 46.2083L209.583 46.2083V44.2485L213.128 44.2485C213.881 44.2485 214.492 44.1189 214.961 43.8596C215.429 43.5953 215.774 43.2363 215.993 42.7825C216.212 42.3287 216.322 41.8126 216.322 41.2341C216.322 40.6557 216.212 40.1421 215.993 39.6933C215.774 39.2445 215.427 38.8929 214.953 38.6386C214.484 38.3843 213.866 38.2572 213.098 38.2572L210.196 38.2572V51.5938H207.885ZM221.178 51.5938V40.1047H223.34V41.9298H223.46C223.669 41.3114 224.038 40.8252 224.567 40.4712C225.1 40.1122 225.704 39.9326 226.377 39.9326C226.516 39.9326 226.681 39.9376 226.87 39.9476C227.065 39.9576 227.217 39.97 227.327 39.985V42.1242C227.237 42.0993 227.077 42.0719 226.848 42.042C226.619 42.0071 226.389 41.9896 226.16 41.9896C225.631 41.9896 225.16 42.1018 224.746 42.3262C224.337 42.5456 224.013 42.8523 223.774 43.2462C223.534 43.6352 223.415 44.079 223.415 44.5776V51.5938H221.178ZM233.69 51.8256C232.613 51.8256 231.673 51.5788 230.87 51.0851C230.068 50.5914 229.444 49.9008 229 49.0132C228.557 48.1256 228.335 47.0884 228.335 45.9016C228.335 44.7098 228.557 43.6676 229 42.775C229.444 41.8824 230.068 41.1893 230.87 40.6956C231.673 40.2019 232.613 39.9551 233.69 39.9551C234.767 39.9551 235.707 40.2019 236.51 40.6956C237.313 41.1893 237.936 41.8824 238.38 42.775C238.824 43.6676 239.046 44.7098 239.046 45.9016C239.046 47.0884 238.824 48.1256 238.38 49.0132C237.936 49.9008 237.313 50.5914 236.51 51.0851C235.707 51.5788 234.767 51.8256 233.69 51.8256ZM233.698 49.9482C234.396 49.9482 234.974 49.7637 235.433 49.3947C235.892 49.0257 236.231 48.5345 236.45 47.9211C236.675 47.3078 236.787 46.6321 236.787 45.8941C236.787 45.1611 236.675 44.4879 236.45 43.8745C236.231 43.2562 235.892 42.76 235.433 42.386C234.974 42.012 234.396 41.8251 233.698 41.8251C232.995 41.8251 232.411 42.012 231.947 42.386C231.489 42.76 231.147 43.2562 230.923 43.8745C230.703 44.4879 230.594 45.1611 230.594 45.8941C230.594 46.6321 230.703 47.3078 230.923 47.9211C231.147 48.5345 231.489 49.0257 231.947 49.3947C232.411 49.7637 232.995 49.9482 233.698 49.9482ZM241.722 51.5938V36.275H243.958V41.9672H244.093C244.223 41.7278 244.41 41.4511 244.654 41.1369C244.898 40.8227 245.237 40.5485 245.671 40.3141C246.105 40.0748 246.678 39.9551 247.391 39.9551C248.319 39.9551 249.147 40.1895 249.875 40.6582C250.603 41.1269 251.174 41.8026 251.588 42.6852C252.007 43.5679 252.216 44.63 252.216 45.8717C252.216 47.1133 252.009 48.1779 251.595 49.0656C251.181 49.9482 250.613 50.6288 249.89 51.1076C249.167 51.5813 248.341 51.8181 247.414 51.8181C246.716 51.8181 246.145 51.701 245.701 51.4666C245.262 51.2322 244.918 50.958 244.669 50.6438C244.42 50.3297 244.228 50.0504 244.093 49.8061H243.906V51.5938H241.722ZM243.913 45.8492C243.913 46.657 244.031 47.3651 244.265 47.9735C244.499 48.5819 244.838 49.0581 245.282 49.4022C245.726 49.7412 246.27 49.9108 246.913 49.9108C247.581 49.9108 248.139 49.7338 248.588 49.3797C249.037 49.0207 249.376 48.5345 249.606 47.9211C249.84 47.3078 249.957 46.6171 249.957 45.8492C249.957 45.0913 249.842 44.4106 249.613 43.8072C249.389 43.2038 249.05 42.7276 248.596 42.3786C248.147 42.0295 247.586 41.855 246.913 41.855C246.265 41.855 245.716 42.022 245.267 42.3561C244.823 42.6902 244.487 43.1565 244.257 43.7549C244.028 44.3532 243.913 45.0514 243.913 45.8492ZM256.964 36.275V51.5938L254.727 51.5938V36.275H256.964ZM264.924 51.8256C263.792 51.8256 262.817 51.5838 262 51.1001C261.187 50.6114 260.559 49.9257 260.115 49.0431C259.676 48.1555 259.457 47.1158 259.457 45.924C259.457 44.7472 259.676 43.71 260.115 42.8124C260.559 41.9148 261.177 41.2142 261.97 40.7106C262.768 40.2069 263.7 39.9551 264.767 39.9551C265.415 39.9551 266.044 40.0623 266.652 40.2767C267.261 40.4911 267.807 40.8277 268.29 41.2865C268.774 41.7453 269.155 42.3412 269.435 43.0742C269.714 43.8022 269.854 44.6873 269.854 45.7295V46.5224H260.721V44.8469H267.662C267.662 44.2585 267.542 43.7374 267.303 43.2836C267.064 42.8249 266.727 42.4633 266.293 42.199C265.864 41.9348 265.361 41.8026 264.782 41.8026C264.154 41.8026 263.605 41.9572 263.137 42.2664C262.673 42.5705 262.314 42.9695 262.06 43.4631C261.81 43.9518 261.686 44.4829 261.686 45.0564V46.3653C261.686 47.1333 261.82 47.7865 262.089 48.3251C262.364 48.8636 262.745 49.275 263.234 49.5592C263.723 49.8385 264.293 49.9781 264.947 49.9781C265.371 49.9781 265.757 49.9183 266.106 49.7986C266.455 49.6739 266.757 49.4894 267.011 49.2451C267.265 49.0007 267.46 48.699 267.595 48.34L269.711 48.7215C269.542 49.3448 269.238 49.8908 268.799 50.3596C268.365 50.8233 267.819 51.1849 267.161 51.4442C266.508 51.6985 265.762 51.8256 264.924 51.8256ZM272.335 51.5938V40.1047H274.482V41.9746H274.624C274.863 41.3414 275.255 40.8477 275.798 40.4936C276.342 40.1346 276.992 39.9551 277.75 39.9551C278.518 39.9551 279.162 40.1346 279.68 40.4936C280.204 40.8527 280.59 41.3463 280.84 41.9746H280.959C281.234 41.3613 281.67 40.8726 282.268 40.5086C282.867 40.1396 283.58 39.9551 284.407 39.9551C285.45 39.9551 286.3 40.2817 286.958 40.9349C287.621 41.5882 287.953 42.573 287.953 43.8895V51.5938H285.716V44.0989C285.716 43.321 285.505 42.7575 285.081 42.4085C284.657 42.0594 284.151 41.8849 283.562 41.8849C282.834 41.8849 282.268 42.1093 281.864 42.5581C281.46 43.0019 281.258 43.5728 281.258 44.271V51.5938H279.029V43.9568C279.029 43.3335 278.835 42.8323 278.446 42.4534C278.057 42.0744 277.551 41.8849 276.928 41.8849C276.504 41.8849 276.112 41.9971 275.753 42.2215C275.399 42.4409 275.112 42.7476 274.893 43.1415C274.679 43.5354 274.571 43.9917 274.571 44.5103V51.5938H272.335ZM299.56 42.9096L297.533 43.2687C297.448 43.0094 297.313 42.7625 297.129 42.5282C296.949 42.2938 296.705 42.1018 296.396 41.9522C296.087 41.8026 295.7 41.7278 295.236 41.7278C294.603 41.7278 294.075 41.8699 293.651 42.1542C293.227 42.4334 293.015 42.7949 293.015 43.2387C293.015 43.6227 293.157 43.9319 293.441 44.1662C293.726 44.4006 294.184 44.5926 294.818 44.7422L296.643 45.1611C297.7 45.4054 298.488 45.7819 299.006 46.2905C299.525 46.7992 299.784 47.4599 299.784 48.2727C299.784 48.9608 299.585 49.5742 299.186 50.1127C298.792 50.6463 298.241 51.0652 297.533 51.3694C296.83 51.6735 296.014 51.8256 295.087 51.8256C293.8 51.8256 292.751 51.5514 291.938 51.0028C291.125 50.4493 290.626 49.6639 290.442 48.6467L292.604 48.3176C292.738 48.8811 293.015 49.3074 293.434 49.5966C293.853 49.8809 294.399 50.023 295.072 50.023C295.805 50.023 296.391 49.8709 296.83 49.5667C297.268 49.2575 297.488 48.8811 297.488 48.4372C297.488 48.0782 297.353 47.7765 297.084 47.5322C296.82 47.2878 296.413 47.1033 295.865 46.9787L293.92 46.5523C292.848 46.308 292.055 45.919 291.541 45.3855C291.033 44.8519 290.778 44.1762 290.778 43.3584C290.778 42.6802 290.968 42.0868 291.347 41.5782C291.726 41.0696 292.249 40.6732 292.918 40.3889C293.586 40.0997 294.351 39.9551 295.214 39.9551C296.456 39.9551 297.433 40.2244 298.146 40.7629C298.859 41.2965 299.33 42.012 299.56 42.9096Z" fill="#EFE5E5"/>
<path d="M134.697 69.1061V86.6133H132.047V71.7561H131.945L127.756 74.4916V71.9613L132.124 69.1061H134.697ZM138.681 86.6133V84.6984L144.605 78.5607C145.237 77.8939 145.759 77.3098 146.169 76.8083C146.585 76.301 146.896 75.8195 147.101 75.3636C147.306 74.9077 147.409 74.4232 147.409 73.9103C147.409 73.329 147.272 72.8275 146.998 72.4058C146.725 71.9784 146.352 71.6507 145.879 71.4228C145.406 71.1891 144.873 71.0723 144.28 71.0723C143.653 71.0723 143.106 71.2005 142.639 71.4569C142.171 71.7134 141.812 72.0753 141.562 72.5426C141.311 73.0099 141.185 73.557 141.185 74.1839H138.664C138.664 73.1182 138.909 72.1864 139.399 71.3886C139.889 70.5907 140.561 69.9724 141.416 69.5336C142.271 69.089 143.243 68.8668 144.331 68.8668C145.431 68.8668 146.4 69.0862 147.238 69.525C148.081 69.9581 148.739 70.5508 149.212 71.3031C149.685 72.0496 149.922 72.8931 149.922 73.8334C149.922 74.4831 149.799 75.1185 149.554 75.7397C149.315 76.3609 148.896 77.0533 148.298 77.817C147.699 78.5749 146.867 79.4953 145.802 80.5781L142.322 84.2197V84.348L150.204 84.348V86.6133H138.681ZM151.948 83.1939V81.0568L159.513 69.1061H161.197V72.2519H160.129L154.718 80.8175V80.9542L165.087 80.9542V83.1939L151.948 83.1939ZM160.248 86.6133V82.5442L160.266 81.5697V69.1061H162.77V86.6133H160.248ZM172.494 83.6726V72.1152H174.794V83.6726H172.494ZM167.869 79.0394V76.7484H179.427V79.0394H167.869ZM191.093 69.1061V86.6133H188.452V69.1061H191.093ZM200.625 80.9371H203.223L205.053 83.3221L205.916 84.3821L208.831 88.1862L206.13 88.1862L204.181 85.6473L203.514 84.7241L200.625 80.9371ZM209.395 77.8597C209.395 79.729 209.053 81.3361 208.37 82.681C207.686 84.0203 206.748 85.0518 205.557 85.7755C204.372 86.4936 203.024 86.8526 201.514 86.8526C199.998 86.8526 198.644 86.4936 197.453 85.7755C196.268 85.0518 195.333 84.0174 194.649 82.6725C193.966 81.3275 193.624 79.7233 193.624 77.8597C193.624 75.9905 193.966 74.3862 194.649 73.047C195.333 71.702 196.268 70.6705 197.453 69.9524C198.644 69.2287 199.998 68.8668 201.514 68.8668C203.024 68.8668 204.372 69.2287 205.557 69.9524C206.748 70.6705 207.686 71.702 208.37 73.047C209.053 74.3862 209.395 75.9905 209.395 77.8597ZM206.78 77.8597C206.78 76.435 206.549 75.2353 206.087 74.2608C205.631 73.2806 205.004 72.5397 204.207 72.0382C203.414 71.531 202.517 71.2774 201.514 71.2774C200.505 71.2774 199.605 71.531 198.812 72.0382C198.02 72.5397 197.393 73.2806 196.932 74.2608C196.476 75.2353 196.248 76.435 196.248 77.8597C196.248 79.2844 196.476 80.4869 196.932 81.4671C197.393 82.4417 198.02 83.1825 198.812 83.6897C199.605 84.1912 200.505 84.442 201.514 84.442C202.517 84.442 203.414 84.1912 204.207 83.6897C205.004 83.1825 205.631 82.4417 206.087 81.4671C206.549 80.4869 206.78 79.2844 206.78 77.8597ZM217.35 91.5372V73.4829H219.846V75.6115H220.06C220.208 75.3379 220.421 75.0216 220.701 74.6626C220.98 74.3036 221.367 73.9901 221.863 73.7223C222.359 73.4487 223.014 73.312 223.829 73.312C224.889 73.312 225.835 73.5798 226.667 74.1155C227.5 74.6512 228.152 75.4234 228.625 76.4321C229.104 77.4408 229.343 78.6547 229.343 80.0737C229.343 81.4928 229.107 82.7095 228.634 83.7239C228.161 84.7326 227.511 85.5105 226.685 86.0576C225.858 86.599 224.915 86.8697 223.855 86.8697C223.057 86.8697 222.405 86.7358 221.897 86.468C221.396 86.2001 221.003 85.8867 220.718 85.5276C220.433 85.1686 220.213 84.8495 220.06 84.5702H219.906L219.906 91.5372H217.35ZM219.854 80.0481C219.854 80.9713 219.988 81.7806 220.256 82.4758C220.524 83.1711 220.912 83.7154 221.419 84.1086C221.926 84.4961 222.547 84.6899 223.282 84.6899C224.046 84.6899 224.684 84.4876 225.197 84.083C225.71 83.6726 226.098 83.117 226.36 82.416C226.628 81.715 226.762 80.9257 226.762 80.0481C226.762 79.1819 226.63 78.404 226.368 77.7144C226.112 77.0248 225.724 76.4806 225.206 76.0816C224.693 75.6827 224.052 75.4832 223.282 75.4832C222.541 75.4832 221.915 75.6742 221.402 76.056C220.894 76.4378 220.51 76.9707 220.248 77.6545C219.985 78.3384 219.854 79.1363 219.854 80.0481ZM237.114 86.8783C235.82 86.8783 234.706 86.6019 233.771 86.0491C232.842 85.4906 232.124 84.707 231.617 83.6983C231.116 82.6839 230.865 81.4956 230.865 80.1336C230.865 78.7886 231.116 77.6033 231.617 76.5774C232.124 75.5516 232.831 74.7509 233.737 74.1753C234.649 73.5997 235.715 73.312 236.934 73.312C237.675 73.312 238.393 73.4345 239.088 73.6795C239.784 73.9246 240.408 74.3093 240.96 74.8336C241.513 75.3579 241.949 76.0389 242.268 76.8766C242.587 77.7087 242.747 78.7202 242.747 79.9113V80.8175H232.309V78.9026H240.242C240.242 78.2301 240.106 77.6346 239.832 77.116C239.558 76.5917 239.174 76.1785 238.678 75.8765C238.188 75.5744 237.612 75.4234 236.951 75.4234C236.233 75.4234 235.606 75.6001 235.071 75.9534C234.541 76.301 234.13 76.757 233.84 77.3212C233.555 77.8797 233.412 78.4866 233.412 79.142V80.6379C233.412 81.5156 233.566 82.2621 233.874 82.8776C234.187 83.4931 234.623 83.9633 235.182 84.2881C235.74 84.6073 236.393 84.7668 237.139 84.7668C237.624 84.7668 238.065 84.6984 238.464 84.5617C238.863 84.4192 239.208 84.2083 239.499 83.9291C239.789 83.6498 240.012 83.305 240.165 82.8947L242.585 83.3307C242.391 84.0431 242.043 84.6671 241.542 85.2028C241.046 85.7328 240.422 86.146 239.67 86.4423C238.923 86.733 238.071 86.8783 237.114 86.8783ZM244.831 86.6133V73.4829H247.301V75.5687H247.438C247.677 74.8621 248.099 74.3064 248.703 73.9018C249.313 73.4915 250.003 73.2863 250.772 73.2863C250.931 73.2863 251.119 73.292 251.336 73.3034C251.558 73.3148 251.732 73.329 251.858 73.3461V75.791C251.755 75.7625 251.573 75.7312 251.31 75.697C251.048 75.6571 250.786 75.6371 250.524 75.6371C249.92 75.6371 249.381 75.7653 248.908 76.0218C248.441 76.2726 248.071 76.623 247.797 77.0733C247.523 77.5178 247.387 78.025 247.387 78.5949V86.6133H244.831ZM263.156 76.6886L260.84 77.0989C260.743 76.8026 260.589 76.5205 260.378 76.2526C260.173 75.9848 259.894 75.7653 259.54 75.5944C259.187 75.4234 258.745 75.3379 258.215 75.3379C257.492 75.3379 256.888 75.5003 256.403 75.8252C255.919 76.1443 255.677 76.5575 255.677 77.0647C255.677 77.5035 255.839 77.8569 256.164 78.1247C256.489 78.3926 257.013 78.612 257.737 78.7829L259.822 79.2616C261.031 79.5409 261.931 79.9712 262.524 80.5525C263.116 81.1337 263.413 81.8889 263.413 82.8178C263.413 83.6042 263.185 84.3052 262.729 84.9207C262.279 85.5305 261.649 86.0092 260.84 86.3568C260.036 86.7045 259.104 86.8783 258.044 86.8783C256.574 86.8783 255.374 86.5648 254.446 85.938C253.517 85.3054 252.947 84.4078 252.736 83.2452L255.206 82.8691C255.36 83.5131 255.677 84.0003 256.155 84.3309C256.634 84.6557 257.258 84.8181 258.027 84.8181C258.865 84.8181 259.535 84.6443 260.036 84.2967C260.538 83.9433 260.788 83.5131 260.788 83.0059C260.788 82.5955 260.635 82.2507 260.327 81.9715C260.025 81.6922 259.56 81.4814 258.933 81.3389L256.711 80.8517C255.486 80.5724 254.579 80.1279 253.992 79.5181C253.411 78.9083 253.121 78.1361 253.121 77.2015C253.121 76.4264 253.337 75.7482 253.77 75.167C254.203 74.5857 254.802 74.1326 255.565 73.8078C256.329 73.4772 257.204 73.312 258.19 73.312C259.609 73.312 260.726 73.6197 261.541 74.2352C262.356 74.845 262.894 75.6628 263.156 76.6886ZM271.002 86.8783C269.771 86.8783 268.696 86.5962 267.779 86.032C266.861 85.4678 266.149 84.6785 265.642 83.6641C265.135 82.6497 264.881 81.4643 264.881 80.1079C264.881 78.7459 265.135 77.5548 265.642 76.5347C266.149 75.5146 266.861 74.7224 267.779 74.1582C268.696 73.594 269.771 73.312 271.002 73.312C272.233 73.312 273.307 73.594 274.224 74.1582C275.142 74.7224 275.854 75.5146 276.362 76.5347C276.869 77.5548 277.122 78.7459 277.122 80.1079C277.122 81.4643 276.869 82.6497 276.362 83.6641C275.854 84.6785 275.142 85.4678 274.224 86.032C273.307 86.5962 272.233 86.8783 271.002 86.8783ZM271.01 84.7326C271.808 84.7326 272.469 84.5218 272.993 84.1C273.518 83.6783 273.905 83.117 274.156 82.416C274.412 81.715 274.541 80.9428 274.541 80.0994C274.541 79.2616 274.412 78.4923 274.156 77.7913C273.905 77.0847 273.518 76.5176 272.993 76.0902C272.469 75.6628 271.808 75.4491 271.01 75.4491C270.207 75.4491 269.54 75.6628 269.01 76.0902C268.486 76.5176 268.095 77.0847 267.839 77.7913C267.588 78.4923 267.463 79.2616 267.463 80.0994C267.463 80.9428 267.588 81.715 267.839 82.416C268.095 83.117 268.486 83.6783 269.01 84.1C269.54 84.5218 270.207 84.7326 271.01 84.7326ZM281.779 78.8171V86.6133H279.223V73.4829H281.677V75.62H281.839C282.141 74.9248 282.614 74.3663 283.258 73.9445C283.908 73.5228 284.725 73.312 285.711 73.312C286.606 73.312 287.39 73.5 288.062 73.8761C288.735 74.2466 289.256 74.7994 289.627 75.5345C289.997 76.2697 290.182 77.1787 290.182 78.2615V86.6133H287.626V78.5692C287.626 77.6175 287.378 76.8738 286.882 76.3381C286.387 75.7967 285.706 75.526 284.839 75.526C284.247 75.526 283.72 75.6542 283.258 75.9107C282.802 76.1671 282.44 76.5433 282.172 77.0391C281.91 77.5292 281.779 78.1219 281.779 78.8171ZM295.414 78.8171V86.6133L292.858 86.6133V73.4829H295.311V75.62H295.474C295.776 74.9248 296.249 74.3663 296.893 73.9445C297.542 73.5228 298.36 73.312 299.346 73.312C300.241 73.312 301.024 73.5 301.697 73.8761C302.369 74.2466 302.891 74.7994 303.261 75.5345C303.632 76.2697 303.817 77.1787 303.817 78.2615V86.6133H301.261V78.5692C301.261 77.6175 301.013 76.8738 300.517 76.3381C300.021 75.7967 299.34 75.526 298.474 75.526C297.881 75.526 297.354 75.6542 296.893 75.9107C296.437 76.1671 296.075 76.5433 295.807 77.0391C295.545 77.5292 295.414 78.1219 295.414 78.8171ZM312.152 86.8783C310.858 86.8783 309.744 86.6019 308.809 86.0491C307.88 85.4906 307.162 84.707 306.655 83.6983C306.153 82.6839 305.903 81.4956 305.903 80.1336C305.903 78.7886 306.153 77.6033 306.655 76.5774C307.162 75.5516 307.869 74.7509 308.775 74.1753C309.687 73.5997 310.753 73.312 311.972 73.312C312.713 73.312 313.431 73.4345 314.126 73.6795C314.822 73.9246 315.446 74.3093 315.998 74.8336C316.551 75.3579 316.987 76.0389 317.306 76.8766C317.625 77.7087 317.785 78.7202 317.785 79.9113V80.8175H307.347V78.9026H315.28C315.28 78.2301 315.144 77.6346 314.87 77.116C314.596 76.5917 314.212 76.1785 313.716 75.8765C313.226 75.5744 312.65 75.4234 311.989 75.4234C311.271 75.4234 310.644 75.6001 310.109 75.9534C309.579 76.301 309.168 76.757 308.878 77.3212C308.593 77.8797 308.45 78.4866 308.45 79.142V80.6379C308.45 81.5156 308.604 82.2621 308.912 82.8776C309.225 83.4931 309.661 83.9633 310.22 84.2881C310.778 84.6073 311.431 84.7668 312.177 84.7668C312.662 84.7668 313.103 84.6984 313.502 84.5617C313.901 84.4192 314.246 84.2083 314.537 83.9291C314.827 83.6498 315.05 83.305 315.203 82.8947L317.623 83.3307C317.429 84.0431 317.081 84.6671 316.58 85.2028C316.084 85.7328 315.46 86.146 314.708 86.4423C313.961 86.733 313.109 86.8783 312.152 86.8783ZM322.425 69.1061V86.6133H319.869V69.1061H322.425Z" fill="#EFE5E5"/>
<defs>
<filter id="filter1_d_75_6180" x="22.558" y="21.0658" width="81.2434" height="81.2434" filterUnits="userSpaceOnUse" color-interpolation-filters="sRGB">
<feFlood flood-opacity="0" result="BackgroundImageFix"/>
<feColorMatrix in="SourceAlpha" type="matrix" values="0 0 0 0 0 0 0 0 0 0 0 0 0 0 0 0 0 0 127 0" result="hardAlpha"/>
<feMorphology radius="1.50452" operator="dilate" in="SourceAlpha" result="effect1_dropShadow_75_6180"/>
<feOffset/>
<feComposite in2="hardAlpha" operator="out"/>
<feColorMatrix type="matrix" values="0 0 0 0 0.531116 0 0 0 0 0 0 0 0 0 0 0 0 0 0.4 0"/>
<feBlend mode="normal" in2="BackgroundImageFix" result="effect1_dropShadow_75_6180"/>
<feBlend mode="normal" in="SourceGraphic" in2="effect1_dropShadow_75_6180" result="shape"/>
</filter>
<filter id="filter2_f_75_6180" x="21.3287" y="25.481" width="81.5692" height="81.5692" filterUnits="userSpaceOnUse" color-interpolation-filters="sRGB">
<feFlood flood-opacity="0" result="BackgroundImageFix"/>
<feBlend mode="normal" in="SourceGraphic" in2="BackgroundImageFix" result="shape"/>
<feGaussianBlur stdDeviation="14.8923" result="effect1_foregroundBlur_75_6180"/>
</filter>
<linearGradient id="paint0_linear_75_6180" x1="182.047" y1="-5.03704e-06" x2="210.21" y2="90.1822" gradientUnits="userSpaceOnUse">
<stop stop-color="#870000"/>
<stop offset="1" stop-color="#70717A"/>
</linearGradient>
<linearGradient id="paint1_linear_75_6180" x1="364.094" y1="115.848" x2="26.0942" y2="-34.281" gradientUnits="userSpaceOnUse">
<stop stop-color="white" stop-opacity="0.07"/>
<stop offset="1" stop-color="white" stop-opacity="0.15"/>
</linearGradient>
<clipPath id="clip0_75_6180">
<rect x="24.0625" y="22.5703" width="78.2351" height="78.2351" rx="24.0723" fill="white"/>
</clipPath>
<clipPath id="clip1_75_6180">
<rect width="47.3846" height="49.0769" fill="white" transform="translate(39 37)"/>
</clipPath>
</defs>
</svg>
