<svg width="365" height="124" viewBox="0 0 365 124" fill="none" xmlns="http://www.w3.org/2000/svg">
<rect x="0.75226" y="0.75226" width="362.589" height="121.866" rx="29.3382" fill="url(#paint0_linear_75_6368)" fill-opacity="0.16"/>
<rect x="0.75226" y="0.75226" width="362.589" height="121.866" rx="29.3382" stroke="url(#paint1_linear_75_6368)" stroke-width="1.50452"/>
<g filter="url(#filter1_d_75_6368)">
<g clip-path="url(#clip0_75_6368)">
<rect x="24.0625" y="22.5703" width="78.2351" height="78.2351" rx="24.0723" fill="white" fill-opacity="0.07" shape-rendering="crispEdges"/>
<g filter="url(#filter2_f_75_6368)">
<circle cx="61.7773" cy="65.8672" r="11" fill="#4770FF"/>
</g>
<g filter="url(#filter3_f_75_6368)">
<circle cx="63.5" cy="66.4375" r="11" fill="#4871FE"/>
</g>
<path d="M74.4814 52.0586L50.7891 52.0586V57.1355L74.4814 57.1355V52.0586Z" fill="#4770FF"/>
<path d="M62.6361 50.3633L74.4823 50.3633C75.413 50.3633 76.1746 51.1248 76.1746 52.0556L76.1746 75.7479C76.1746 76.6787 75.413 77.4402 74.4823 77.4402L50.79 77.4402C49.8592 77.4402 49.0977 76.6787 49.0977 75.7479L49.0977 52.0556C49.0977 51.1248 49.8592 50.3633 50.79 50.3633L62.6361 50.3633Z" stroke="#4770FF" stroke-width="3.38462" stroke-linecap="round" stroke-linejoin="round"/>
<path d="M54.168 50.3612V46.9766M71.091 50.3612V46.9766" stroke="#4770FF" stroke-width="3.38462" stroke-linecap="round" stroke-linejoin="round"/>
<path d="M54.168 62.2109L71.091 62.2109" stroke="#4770FF" stroke-width="3.38462" stroke-linecap="round" stroke-linejoin="round"/>
<path d="M54.168 68.9766H66.0141" stroke="#4770FF" stroke-width="3.38462" stroke-linecap="round" stroke-linejoin="round"/>
</g>
</g>
<path d="M128.226 51.5938V36.275H137.471V37.9206H130.081V43.0966H136.992V44.7422H130.081V49.9482H137.591V51.5938H128.226ZM141.892 40.1047L144.644 44.802L147.397 40.1047H149.432L145.721 45.8492L149.432 51.5938H147.397L144.644 47.1358L141.892 51.5938H139.857L143.507 45.8492L139.857 40.1047H141.892ZM151.95 55.9022V40.1047H153.656V41.9298H153.865C153.995 41.7303 154.174 41.476 154.404 41.1668C154.638 40.8527 154.972 40.5734 155.406 40.3291C155.845 40.0798 156.438 39.9551 157.186 39.9551C158.154 39.9551 159.006 40.1969 159.744 40.6806C160.482 41.1643 161.058 41.85 161.472 42.7376C161.886 43.6252 162.093 44.6724 162.093 45.8791C162.093 47.0959 161.886 48.1505 161.472 49.0431C161.058 49.9307 160.485 50.6189 159.752 51.1076C159.019 51.5913 158.174 51.8331 157.216 51.8331C156.478 51.8331 155.887 51.7109 155.443 51.4666C155 51.2173 154.658 50.9355 154.419 50.6214C154.179 50.3022 153.995 50.0379 153.865 49.8285H153.716V55.9022H151.95ZM153.686 45.8492C153.686 46.7169 153.813 47.4823 154.067 48.1455C154.321 48.8038 154.693 49.3199 155.182 49.6939C155.67 50.0629 156.269 50.2474 156.977 50.2474C157.715 50.2474 158.331 50.0529 158.824 49.6639C159.323 49.27 159.697 48.7414 159.946 48.0782C160.201 47.41 160.328 46.667 160.328 45.8492C160.328 45.0414 160.203 44.3134 159.954 43.6651C159.709 43.0119 159.338 42.4957 158.839 42.1168C158.346 41.7328 157.725 41.5408 156.977 41.5408C156.259 41.5408 155.655 41.7228 155.167 42.0868C154.678 42.4459 154.309 42.9495 154.06 43.5978C153.81 44.241 153.686 44.9915 153.686 45.8492ZM169.603 51.8331C168.496 51.8331 167.541 51.5888 166.738 51.1001C165.94 50.6064 165.324 49.9183 164.891 49.0356C164.462 48.148 164.247 47.1158 164.247 45.939C164.247 44.7621 164.462 43.7249 164.891 42.8274C165.324 41.9248 165.928 41.2217 166.701 40.718C167.479 40.2094 168.386 39.9551 169.423 39.9551C170.022 39.9551 170.613 40.0548 171.196 40.2543C171.779 40.4537 172.311 40.7779 172.789 41.2267C173.268 41.6705 173.649 42.2589 173.934 42.9919C174.218 43.7249 174.36 44.6275 174.36 45.6996V46.4476H165.504V44.9217H172.565C172.565 44.2735 172.435 43.695 172.176 43.1864C171.922 42.6778 171.558 42.2763 171.084 41.9821C170.615 41.6879 170.062 41.5408 169.423 41.5408C168.72 41.5408 168.112 41.7153 167.598 42.0644C167.09 42.4085 166.698 42.8573 166.424 43.4108C166.15 43.9643 166.012 44.5577 166.012 45.191V46.2083C166.012 47.0759 166.162 47.8114 166.461 48.4148C166.765 49.0132 167.187 49.4695 167.725 49.7836C168.264 50.0928 168.89 50.2474 169.603 50.2474C170.067 50.2474 170.485 50.1825 170.859 50.0529C171.238 49.9183 171.565 49.7188 171.839 49.4545C172.114 49.1852 172.325 48.8511 172.475 48.4522L174.18 48.9309C174.001 49.5094 173.699 50.018 173.275 50.4568C172.852 50.8906 172.328 51.2297 171.705 51.4741C171.081 51.7134 170.381 51.8331 169.603 51.8331ZM177.045 51.5938V40.1047H178.751V41.84H178.87C179.08 41.2715 179.459 40.8103 180.007 40.4562C180.556 40.1022 181.174 39.9252 181.862 39.9252C181.992 39.9252 182.154 39.9277 182.349 39.9326C182.543 39.9376 182.69 39.9451 182.79 39.9551V41.7503C182.73 41.7353 182.593 41.7129 182.378 41.6829C182.169 41.648 181.947 41.6306 181.713 41.6306C181.154 41.6306 180.656 41.7478 180.217 41.9821C179.783 42.2115 179.439 42.5307 179.185 42.9396C178.935 43.3435 178.811 43.8047 178.811 44.3233V51.5938H177.045ZM190.599 40.1047V41.6007H184.645V40.1047H190.599ZM186.38 37.3521H188.145V48.3026C188.145 48.8013 188.218 49.1753 188.362 49.4246C188.512 49.6689 188.701 49.8335 188.931 49.9183C189.165 49.998 189.412 50.0379 189.671 50.0379C189.866 50.0379 190.025 50.028 190.15 50.008C190.275 49.9831 190.374 49.9631 190.449 49.9482L190.808 51.5339C190.689 51.5788 190.521 51.6237 190.307 51.6685C190.093 51.7184 189.821 51.7433 189.492 51.7433C188.993 51.7433 188.504 51.6361 188.026 51.4217C187.552 51.2073 187.158 50.8807 186.844 50.4419C186.535 50.003 186.38 49.4495 186.38 48.7813L186.38 37.3521ZM193.254 51.5938V40.1047H195.019V51.5938L193.254 51.5938ZM194.152 38.1898C193.808 38.1898 193.511 38.0727 193.262 37.8383C193.017 37.6039 192.895 37.3222 192.895 36.9931C192.895 36.6639 193.017 36.3822 193.262 36.1478C193.511 35.9135 193.808 35.7963 194.152 35.7963C194.496 35.7963 194.79 35.9135 195.034 36.1478C195.284 36.3822 195.408 36.6639 195.408 36.9931C195.408 37.3222 195.284 37.6039 195.034 37.8383C194.79 38.0727 194.496 38.1898 194.152 38.1898ZM206.391 42.6778L204.805 43.1265C204.705 42.8623 204.558 42.6055 204.364 42.3561C204.174 42.1018 203.915 41.8924 203.586 41.7278C203.257 41.5633 202.835 41.481 202.322 41.481C201.618 41.481 201.033 41.643 200.564 41.9672C200.1 42.2863 199.868 42.6927 199.868 43.1864C199.868 43.6252 200.028 43.9718 200.347 44.2261C200.666 44.4804 201.165 44.6923 201.843 44.8619L203.548 45.2807C204.576 45.5301 205.341 45.9115 205.845 46.4252C206.348 46.9338 206.6 47.5895 206.6 48.3924C206.6 49.0506 206.411 49.639 206.032 50.1576C205.658 50.6762 205.134 51.0851 204.461 51.3843C203.788 51.6835 203.005 51.8331 202.112 51.8331C200.94 51.8331 199.97 51.5788 199.202 51.0702C198.435 50.5615 197.948 49.8185 197.744 48.8412L199.419 48.4223C199.579 49.0406 199.881 49.5044 200.324 49.8135C200.773 50.1227 201.359 50.2773 202.082 50.2773C202.905 50.2773 203.558 50.1028 204.042 49.7537C204.531 49.3997 204.775 48.9758 204.775 48.4821C204.775 48.0832 204.635 47.7491 204.356 47.4798C204.077 47.2056 203.648 47.0011 203.07 46.8665L201.155 46.4177C200.103 46.1684 199.33 45.7819 198.836 45.2583C198.347 44.7297 198.103 44.069 198.103 43.2761C198.103 42.6279 198.285 42.0544 198.649 41.5558C199.018 41.0571 199.519 40.6657 200.152 40.3814C200.791 40.0972 201.514 39.9551 202.322 39.9551C203.459 39.9551 204.351 40.2044 204.999 40.7031C205.653 41.2017 206.116 41.86 206.391 42.6778ZM214.074 51.8331C212.967 51.8331 212.012 51.5888 211.21 51.1001C210.412 50.6064 209.796 49.9183 209.362 49.0356C208.933 48.148 208.719 47.1158 208.719 45.939C208.719 44.7621 208.933 43.7249 209.362 42.8274C209.796 41.9248 210.399 41.2217 211.172 40.718C211.95 40.2094 212.858 39.9551 213.895 39.9551C214.493 39.9551 215.084 40.0548 215.668 40.2543C216.251 40.4537 216.782 40.7779 217.261 41.2267C217.739 41.6705 218.121 42.2589 218.405 42.9919C218.689 43.7249 218.832 44.6275 218.832 45.6996V46.4476L209.975 46.4476V44.9217L217.036 44.9217C217.036 44.2735 216.907 43.695 216.647 43.1864C216.393 42.6778 216.029 42.2763 215.555 41.9821C215.087 41.6879 214.533 41.5408 213.895 41.5408C213.192 41.5408 212.583 41.7153 212.07 42.0644C211.561 42.4085 211.17 42.8573 210.895 43.4108C210.621 43.9643 210.484 44.5577 210.484 45.191V46.2083C210.484 47.0759 210.634 47.8114 210.933 48.4148C211.237 49.0132 211.658 49.4695 212.197 49.7836C212.735 50.0928 213.361 50.2474 214.074 50.2474C214.538 50.2474 214.957 50.1825 215.331 50.0529C215.71 49.9183 216.037 49.7188 216.311 49.4545C216.585 49.1852 216.797 48.8511 216.947 48.4522L218.652 48.9309C218.472 49.5094 218.171 50.018 217.747 50.4568C217.323 50.8906 216.799 51.2297 216.176 51.4741C215.553 51.7134 214.852 51.8331 214.074 51.8331Z" fill="#EFE5E5"/>
<path d="M127.688 83.1939V81.0568L135.253 69.1061H136.937V72.2519H135.868L130.457 80.8175V80.9542H140.826V83.1939H127.688ZM135.988 86.6133V82.5442L136.005 81.5697V69.1061H138.51V86.6133H135.988ZM148.234 83.6726V72.1152H150.533V83.6726H148.234ZM143.609 79.0394V76.7484L155.166 76.7484V79.0394H143.609ZM165.602 91.5372C165.22 91.5372 164.872 91.5058 164.559 91.4431C164.246 91.3861 164.012 91.3235 163.858 91.2551L164.474 89.1607C164.941 89.2861 165.357 89.3402 165.722 89.3231C166.086 89.306 166.408 89.1693 166.688 88.9128C166.972 88.6564 167.223 88.2375 167.44 87.6562L167.756 86.7842L162.952 73.4829H165.687L169.013 83.6726H169.149L172.475 73.4829H175.219L169.808 88.3657C169.557 89.0496 169.238 89.628 168.85 90.101C168.463 90.5797 168.001 90.9388 167.465 91.1781C166.93 91.4175 166.309 91.5372 165.602 91.5372ZM182.081 86.8783C180.787 86.8783 179.673 86.6019 178.739 86.0491C177.81 85.4906 177.092 84.707 176.584 83.6983C176.083 82.6839 175.832 81.4956 175.832 80.1336C175.832 78.7886 176.083 77.6033 176.584 76.5774C177.092 75.5516 177.798 74.7509 178.704 74.1753C179.616 73.5997 180.682 73.312 181.902 73.312C182.642 73.312 183.361 73.4345 184.056 73.6795C184.751 73.9246 185.375 74.3093 185.928 74.8336C186.481 75.3579 186.917 76.0389 187.236 76.8766C187.555 77.7087 187.714 78.7202 187.714 79.9113V80.8175H177.277V78.9026H185.21C185.21 78.2301 185.073 77.6346 184.799 77.116C184.526 76.5917 184.141 76.1785 183.645 75.8765C183.155 75.5744 182.58 75.4234 181.919 75.4234C181.201 75.4234 180.574 75.6001 180.038 75.9534C179.508 76.301 179.098 76.757 178.807 77.3212C178.522 77.8797 178.38 78.4866 178.38 79.142V80.6379C178.38 81.5156 178.534 82.2621 178.841 82.8776C179.155 83.4931 179.591 83.9633 180.149 84.2881C180.708 84.6073 181.36 84.7668 182.107 84.7668C182.591 84.7668 183.033 84.6984 183.432 84.5617C183.831 84.4192 184.175 84.2083 184.466 83.9291C184.757 83.6498 184.979 83.305 185.133 82.8947L187.552 83.3307C187.358 84.0431 187.011 84.6671 186.509 85.2028C186.013 85.7328 185.389 86.146 184.637 86.4423C183.891 86.733 183.039 86.8783 182.081 86.8783ZM193.619 86.9039C192.787 86.9039 192.035 86.7501 191.363 86.4423C190.69 86.1289 190.157 85.6758 189.764 85.0831C189.376 84.4904 189.183 83.7638 189.183 82.9033C189.183 82.1624 189.325 81.5526 189.61 81.0739C189.895 80.5952 190.28 80.2162 190.764 79.937C191.249 79.6577 191.79 79.4469 192.388 79.3044C192.987 79.1619 193.597 79.0536 194.218 78.9795C195.004 78.8884 195.642 78.8143 196.133 78.7573C196.623 78.6946 196.979 78.5949 197.201 78.4581C197.423 78.3213 197.534 78.0991 197.534 77.7913V77.7315C197.534 76.9849 197.324 76.4065 196.902 75.9962C196.486 75.5858 195.865 75.3807 195.038 75.3807C194.178 75.3807 193.5 75.5716 193.004 75.9534C192.514 76.3295 192.175 76.7484 191.987 77.21L189.584 76.6629C189.869 75.8651 190.285 75.2211 190.833 74.731C191.385 74.2352 192.021 73.8761 192.739 73.6539C193.457 73.4259 194.212 73.312 195.004 73.312C195.528 73.312 196.084 73.3746 196.671 73.5C197.264 73.6197 197.817 73.842 198.329 74.1668C198.848 74.4916 199.273 74.9561 199.603 75.5602C199.934 76.1586 200.099 76.9365 200.099 77.8939V86.6133H197.603V84.8181H197.5C197.335 85.1487 197.087 85.4735 196.757 85.7926C196.426 86.1118 196.001 86.3768 195.483 86.5876C194.964 86.7985 194.343 86.9039 193.619 86.9039ZM194.175 84.8523C194.882 84.8523 195.486 84.7127 195.987 84.4334C196.494 84.1542 196.879 83.7895 197.141 83.3392C197.409 82.8833 197.543 82.3961 197.543 81.8775V80.1849C197.452 80.2761 197.275 80.3615 197.013 80.4413C196.757 80.5154 196.463 80.581 196.133 80.6379C195.802 80.6892 195.48 80.7377 195.167 80.7833C194.853 80.8232 194.591 80.8574 194.38 80.8858C193.884 80.9485 193.431 81.054 193.021 81.2021C192.616 81.3503 192.291 81.564 192.046 81.8433C191.807 82.1168 191.687 82.4815 191.687 82.9375C191.687 83.57 191.921 84.0488 192.388 84.3736C192.856 84.6927 193.451 84.8523 194.175 84.8523ZM202.751 86.6133V73.4829H205.222V75.5687H205.358C205.598 74.8621 206.02 74.3064 206.624 73.9018C207.233 73.4915 207.923 73.2863 208.692 73.2863C208.852 73.2863 209.04 73.292 209.257 73.3034C209.479 73.3148 209.653 73.329 209.778 73.3461V75.791C209.675 75.7625 209.493 75.7312 209.231 75.697C208.969 75.6571 208.707 75.6371 208.444 75.6371C207.84 75.6371 207.302 75.7653 206.829 76.0218C206.361 76.2726 205.991 76.623 205.717 77.0733C205.444 77.5178 205.307 78.025 205.307 78.5949V86.6133H202.751ZM221.077 76.6886L218.76 77.0989C218.663 76.8026 218.509 76.5205 218.299 76.2526C218.093 75.9848 217.814 75.7653 217.461 75.5944C217.108 75.4234 216.666 75.3379 216.136 75.3379C215.412 75.3379 214.808 75.5003 214.324 75.8252C213.839 76.1443 213.597 76.5575 213.597 77.0647C213.597 77.5035 213.759 77.8569 214.084 78.1247C214.409 78.3926 214.933 78.612 215.657 78.7829L217.743 79.2616C218.951 79.5409 219.852 79.9712 220.444 80.5525C221.037 81.1337 221.333 81.8889 221.333 82.8178C221.333 83.6042 221.105 84.3052 220.649 84.9207C220.199 85.5305 219.569 86.0092 218.76 86.3568C217.957 86.7045 217.025 86.8783 215.965 86.8783C214.495 86.8783 213.295 86.5648 212.366 85.938C211.437 85.3054 210.867 84.4078 210.656 83.2452L213.127 82.8691C213.281 83.5131 213.597 84.0003 214.076 84.3309C214.554 84.6557 215.178 84.8181 215.948 84.8181C216.786 84.8181 217.455 84.6443 217.957 84.2967C218.458 83.9433 218.709 83.5131 218.709 83.0059C218.709 82.5955 218.555 82.2507 218.247 81.9715C217.945 81.6922 217.481 81.4814 216.854 81.3389L214.631 80.8517C213.406 80.5724 212.5 80.1279 211.913 79.5181C211.332 78.9083 211.041 78.1361 211.041 77.2015C211.041 76.4264 211.258 75.7482 211.691 75.167C212.124 74.5857 212.722 74.1326 213.486 73.8078C214.249 73.4772 215.124 73.312 216.11 73.312C217.529 73.312 218.646 73.6197 219.461 74.2352C220.276 74.845 220.815 75.6628 221.077 76.6886ZM238.849 76.6886L236.532 77.0989C236.435 76.8026 236.282 76.5205 236.071 76.2526C235.866 75.9848 235.586 75.7653 235.233 75.5944C234.88 75.4234 234.438 75.3379 233.908 75.3379C233.184 75.3379 232.58 75.5003 232.096 75.8252C231.611 76.1443 231.369 76.5575 231.369 77.0647C231.369 77.5035 231.532 77.8569 231.856 78.1247C232.181 78.3926 232.706 78.612 233.429 78.7829L235.515 79.2616C236.723 79.5409 237.624 79.9712 238.216 80.5525C238.809 81.1337 239.105 81.8889 239.105 82.8178C239.105 83.6042 238.877 84.3052 238.422 84.9207C237.971 85.5305 237.342 86.0092 236.532 86.3568C235.729 86.7045 234.797 86.8783 233.737 86.8783C232.267 86.8783 231.067 86.5648 230.138 85.938C229.209 85.3054 228.639 84.4078 228.428 83.2452L230.899 82.8691C231.053 83.5131 231.369 84.0003 231.848 84.3309C232.327 84.6557 232.951 84.8181 233.72 84.8181C234.558 84.8181 235.227 84.6443 235.729 84.2967C236.23 83.9433 236.481 83.5131 236.481 83.0059C236.481 82.5955 236.327 82.2507 236.019 81.9715C235.717 81.6922 235.253 81.4814 234.626 81.3389L232.403 80.8517C231.178 80.5724 230.272 80.1279 229.685 79.5181C229.104 78.9083 228.813 78.1361 228.813 77.2015C228.813 76.4264 229.03 75.7482 229.463 75.167C229.896 74.5857 230.494 74.1326 231.258 73.8078C232.022 73.4772 232.896 73.312 233.882 73.312C235.301 73.312 236.418 73.6197 237.233 74.2352C238.048 74.845 238.587 75.6628 238.849 76.6886ZM247.293 73.4829V75.5345H240.121V73.4829H247.293ZM242.044 70.3371H244.6V82.7579C244.6 83.2538 244.674 83.627 244.822 83.8778C244.97 84.1228 245.161 84.291 245.395 84.3821C245.634 84.4676 245.894 84.5104 246.173 84.5104C246.378 84.5104 246.557 84.4961 246.711 84.4676C246.865 84.4391 246.985 84.4163 247.07 84.3992L247.532 86.5107C247.384 86.5677 247.173 86.6247 246.899 86.6817C246.626 86.7444 246.284 86.7786 245.874 86.7842C245.201 86.7956 244.574 86.676 243.993 86.4252C243.412 86.1745 242.942 85.7869 242.582 85.2626C242.223 84.7383 242.044 84.0801 242.044 83.2879V70.3371ZM249.368 86.6133V73.4829H251.838V75.5687H251.975C252.214 74.8621 252.636 74.3064 253.24 73.9018C253.85 73.4915 254.54 73.2863 255.309 73.2863C255.468 73.2863 255.657 73.292 255.873 73.3034C256.095 73.3148 256.269 73.329 256.395 73.3461V75.791C256.292 75.7625 256.11 75.7312 255.847 75.697C255.585 75.6571 255.323 75.6371 255.061 75.6371C254.457 75.6371 253.918 75.7653 253.445 76.0218C252.978 76.2726 252.608 76.623 252.334 77.0733C252.061 77.5178 251.924 78.025 251.924 78.5949V86.6133H249.368ZM262.915 86.8783C261.684 86.8783 260.61 86.5962 259.692 86.032C258.775 85.4678 258.062 84.6785 257.555 83.6641C257.048 82.6497 256.794 81.4643 256.794 80.1079C256.794 78.7459 257.048 77.5548 257.555 76.5347C258.062 75.5146 258.775 74.7224 259.692 74.1582C260.61 73.594 261.684 73.312 262.915 73.312C264.146 73.312 265.22 73.594 266.138 74.1582C267.055 74.7224 267.768 75.5146 268.275 76.5347C268.782 77.5548 269.036 78.7459 269.036 80.1079C269.036 81.4643 268.782 82.6497 268.275 83.6641C267.768 84.6785 267.055 85.4678 266.138 86.032C265.22 86.5962 264.146 86.8783 262.915 86.8783ZM262.923 84.7326C263.721 84.7326 264.382 84.5218 264.907 84.1C265.431 83.6783 265.818 83.117 266.069 82.416C266.326 81.715 266.454 80.9428 266.454 80.0994C266.454 79.2616 266.326 78.4923 266.069 77.7913C265.818 77.0847 265.431 76.5176 264.907 76.0902C264.382 75.6628 263.721 75.4491 262.923 75.4491C262.12 75.4491 261.453 75.6628 260.923 76.0902C260.399 76.5176 260.008 77.0847 259.752 77.7913C259.501 78.4923 259.376 79.2616 259.376 80.0994C259.376 80.9428 259.501 81.715 259.752 82.416C260.008 83.117 260.399 83.6783 260.923 84.1C261.453 84.5218 262.12 84.7326 262.923 84.7326ZM273.692 78.8171V86.6133H271.136V73.4829H273.59V75.62H273.752C274.054 74.9248 274.527 74.3663 275.171 73.9445C275.821 73.5228 276.639 73.312 277.625 73.312C278.519 73.312 279.303 73.5 279.975 73.8761C280.648 74.2466 281.169 74.7994 281.54 75.5345C281.91 76.2697 282.095 77.1787 282.095 78.2615V86.6133H279.539V78.5692C279.539 77.6175 279.292 76.8738 278.796 76.3381C278.3 75.7967 277.619 75.526 276.753 75.526C276.16 75.526 275.633 75.6542 275.171 75.9107C274.715 76.1671 274.353 76.5433 274.086 77.0391C273.823 77.5292 273.692 78.1219 273.692 78.8171ZM290.276 91.8107C289.233 91.8107 288.336 91.6739 287.583 91.4004C286.837 91.1268 286.227 90.765 285.754 90.3147C285.281 89.8645 284.928 89.3716 284.694 88.8359L286.891 87.9297C287.045 88.1805 287.25 88.4455 287.507 88.7247C287.769 89.0097 288.122 89.2519 288.567 89.4514C289.017 89.6508 289.595 89.7505 290.302 89.7505C291.271 89.7505 292.071 89.514 292.704 89.041C293.337 88.5737 293.653 87.8272 293.653 86.8013V84.2197H293.49C293.337 84.499 293.114 84.8096 292.824 85.1515C292.539 85.4934 292.145 85.7898 291.644 86.0405C291.142 86.2913 290.49 86.4167 289.686 86.4167C288.649 86.4167 287.715 86.1745 286.882 85.6901C286.056 85.1999 285.401 84.479 284.916 83.5273C284.438 82.5699 284.198 81.3931 284.198 79.9968C284.198 78.6006 284.435 77.4038 284.908 76.4065C285.387 75.4092 286.042 74.6455 286.874 74.1155C287.706 73.5798 288.649 73.312 289.703 73.312C290.518 73.312 291.177 73.4487 291.678 73.7223C292.18 73.9901 292.57 74.3036 292.849 74.6626C293.134 75.0216 293.354 75.3379 293.508 75.6115H293.696V73.4829H296.2V86.9039C296.2 88.0323 295.938 88.9584 295.414 89.6822C294.889 90.4059 294.18 90.9416 293.285 91.2893C292.396 91.6369 291.393 91.8107 290.276 91.8107ZM290.251 84.2967C290.986 84.2967 291.607 84.1257 292.114 83.7838C292.627 83.4361 293.015 82.9403 293.277 82.2963C293.545 81.6467 293.678 80.8687 293.678 79.9626C293.678 79.0793 293.547 78.3014 293.285 77.6289C293.023 76.9564 292.638 76.4321 292.131 76.056C291.624 75.6742 290.997 75.4832 290.251 75.4832C289.481 75.4832 288.84 75.6827 288.327 76.0816C287.814 76.4749 287.427 77.0106 287.165 77.6887C286.908 78.3669 286.78 79.1249 286.78 79.9626C286.78 80.8232 286.911 81.5783 287.173 82.2279C287.435 82.8776 287.823 83.3848 288.336 83.7496C288.854 84.1143 289.493 84.2967 290.251 84.2967Z" fill="#EFE5E5"/>
<defs>
<filter id="filter1_d_75_6368" x="22.558" y="21.0658" width="81.2434" height="81.2434" filterUnits="userSpaceOnUse" color-interpolation-filters="sRGB">
<feFlood flood-opacity="0" result="BackgroundImageFix"/>
<feColorMatrix in="SourceAlpha" type="matrix" values="0 0 0 0 0 0 0 0 0 0 0 0 0 0 0 0 0 0 127 0" result="hardAlpha"/>
<feMorphology radius="1.50452" operator="dilate" in="SourceAlpha" result="effect1_dropShadow_75_6368"/>
<feOffset/>
<feComposite in2="hardAlpha" operator="out"/>
<feColorMatrix type="matrix" values="0 0 0 0 0.531116 0 0 0 0 0 0 0 0 0 0 0 0 0 0.4 0"/>
<feBlend mode="normal" in2="BackgroundImageFix" result="effect1_dropShadow_75_6368"/>
<feBlend mode="normal" in="SourceGraphic" in2="effect1_dropShadow_75_6368" result="shape"/>
</filter>
<filter id="filter2_f_75_6368" x="20.9927" y="25.0826" width="81.5692" height="81.5692" filterUnits="userSpaceOnUse" color-interpolation-filters="sRGB">
<feFlood flood-opacity="0" result="BackgroundImageFix"/>
<feBlend mode="normal" in="SourceGraphic" in2="BackgroundImageFix" result="shape"/>
<feGaussianBlur stdDeviation="14.8923" result="effect1_foregroundBlur_75_6368"/>
</filter>
<filter id="filter3_f_75_6368" x="22.7154" y="25.6529" width="81.5692" height="81.5692" filterUnits="userSpaceOnUse" color-interpolation-filters="sRGB">
<feFlood flood-opacity="0" result="BackgroundImageFix"/>
<feBlend mode="normal" in="SourceGraphic" in2="BackgroundImageFix" result="shape"/>
<feGaussianBlur stdDeviation="14.8923" result="effect1_foregroundBlur_75_6368"/>
</filter>
<linearGradient id="paint0_linear_75_6368" x1="182.047" y1="-5.03704e-06" x2="210.21" y2="90.1822" gradientUnits="userSpaceOnUse">
<stop stop-color="#870000"/>
<stop offset="1" stop-color="#70717A"/>
</linearGradient>
<linearGradient id="paint1_linear_75_6368" x1="364.094" y1="115.848" x2="26.0942" y2="-34.281" gradientUnits="userSpaceOnUse">
<stop stop-color="white" stop-opacity="0.07"/>
<stop offset="1" stop-color="white" stop-opacity="0.15"/>
</linearGradient>
<clipPath id="clip0_75_6368">
<rect x="24.0625" y="22.5703" width="78.2351" height="78.2351" rx="24.0723" fill="white"/>
</clipPath>
</defs>
</svg>
