<svg width="111" height="518" viewBox="0 0 111 518" fill="none" xmlns="http://www.w3.org/2000/svg">
<g clip-path="url(#clip0_1_2)">
<path d="M77.985 388.625C29.245 420.445 -3.12502 342.925 43.735 320.295L53.025 317.115L22.465 303.025V289.415L58.785 270.555L22.305 254.705V237.905L91.295 266.835L90.485 274.875L47.275 295.985C52.165 299.335 90.905 314.875 91.465 317.265C93.495 325.835 87.505 325.935 80.865 328.155C86.805 336.045 90.925 344.415 91.405 354.555C91.605 358.645 90.435 361.645 90.425 365.065C90.335 386.995 90.575 408.945 90.465 430.865H22.305V413.585H77.985V388.625ZM35.975 362.955C39.135 381.775 68.305 384.085 75.295 366.255C80.385 353.285 74.215 337.035 59.305 335.785C41.745 334.315 33.165 346.245 35.975 362.955Z" fill="black"/>
<path d="M21.345 63.185H71.265L21.505 39.995V33.095L91.425 0.795044L91.275 9.27503L74.145 16.625C73.065 17.325 73.275 18.405 73.135 19.455C71.795 30.245 74.275 43.755 73.155 54.865L91.275 63.345L91.425 71.835C91.085 72.315 90.205 70.875 89.995 70.875H21.355V63.185H21.345ZM66.465 51.665V20.945L31.895 35.835L66.465 51.665Z" fill="black"/>
<path d="M22.305 434.705H34.785V464.465H50.145V445.265H62.625V464.465H90.465V481.745H22.305L22.305 434.705Z" fill="black"/>
<path d="M22.305 488.465H90.945C92.225 488.465 99.835 491.495 101.345 492.465C109.095 497.395 111.545 508.905 109.665 517.265H96.225C98.945 513.625 93.625 505.745 89.985 505.745H22.305V488.465Z" fill="black"/>
<path d="M91.425 128.465H22.785L21.345 127.025V105.905C21.345 75.4751 63.345 60.2551 83.275 84.2951C85.645 87.1551 91.425 97.8351 91.425 101.105V128.465ZM84.705 119.825C88.965 94.1051 67.965 70.1351 42.175 84.4951C36.495 87.6551 29.025 97.5651 29.025 103.985V119.825H84.705Z" fill="black"/>
<path d="M29.025 132.305L29.025 169.745H53.025V147.665H59.745V169.745H84.705V132.305H91.425V178.385H22.785L21.345 176.945L21.345 133.745L22.935 132.455L29.025 132.305Z" fill="black"/>
<path d="M21.345 184.145H91.425V191.825H35.745L71.215 216.355L72.225 218.685L41.755 238.695L33.835 235.965C33.275 233.755 34.275 234.395 35.045 233.785C37.065 232.185 60.595 218.025 59.745 216.795L22.755 192.815C20.355 190.655 21.575 187.055 21.355 184.135L21.345 184.145Z" fill="black"/>
<path d="M53.025 242.705H91.425V251.345H68.865C68.105 251.345 57.085 245.825 55.135 244.875C53.835 244.235 52.495 245.495 53.025 242.705Z" fill="black"/>
<path d="M0.224982 488.465H16.065L17.505 489.905V504.305C16.065 506.655 11.565 504.725 9.44498 503.725C3.89498 501.085 -0.105018 494.595 0.224982 488.465Z" fill="black"/>
</g>
<defs>
<clipPath id="clip0_1_2">
<rect width="516.47" height="110.06" fill="white" transform="matrix(0 -1 1 0 0.204987 517.265)"/>
</clipPath>
</defs>
</svg>
