<svg width="180" height="32" viewBox="0 0 180 32" fill="none" xmlns="http://www.w3.org/2000/svg">
<g clip-path="url(#clip0_415_11392)">
<path d="M44.8308 19.8802C33.741 2.89331 60.7582 -8.38828 68.6452 7.94336L69.7535 11.1811L74.6641 0.530342H79.4075L85.9806 13.1886L91.5046 0.474579H97.3597L87.2771 24.519L84.475 24.2367L77.1177 9.17712C75.9502 10.8814 70.5342 24.383 69.7012 24.5782C66.7144 25.2857 66.6796 23.1981 65.9058 20.8839C63.156 22.9541 60.2389 24.39 56.7049 24.5573C55.2795 24.627 54.2339 24.2192 53.042 24.2157C45.3989 24.1844 37.7489 24.268 30.1094 24.2297V0.474579H36.1318V19.8802H44.8308ZM53.7774 5.23884C47.2182 6.34017 46.4131 16.5065 52.6272 18.9426C57.1475 20.7166 62.811 18.5662 63.2466 13.3698C63.759 7.2498 59.6011 4.2595 53.7774 5.23884Z" fill="white"/>
<path d="M158.252 0.140625V17.5387L166.334 0.196388H168.739L179.996 24.5649L177.041 24.5126L174.479 18.5425C174.235 18.1661 173.859 18.2393 173.493 18.1905C169.732 17.7234 165.024 18.5878 161.152 18.1974L158.196 24.5126L155.237 24.5649C155.07 24.4464 155.572 24.1397 155.572 24.0665V0.14411H158.252V0.140625ZM162.267 15.8658H172.973L167.784 3.81751L162.267 15.8658Z" fill="white"/>
<path d="M28.7772 0.474609V4.82414H18.4052V10.1774H25.0968V14.5269H18.4052V24.2297H12.3828V0.474609H28.7772Z" fill="white"/>
<path d="M10.0374 0.474609V24.397C10.0374 24.8431 8.98136 27.4953 8.64329 28.0216C6.92509 30.7226 2.91363 31.5765 0 30.9213V26.2372C1.26861 27.1852 4.01495 25.331 4.01495 24.0624V0.474609H10.0374Z" fill="white"/>
<path d="M135.508 24.5649V0.642493L136.01 0.140625H143.37C153.976 0.140625 159.28 14.7785 150.902 21.7245C149.905 22.5504 146.183 24.5649 145.043 24.5649H135.508ZM138.519 22.2228C147.483 23.7075 155.837 16.3886 150.832 7.40029C149.731 5.4207 146.277 2.81726 144.04 2.81726H138.519V22.2228Z" fill="white"/>
<path d="M134.169 2.81726H121.121V11.1817H128.816V13.5238H121.121V22.2228H134.169V24.5649H118.109V0.642493L118.611 0.140625H133.667L134.117 0.694771L134.169 2.81726Z" fill="white"/>
<path d="M116.098 0.139531V24.5638H113.421V5.15822L104.872 17.5202L104.06 17.8722L97.0859 7.25282L98.0374 4.49254C98.8076 4.29737 98.5846 4.64589 98.7972 4.91425C99.3548 5.61826 104.29 13.8189 104.719 13.5227L113.076 0.630944C113.829 -0.205504 115.083 0.21969 116.101 0.143016H116.098V0.139531Z" fill="white"/>
<path d="M95.6909 11.182V24.5652H92.6797V16.7026C92.6797 16.4377 94.6035 12.597 94.9346 11.9174C95.1577 11.4643 94.7185 10.9973 95.6909 11.182Z" fill="white"/>
</g>
<defs>
<clipPath id="clip0_415_11392">
<rect width="180" height="31.1298" fill="white"/>
</clipPath>
</defs>
</svg>
