<svg width="134" height="32" viewBox="0 0 134 32" fill="none" xmlns="http://www.w3.org/2000/svg">
<path d="M41.1484 2.67578V13.4419H43.169V6.27957L45.6419 13.4419H47.391L49.8488 6.26449V13.4419H51.9146V2.67578H49.2909L46.5315 10.7127L43.8475 2.67578H41.1484Z" fill="white"/>
<path d="M62.6016 2.67578V13.4419H64.7126V2.67578H62.6016Z" fill="white"/>
<path d="M66.5938 2.67578V13.4419H68.6444V12.5673C68.9762 12.9895 69.3531 13.2911 69.7452 13.4419C70.1372 13.6078 70.5443 13.6832 70.9665 13.6832C71.4943 13.6832 71.9768 13.5927 72.399 13.3816C72.8212 13.1856 73.168 12.8991 73.4696 12.5372C73.7712 12.1753 73.9973 11.7229 74.1481 11.2103C74.2989 10.6976 74.3894 10.1397 74.3894 9.50638C74.3894 8.20962 74.118 7.19936 73.5751 6.44543C73.0323 5.70658 72.203 5.32961 71.1173 5.32961C70.092 5.32961 69.2928 5.73674 68.7048 6.52082V2.67578H66.5938ZM68.6897 9.5667V9.32544C68.6897 8.87308 68.7349 8.5112 68.8254 8.20963C68.9159 7.92313 69.0666 7.68187 69.2777 7.48585C69.4587 7.33507 69.6396 7.22952 69.8356 7.15412C70.0166 7.09381 70.2428 7.04857 70.5142 7.04857C70.7404 7.04857 70.9515 7.09381 71.1626 7.18428C71.3737 7.27475 71.5546 7.41046 71.7054 7.60648C71.8562 7.8025 71.9617 8.05884 72.0522 8.36041C72.1427 8.67706 72.1879 9.0691 72.1879 9.52146C72.1879 9.97382 72.1427 10.3508 72.0522 10.6524C71.9617 10.969 71.826 11.2253 71.6752 11.4214C71.5244 11.6174 71.3435 11.7531 71.1324 11.8436C70.9213 11.934 70.6951 11.9793 70.4689 11.9793C70.2578 11.9793 70.0467 11.9642 69.8356 11.9039C69.6245 11.8436 69.4285 11.7229 69.2325 11.542C69.0365 11.3611 68.9008 11.1047 68.8103 10.8031C68.7198 10.5016 68.6897 10.0794 68.6897 9.5667Z" fill="white"/>
<path d="M79.6995 13.6817C80.3026 13.6817 80.8455 13.5912 81.3431 13.3952C81.8256 13.2142 82.2478 12.9277 82.5946 12.5658C82.9414 12.204 83.2128 11.7667 83.3937 11.254C83.5747 10.7413 83.6802 10.1533 83.6802 9.48982C83.6802 8.85652 83.5898 8.26845 83.4088 7.75578C83.2279 7.24311 82.9565 6.80583 82.6097 6.44394C82.2629 6.08205 81.8407 5.81064 81.3581 5.61462C80.8605 5.43368 80.3026 5.32812 79.6995 5.32812C79.0964 5.32812 78.5384 5.43368 78.0559 5.61462C77.5583 5.81064 77.1361 6.08205 76.7893 6.44394C76.4425 6.80583 76.1711 7.24311 75.9902 7.75578C75.8092 8.26845 75.7188 8.85652 75.7188 9.48982C75.7188 10.8469 76.0656 11.8722 76.7592 12.596C77.4528 13.3198 78.4329 13.6817 79.6995 13.6817ZM79.6995 11.9929C79.0813 11.9929 78.6289 11.7818 78.3424 11.3596C78.0409 10.9374 77.9051 10.3041 77.9051 9.48982C77.9051 8.69065 78.0409 8.07243 78.3424 7.65023C78.644 7.22803 79.0964 7.01693 79.6995 7.01693C80.3026 7.01693 80.7399 7.22803 81.0415 7.65023C81.3431 8.07243 81.4939 8.69065 81.4939 9.48982C81.4939 10.3041 81.3431 10.9223 81.0415 11.3445C80.7399 11.7818 80.3026 11.9929 79.6995 11.9929Z" fill="white"/>
<path d="M85.2031 5.57031V10.7724C85.2031 11.7827 85.4142 12.5215 85.8364 12.989C86.2586 13.4564 86.907 13.6826 87.8117 13.6826C88.2641 13.6826 88.7014 13.577 89.1085 13.3659C89.5156 13.1548 89.8775 12.8231 90.2092 12.3557V13.4413H92.2599V5.57031H90.1489V10.305C90.1489 10.5462 90.0886 10.7573 89.9981 10.9534C89.9076 11.1494 89.7719 11.3153 89.6212 11.451C89.4553 11.6018 89.2894 11.7224 89.1085 11.7978C88.9275 11.8882 88.7164 11.9184 88.445 11.9184C88.0831 11.9184 87.8117 11.8279 87.6157 11.6319C87.4046 11.4359 87.3141 11.0589 87.3141 10.4859V5.57031H85.2031Z" fill="white"/>
<path d="M94.1328 5.5693V13.4403H96.2438V8.88659C96.2438 8.67549 96.274 8.47947 96.3644 8.26837C96.4549 8.07235 96.5906 7.8914 96.7716 7.72554C96.9374 7.57475 97.1335 7.48428 97.3446 7.42397C97.5557 7.36365 97.7668 7.3335 98.008 7.3335C98.3548 7.3335 98.6564 7.36365 98.8977 7.42397L99.154 5.50899C99.0484 5.49391 98.9278 5.47883 98.8072 5.46375C98.6715 5.44867 98.5056 5.43359 98.3096 5.43359C97.8874 5.43359 97.4953 5.53914 97.1335 5.75024C96.7565 5.96134 96.4398 6.26292 96.1835 6.67004V5.5693H94.1328Z" fill="white"/>
<path d="M100.445 5.56938V13.4404H102.556V8.70573C102.556 8.47955 102.602 8.26845 102.692 8.07243C102.782 7.87641 102.903 7.71054 103.054 7.55976C103.22 7.40897 103.401 7.30342 103.597 7.21295C103.793 7.13756 104.034 7.09232 104.305 7.09232C104.652 7.09232 104.939 7.19787 105.15 7.39389C105.361 7.60499 105.466 7.98196 105.466 8.52479V13.4404H107.577V8.23829C107.577 7.24311 107.351 6.50426 106.929 6.03682C106.492 5.56938 105.828 5.32812 104.939 5.32812C104.471 5.32812 104.019 5.43368 103.597 5.64478C103.175 5.85588 102.798 6.20268 102.496 6.65504V5.56938H100.445Z" fill="white"/>
<path d="M116.498 11.1864L114.795 10.9826C114.635 11.7134 113.881 12.0381 113.052 12.0381C112.449 12.0381 111.997 11.8722 111.695 11.5103C111.394 11.1485 111.228 10.6509 111.213 10.0176H116.671V9.17317C116.671 7.99704 116.354 7.06216 115.751 6.36855C115.148 5.67493 114.243 5.32812 113.037 5.32812C112.449 5.32812 111.921 5.43368 111.439 5.61462C110.956 5.79556 110.534 6.06698 110.187 6.42886C109.84 6.79075 109.569 7.24311 109.388 7.75578C109.192 8.26845 109.102 8.85652 109.102 9.51997C109.102 10.8469 109.418 11.8722 110.082 12.596C110.745 13.3198 111.725 13.6817 113.037 13.6817C114.123 13.6817 114.937 13.4555 115.51 13.0031C116.083 12.5508 116.347 12.076 116.498 11.1864ZM114.635 8.63034H111.243C111.243 8.38908 111.288 8.17798 111.378 7.96688C111.454 7.75578 111.559 7.57484 111.71 7.42405C111.861 7.27326 112.042 7.13756 112.253 7.04708C112.464 6.95661 112.705 6.91138 112.992 6.91138C113.55 6.91138 113.957 7.06216 114.228 7.36374C114.5 7.66531 114.635 8.08751 114.635 8.63034Z" fill="white"/>
<path d="M50.0573 24.4902H48.6248C48.5645 24.8822 48.459 25.2291 48.3384 25.5457C48.2026 25.8774 48.0217 26.1488 47.7955 26.375C47.5694 26.6163 47.2829 26.7972 46.936 26.9179C46.5892 27.0385 46.167 27.0988 45.6845 27.0988C45.1417 27.0988 44.6592 26.9933 44.237 26.7822C43.8148 26.5711 43.468 26.2695 43.1815 25.8774C42.895 25.4854 42.6839 25.018 42.5331 24.4751C42.3823 23.9322 42.3069 23.314 42.3069 22.6506C42.3069 21.9871 42.3823 21.384 42.5331 20.8411C42.6839 20.2983 42.895 19.8309 43.1815 19.4388C43.468 19.0468 43.8148 18.7452 44.237 18.5341C44.6592 18.323 45.1266 18.2024 45.6694 18.2024C46.1218 18.2024 46.4988 18.2627 46.8154 18.3833C47.1321 18.504 47.4035 18.6698 47.6297 18.8809C47.8558 19.1071 48.0368 19.3785 48.1876 19.6952C48.3384 20.0118 48.459 20.3586 48.5495 20.7507L49.9065 20.5245C49.7859 20.0118 49.6351 19.5293 49.424 19.092C49.2129 18.6698 48.9415 18.2929 48.6098 17.9762C48.278 17.6746 47.8709 17.4334 47.3884 17.2524C46.9059 17.0866 46.3329 16.9961 45.6694 16.9961C44.9758 16.9961 44.3425 17.1318 43.7545 17.3731C43.1664 17.6294 42.6537 17.9913 42.2315 18.4738C41.7942 18.9563 41.4625 19.5595 41.2213 20.2531C40.98 20.9618 40.8594 21.7609 40.8594 22.6656C40.8594 23.5704 40.9649 24.3696 41.1911 25.0632C41.4173 25.7568 41.7339 26.3449 42.1561 26.8274C42.5633 27.3099 43.0608 27.6869 43.664 27.9281C44.2521 28.1845 44.9155 28.3051 45.6694 28.3051C46.348 28.3051 46.9511 28.2146 47.4638 28.0186C47.9765 27.8377 48.4288 27.5662 48.7907 27.2194C49.1526 26.8877 49.4391 26.4806 49.6502 26.0131C49.8613 25.5457 49.997 25.033 50.0573 24.4902Z" fill="white"/>
<path d="M59.875 20.2374V30.9582H61.1868V27.0679C61.5186 27.5203 61.9106 27.8369 62.3328 28.0179C62.755 28.1988 63.1923 28.2742 63.6446 28.2742C64.1724 28.2742 64.6549 28.1837 65.0771 27.9877C65.4993 27.7917 65.8763 27.5052 66.1778 27.1433C66.4794 26.7814 66.7056 26.3441 66.8715 25.8315C67.0223 25.3188 67.1127 24.7307 67.1127 24.0824C67.1127 23.4792 67.0373 22.9364 66.9016 22.4388C66.7659 21.9412 66.5548 21.504 66.2834 21.1421C66.012 20.7802 65.6652 20.5088 65.243 20.2977C64.8208 20.1016 64.3383 19.9961 63.7954 19.9961C63.2224 19.9961 62.7098 20.1167 62.2876 20.3429C61.8654 20.5842 61.4884 20.9159 61.1718 21.3532V20.2374H59.875ZM61.1718 24.3538V23.8261C61.1718 23.3737 61.2321 22.9817 61.3527 22.6348C61.4733 22.288 61.6392 22.0015 61.8503 21.7754C62.0614 21.5492 62.3177 21.3833 62.6193 21.2627C62.9058 21.1421 63.2224 21.0818 63.5693 21.0818C63.8407 21.0818 64.097 21.1421 64.3533 21.2325C64.6097 21.3381 64.8359 21.504 65.047 21.7301C65.243 21.9714 65.4088 22.273 65.5295 22.665C65.6501 23.057 65.7255 23.5245 65.7255 24.0975C65.7255 24.6704 65.6652 25.1378 65.5445 25.5299C65.4239 25.9219 65.2731 26.2537 65.0771 26.4949C64.866 26.7362 64.6248 26.9171 64.3533 27.0227C64.0819 27.1433 63.7804 27.1885 63.4637 27.1885C63.132 27.1885 62.8153 27.1433 62.5439 27.0377C62.2574 26.9322 62.0162 26.7663 61.8201 26.5251C61.609 26.2989 61.4583 26.0124 61.3376 25.6505C61.217 25.2886 61.1718 24.8664 61.1718 24.3538Z" fill="white"/>
<path d="M68.8968 20.2361V28.0317H70.2086V20.2361H68.8968ZM68.8516 17.2656V18.7886H70.2539V17.2656H68.8516Z" fill="white"/>
<path d="M72.7063 21.2798V25.5017C72.7063 25.8938 72.7214 26.2557 72.7817 26.5874C72.842 26.9191 72.9475 27.2056 73.1134 27.4469C73.2642 27.6881 73.4904 27.8842 73.7618 28.0048C74.0332 28.1405 74.38 28.2008 74.8324 28.2008C75.149 28.2008 75.4204 28.1857 75.6617 28.1405C75.9029 28.0953 76.114 28.0349 76.3251 27.9596L76.099 26.9493C75.9482 27.0096 75.7974 27.0398 75.6315 27.0699C75.4657 27.1001 75.2696 27.1152 75.0585 27.1152C74.6967 27.1152 74.4403 27.0096 74.2745 26.7683C74.0935 26.5422 74.0181 26.2406 74.0181 25.8486V21.2798H76.0839V20.2394H74.0181V18.1133H72.7063V20.2394H71.5V21.2798H72.7063Z" fill="white"/>
<path d="M85.625 17.2656V28.0317H86.9368V17.2656H85.625Z" fill="white"/>
<path d="M103.133 20.2373V28.033H104.445V23.4038C104.445 23.072 104.505 22.7856 104.626 22.5292C104.746 22.288 104.927 22.0618 105.153 21.8658C105.364 21.6697 105.606 21.534 105.862 21.4436C106.103 21.3531 106.36 21.3078 106.601 21.3078C106.722 21.3078 106.827 21.3229 106.933 21.338C107.023 21.3531 107.129 21.3682 107.234 21.3832L107.4 20.1619C107.204 20.1317 106.978 20.1016 106.706 20.1016C106.254 20.1016 105.847 20.2222 105.455 20.4484C105.063 20.6896 104.716 21.0214 104.43 21.4436V20.2373H103.133Z" fill="white"/>
<path d="M111.731 28.2742C112.304 28.2742 112.832 28.1837 113.314 27.9877C113.782 27.7917 114.174 27.5052 114.506 27.1433C114.837 26.7814 115.079 26.3441 115.26 25.8315C115.44 25.3188 115.531 24.7458 115.531 24.0975C115.531 23.4642 115.44 22.9063 115.275 22.3936C115.094 21.896 114.852 21.4738 114.521 21.1119C114.189 20.75 113.797 20.4786 113.345 20.2826C112.877 20.1016 112.349 19.9961 111.776 19.9961C111.203 19.9961 110.676 20.1016 110.208 20.2977C109.741 20.4937 109.349 20.7651 109.017 21.127C108.685 21.4889 108.429 21.9262 108.248 22.4388C108.067 22.9515 107.977 23.5245 107.977 24.1578C107.977 24.791 108.052 25.364 108.233 25.8767C108.399 26.3894 108.64 26.8266 108.972 27.1735C109.288 27.5353 109.68 27.8068 110.148 27.9877C110.6 28.1837 111.128 28.2742 111.731 28.2742ZM111.746 27.1885C111.324 27.1885 110.962 27.1131 110.661 26.9624C110.359 26.8116 110.103 26.6005 109.922 26.3291C109.726 26.0576 109.59 25.741 109.499 25.364C109.409 25.0021 109.364 24.5799 109.364 24.1276C109.364 23.6753 109.409 23.2681 109.499 22.8912C109.59 22.5293 109.726 22.2126 109.922 21.9412C110.118 21.6698 110.359 21.4587 110.661 21.3079C110.962 21.1571 111.324 21.0818 111.746 21.0818C112.168 21.0818 112.53 21.1571 112.832 21.3079C113.133 21.4587 113.375 21.6698 113.571 21.9412C113.767 22.2126 113.918 22.5293 114.008 22.8912C114.098 23.2681 114.144 23.6753 114.144 24.1126C114.144 24.5649 114.098 24.9871 114.008 25.364C113.918 25.741 113.767 26.0576 113.571 26.3291C113.375 26.6005 113.133 26.8116 112.832 26.9624C112.53 27.1131 112.168 27.1885 111.746 27.1885Z" fill="white"/>
<path d="M117.242 20.2383V25.4103C117.242 26.3753 117.438 27.084 117.83 27.5665C118.222 28.049 118.871 28.2752 119.76 28.2752C120.273 28.2752 120.74 28.1696 121.193 27.9284C121.63 27.7022 122.037 27.3403 122.429 26.8277V28.0339H123.726V20.2383H122.414V24.8524C122.414 25.2444 122.339 25.5761 122.218 25.8174C122.082 26.0586 121.886 26.2999 121.645 26.511C121.163 26.9332 120.635 27.1443 120.062 27.1443C119.519 27.1443 119.142 26.9935 118.901 26.6919C118.66 26.3904 118.554 25.8777 118.554 25.1539V20.2383H117.242Z" fill="white"/>
<path d="M125.742 20.2374V30.9582H127.054V27.0679C127.386 27.5203 127.778 27.8369 128.2 28.0179C128.622 28.1988 129.059 28.2742 129.512 28.2742C130.04 28.2742 130.522 28.1837 130.944 27.9877C131.366 27.7917 131.743 27.5052 132.045 27.1433C132.347 26.7814 132.573 26.3441 132.739 25.8315C132.889 25.3188 132.98 24.7307 132.98 24.0824C132.98 23.4792 132.905 22.9364 132.769 22.4388C132.633 21.9412 132.422 21.504 132.151 21.1421C131.879 20.7802 131.532 20.5088 131.11 20.2977C130.688 20.1016 130.205 19.9961 129.663 19.9961C129.09 19.9961 128.577 20.1167 128.155 20.3429C127.733 20.5842 127.356 20.9159 127.039 21.3532V20.2374H125.742ZM127.039 24.3538V23.8261C127.039 23.3737 127.099 22.9817 127.22 22.6348C127.341 22.288 127.506 22.0015 127.717 21.7754C127.929 21.5492 128.185 21.3833 128.486 21.2627C128.773 21.1421 129.09 21.0818 129.436 21.0818C129.708 21.0818 129.964 21.1421 130.221 21.2325C130.477 21.3381 130.703 21.504 130.914 21.7301C131.11 21.9714 131.276 22.273 131.397 22.665C131.517 23.057 131.593 23.5245 131.593 24.0975C131.593 24.6704 131.532 25.1378 131.412 25.5299C131.291 25.9219 131.14 26.2537 130.944 26.4949C130.733 26.7362 130.492 26.9171 130.221 27.0227C129.949 27.1433 129.648 27.1885 129.331 27.1885C128.999 27.1885 128.683 27.1433 128.411 27.0377C128.125 26.9322 127.883 26.7663 127.687 26.5251C127.476 26.2989 127.325 26.0124 127.205 25.6505C127.084 25.2886 127.039 24.8664 127.039 24.3538Z" fill="white"/>
<path d="M61.021 11.1864L59.3186 10.9826C59.1588 11.7134 58.4049 12.0381 57.5756 12.0381C56.9724 12.0381 56.5201 11.8722 56.2185 11.5103C55.9169 11.1485 55.7511 10.6509 55.736 10.0176H61.1945V9.17317C61.1945 7.99704 60.8778 7.06216 60.2747 6.36855C59.6715 5.67493 58.7668 5.32812 57.5605 5.32812C56.9724 5.32812 56.4447 5.43368 55.9622 5.61462C55.4797 5.79556 55.0575 6.06698 54.7107 6.42886C54.3639 6.79075 54.0924 7.24311 53.9115 7.75578C53.7155 8.26845 53.625 8.85652 53.625 9.51997C53.625 10.8469 53.9417 11.8722 54.6051 12.596C55.2686 13.3198 56.2487 13.6817 57.5605 13.6817C58.6462 13.6817 59.4604 13.4555 60.0334 13.0031C60.6064 12.5508 60.8703 12.076 61.021 11.1864ZM59.1588 8.63034H55.7662C55.7662 8.38908 55.8114 8.17798 55.9019 7.96688C55.9773 7.75578 56.0828 7.57484 56.2336 7.42405C56.3844 7.27326 56.5653 7.13756 56.7764 7.04708C56.9875 6.95661 57.2288 6.91138 57.5153 6.91138C58.0732 6.91138 58.4803 7.06216 58.7517 7.36374C59.0231 7.66531 59.1588 8.08751 59.1588 8.63034Z" fill="white"/>
<path fill-rule="evenodd" clip-rule="evenodd" d="M56.6301 26.951H56.6284C56.34 27.3 55.9759 27.6035 55.551 27.8462C55.1111 28.089 54.5648 28.2103 53.9276 28.2103C53.5332 28.2103 53.1691 28.1648 52.8352 28.0739C52.5015 27.9827 52.2284 27.8309 51.9857 27.6337C51.7429 27.4364 51.5608 27.1937 51.4394 26.8902C51.3027 26.602 51.2422 26.253 51.2422 25.8585C51.2422 25.3276 51.3485 24.8877 51.5759 24.5538C51.8035 24.22 52.107 23.9621 52.4864 23.7648C52.8656 23.5828 53.2904 23.4462 53.7759 23.3552C54.2462 23.2793 54.7319 23.2338 55.2477 23.2034L56.598 23.1579V22.8545C56.598 22.1869 56.4462 21.7166 56.1731 21.4131C55.8849 21.1249 55.4297 20.9731 54.7925 20.9731C54.1553 20.9731 53.7 21.0793 53.4118 21.2917C53.1083 21.5042 52.9264 21.7772 52.8352 22.1414L51.6367 22.0048C51.7731 21.2917 52.107 20.7759 52.6533 20.4421C53.1842 20.1083 53.9126 19.9414 54.8379 19.9414C55.3995 19.9414 55.8696 20.0173 56.2641 20.1538C56.6588 20.2904 56.9774 20.4876 57.2201 20.7304C57.4628 20.9883 57.6297 21.3069 57.736 21.671C57.8422 22.0504 57.9028 22.4752 57.9028 22.9303V26.3306H57.904C57.904 26.639 57.9398 26.9826 58.5205 26.9826H58.8051V28.014H58.2124C58.1222 28.014 58.0166 28.0128 57.9028 28.0041V28.0282L57.897 28.0036C57.6377 27.9827 57.3361 27.9214 57.0742 27.7414C56.7709 27.5327 56.6476 27.1327 56.6238 26.959L56.6301 26.951ZM56.598 24.9786V24.0986L55.3387 24.1441C54.7925 24.1745 54.3525 24.22 54.0035 24.2959C53.6394 24.3869 53.3663 24.4932 53.154 24.6296C52.9414 24.7663 52.805 24.9331 52.7138 25.1304C52.6229 25.3427 52.5925 25.5703 52.5925 25.8284C52.5925 26.2229 52.6987 26.5415 52.9414 26.7842C53.1842 27.0269 53.5786 27.1332 54.1249 27.1332C54.8987 27.1332 55.5055 26.951 55.9455 26.5565C56.3704 26.1771 56.598 25.6462 56.598 24.9786Z" fill="white"/>
<path fill-rule="evenodd" clip-rule="evenodd" d="M82.3098 26.951H82.3081C82.0199 27.3 81.6556 27.6035 81.2307 27.8462C80.7908 28.089 80.2445 28.2103 79.6073 28.2103C79.2128 28.2103 78.8488 28.1648 78.5151 28.0739C78.1812 27.9827 77.9081 27.8309 77.6653 27.6337C77.4226 27.4364 77.2405 27.1937 77.1191 26.8902C76.9827 26.602 76.9219 26.253 76.9219 25.8585C76.9219 25.3276 77.0282 24.8877 77.2558 24.5538C77.4832 24.22 77.7867 23.9621 78.1661 23.7648C78.5453 23.5828 78.9701 23.4462 79.4556 23.3552C79.9259 23.2793 80.4116 23.2338 80.9274 23.2034L82.2777 23.1579V22.8545C82.2777 22.1869 82.1259 21.7166 81.8528 21.4131C81.5646 21.1249 81.1093 20.9731 80.4722 20.9731C79.835 20.9731 79.3797 21.0793 79.0915 21.2917C78.788 21.5042 78.6061 21.7772 78.5151 22.1414L77.3164 22.0048C77.453 21.2917 77.7867 20.7759 78.3329 20.4421C78.8639 20.1083 79.5922 19.9414 80.5176 19.9414C81.0792 19.9414 81.5495 20.0173 81.944 20.1538C82.3385 20.2904 82.6571 20.4876 82.8998 20.7304C83.1425 20.9883 83.3094 21.3069 83.4156 21.671C83.5219 22.0504 83.5825 22.4752 83.5825 22.9303V26.3306H83.5837C83.5837 26.639 83.6194 26.9826 84.2002 26.9826H84.4848V28.014H83.8921C83.8018 28.014 83.6963 28.0128 83.5825 28.0041V28.0282L83.5766 28.0036C83.3174 27.9827 83.0161 27.9214 82.7541 27.7414C82.4506 27.5327 82.3273 27.1327 82.3035 26.959L82.3098 26.951ZM82.2777 24.9786V24.0986L81.0184 24.1441C80.4722 24.1745 80.0322 24.22 79.6832 24.2959C79.3191 24.3869 79.046 24.4932 78.8337 24.6296C78.6211 24.7663 78.4847 24.9331 78.3935 25.1304C78.3025 25.3427 78.2721 25.5703 78.2721 25.8284C78.2721 26.2229 78.3784 26.5415 78.6211 26.7842C78.8639 27.0269 79.2583 27.1332 79.8046 27.1332C80.5784 27.1332 81.1852 26.951 81.6252 26.5565C82.0501 26.1771 82.2777 25.6462 82.2777 24.9786Z" fill="white"/>
<path fill-rule="evenodd" clip-rule="evenodd" d="M96.9819 28.3324C97.041 28.3324 97.0997 28.3317 97.1575 28.3302V28.3324C98.4966 28.3324 99.3811 27.8375 99.9544 27.1186V27.9676H101.292V22.4955H97.2791V23.7115H99.9544C99.9544 26.63 98.252 27.1239 97.1575 27.1239C97.1048 27.1254 97.0513 27.1261 96.997 27.1261C96.4542 27.1261 95.9717 27.0205 95.5495 26.8094C95.1273 26.5983 94.7805 26.2968 94.494 25.9047C94.2075 25.5127 93.9964 25.0452 93.8456 24.5024C93.6948 23.9596 93.6194 23.3414 93.6194 22.6779C93.6194 22.0145 93.6948 21.4113 93.8456 20.8685C93.9964 20.3256 94.2075 19.8582 94.494 19.4662C94.7805 19.0741 95.1273 18.7726 95.5495 18.5615C95.9717 18.3504 96.4391 18.2297 96.9819 18.2297C97.4343 18.2297 97.8113 18.29 98.1279 18.4107C98.4446 18.5313 98.716 18.6972 98.9422 18.9083C99.1683 19.1344 99.3493 19.4059 99.5001 19.7225C99.5964 19.925 99.6805 20.1398 99.7523 20.3708L101.113 20.1386C101.012 19.7788 100.89 19.4371 100.737 19.1194C100.525 18.6972 100.254 18.3202 99.9223 18.0035C99.5905 17.702 99.1834 17.4607 98.7009 17.2798C98.2184 17.1139 97.6454 17.0234 96.9819 17.0234C96.2883 17.0234 95.655 17.1591 95.067 17.4004C94.4789 17.6567 93.9662 18.0186 93.544 18.5011C93.1067 18.9837 92.775 19.5868 92.5338 20.2804C92.2925 20.9891 92.1719 21.7883 92.1719 22.693C92.1719 23.5977 92.2774 24.3969 92.5036 25.0905C92.7298 25.7841 93.0464 26.3722 93.4686 26.8547C93.8758 27.3372 94.3734 27.7142 94.9765 27.9554C95.5646 28.2118 96.228 28.3324 96.9819 28.3324Z" fill="white"/>
<path fill-rule="evenodd" clip-rule="evenodd" d="M4.47146 4.09625L8.56771 0H14.5088V7.31696L7.31696 14.5088H0V8.56771L4.47146 4.09625ZM7.26421 16.1348H0V22.0759L4.47146 26.5473L8.56771 30.6436H14.5088V23.3794L7.26421 16.1348ZM16.1348 23.3794V30.6436H22.0759L26.1721 26.5473L30.6436 22.0759V16.1348H23.3794L16.1348 23.3794ZM23.3266 14.5088H30.6436V8.56771L26.1721 4.09625L22.0759 0H16.1348V7.31696L23.3266 14.5088Z" fill="white"/>
</svg>
