<svg width="591" height="419" viewBox="0 0 591 419" fill="none" xmlns="http://www.w3.org/2000/svg">
<path d="M266 419C260.477 419 256 414.523 256 409V9.99999C256 4.47714 260.477 -1.52588e-05 266 -1.52588e-05L581 -1.52588e-05C586.523 -1.52588e-05 591 4.47714 591 9.99998V409C591 414.523 586.523 419 581 419L266 419Z" fill="url(#paint0_linear_453_876)" fill-opacity="0.4"/>
<rect x="282" y="155" width="255.238" height="19.7691" rx="9.88454" fill="white" fill-opacity="0.3"/>
<rect x="282" y="194.538" width="179.827" height="23.0639" rx="10" fill="white" fill-opacity="0.3"/>
<rect x="282" y="237.374" width="255.238" height="23.0639" rx="10" fill="white" fill-opacity="0.3"/>
<rect x="282" y="276.912" width="84.1125" height="23.0639" rx="10" fill="white" fill-opacity="0.3"/>
<rect x="282" y="319.745" width="229.134" height="19.7691" rx="9.88454" fill="white" fill-opacity="0.3"/>
<path d="M286.65 65.332L296.885 44.0039H301.76L312.213 65.332H306.432L304.15 60.5195H294.166L291.994 65.332H286.65ZM295.932 56.7383H302.432L299.135 49.6445L295.932 56.7383ZM314.166 71.0508V49.3945H319.041V51.3477C320.395 49.7747 322.312 48.9883 324.791 48.9883C327.322 48.9883 329.39 49.7487 330.994 51.2695C332.692 52.8737 333.541 54.9466 333.541 57.4883C333.541 60.3216 332.463 62.5508 330.307 64.1758C328.744 65.3529 326.926 65.9414 324.854 65.9414C323.593 65.9414 322.426 65.6862 321.354 65.1758C320.614 64.832 319.833 64.3008 319.01 63.582V71.0508H314.166ZM323.729 52.6602C322.249 52.6602 321.031 53.0977 320.072 53.9727C319.145 54.8164 318.682 55.9831 318.682 57.4727C318.682 58.9414 319.145 60.1081 320.072 60.9727C321.01 61.8477 322.255 62.2852 323.807 62.2852C325.192 62.2852 326.317 61.8789 327.182 61.0664C328.161 60.1393 328.65 58.9466 328.65 57.4883C328.65 56.0091 328.161 54.806 327.182 53.8789C326.317 53.0664 325.166 52.6602 323.729 52.6602ZM336.697 71.0508V49.3945H341.572V51.3477C342.926 49.7747 344.843 48.9883 347.322 48.9883C349.854 48.9883 351.921 49.7487 353.525 51.2695C355.223 52.8737 356.072 54.9466 356.072 57.4883C356.072 60.3216 354.994 62.5508 352.838 64.1758C351.275 65.3529 349.458 65.9414 347.385 65.9414C346.124 65.9414 344.958 65.6862 343.885 65.1758C343.145 64.832 342.364 64.3008 341.541 63.582V71.0508H336.697ZM346.26 52.6602C344.781 52.6602 343.562 53.0977 342.604 53.9727C341.676 54.8164 341.213 55.9831 341.213 57.4727C341.213 58.9414 341.676 60.1081 342.604 60.9727C343.541 61.8477 344.786 62.2852 346.338 62.2852C347.723 62.2852 348.848 61.8789 349.713 61.0664C350.692 60.1393 351.182 58.9466 351.182 57.4883C351.182 56.0091 350.692 54.806 349.713 53.8789C348.848 53.0664 347.697 52.6602 346.26 52.6602ZM359.229 65.332V44.0039H364.088V65.332H359.229ZM369.135 71.0508V67.2383H371.166C371.864 67.2383 372.327 67.1914 372.557 67.0977C372.973 66.931 373.333 66.582 373.635 66.0508C373.76 65.8424 373.926 65.5091 374.135 65.0508L366.182 49.3945H371.854L376.697 60.1602L381.416 49.3945H386.744L378.26 67.0977C377.479 68.7227 376.739 69.7643 376.041 70.2227C375.229 70.7643 373.937 71.0404 372.166 71.0508H369.135ZM397.416 65.332V44.0039H402.822L414.713 58.4414V44.0039H419.432V65.332H414.072L402.166 50.8633V65.332H397.416ZM433.619 48.7852C436.64 48.7852 439.124 49.5872 441.072 51.1914C442.926 52.7331 443.854 54.7904 443.854 57.3633C443.854 59.9258 442.926 61.9831 441.072 63.5352C439.135 65.1393 436.604 65.9414 433.479 65.9414C430.364 65.9414 427.838 65.1393 425.9 63.5352C424.036 61.9831 423.104 59.931 423.104 57.3789C423.104 54.7852 424.036 52.7227 425.9 51.1914C427.859 49.5872 430.432 48.7852 433.619 48.7852ZM433.416 52.1602C431.801 52.1602 430.52 52.6497 429.572 53.6289C428.676 54.556 428.229 55.8216 428.229 57.4258C428.229 58.9362 428.676 60.1602 429.572 61.0977C430.531 62.0872 431.833 62.582 433.479 62.582C435.135 62.582 436.442 62.0872 437.4 61.0977C438.296 60.1602 438.744 58.9414 438.744 57.4414C438.744 55.8268 438.296 54.556 437.4 53.6289C436.452 52.6497 435.124 52.1602 433.416 52.1602ZM451.291 65.332L444.463 49.3945H449.963L453.729 59.3945L457.666 49.3945H462.447L466.26 59.3945L470.135 49.3945H475.197L468.494 65.332H463.838L459.932 56.0508L455.947 65.332H451.291Z" fill="white"/>
<rect y="352" width="370" height="52" rx="20" fill="#9E6D7E"/>
<rect y="352" width="370" height="52" rx="20" fill="url(#paint1_linear_453_876)" fill-opacity="0.2"/>
<path d="M32.6523 378.262V373.293H35.5117V378.262H40.5625V381.109H35.5117V386.066H32.6523V381.109H27.6133V378.262H32.6523ZM51.2266 388V372.004H60.6367C62.543 372.004 63.8594 372.191 64.5859 372.566C65.2891 372.934 65.8203 373.484 66.1797 374.219C66.4766 374.844 66.625 375.531 66.625 376.281C66.625 377.609 66.1641 378.652 65.2422 379.41C64.8281 379.754 64.2109 380.066 63.3906 380.348C64.0078 380.496 64.4688 380.664 64.7734 380.852C65.3672 381.25 65.7578 381.91 65.9453 382.832C66.0312 383.223 66.1055 383.859 66.168 384.742C66.2539 385.867 66.3281 386.594 66.3906 386.922C66.4531 387.227 66.5898 387.586 66.8008 388H62.7344C62.6172 387.508 62.4961 386.609 62.3711 385.305C62.2852 384.422 62.1602 383.773 61.9961 383.359C61.7148 382.664 61.2188 382.238 60.5078 382.082C60.1719 382.012 59.7773 381.977 59.3242 381.977H54.8828V388H51.2266ZM54.8828 379.035H59.6289C60.4883 379.035 61.082 378.965 61.4102 378.824C62.1992 378.488 62.5938 377.871 62.5938 376.973C62.5938 376.066 62.1953 375.48 61.3984 375.215C61.0703 375.105 60.4844 375.051 59.6406 375.051H54.8828V379.035ZM69.3203 388V372.004H83.7461V375.074H72.9648V378.332H82.4453V381.18H72.9648V384.93H83.7461V388H69.3203ZM100.398 381.977H104.652C104.254 383.938 103.316 385.488 101.84 386.629C100.98 387.293 99.9062 387.781 98.6172 388.094C97.6094 388.336 96.5586 388.457 95.4648 388.457C92.8242 388.457 90.6367 387.793 88.9023 386.465C87.8477 385.66 87.0352 384.691 86.4648 383.559C85.918 382.465 85.6445 381.258 85.6445 379.938C85.6445 377.281 86.6836 375.156 88.7617 373.562C90.5195 372.219 92.7383 371.547 95.418 371.547C98.6133 371.547 101.062 372.395 102.766 374.09C103.75 375.074 104.379 376.344 104.652 377.898H100.398C100.273 377.414 100.125 377.031 99.9531 376.75C99.7891 376.461 99.5312 376.156 99.1797 375.836C98.1875 374.938 96.9062 374.488 95.3359 374.488C93.7188 374.488 92.3945 374.961 91.3633 375.906C90.2617 376.93 89.7109 378.281 89.7109 379.961C89.7109 381.5 90.1992 382.781 91.1758 383.805C92.2695 384.945 93.6836 385.516 95.418 385.516C96.9883 385.516 98.2539 385.035 99.2148 384.074C99.7539 383.551 100.148 382.852 100.398 381.977ZM106.938 388V372.004H121.363V375.074H110.582V378.332H120.062V381.18H110.582V384.93H121.363V388H106.938ZM123.953 388V372.004H127.621V388H123.953ZM140.781 388H136.621L129.262 372.004H133.668L138.801 383.734L143.711 372.004H147.824L140.781 388ZM149.453 388V372.004H163.879V375.074H153.098V378.332H162.578V381.18H153.098V384.93H163.879V388H149.453ZM171.168 388L178.844 372.004H182.5L190.34 388H186.004L184.293 384.391H176.805L175.176 388H171.168ZM178.129 381.555H183.004L180.531 376.234L178.129 381.555ZM198.391 388V372.004H212.254V375.062H202.012V378.625H211.305V381.473H202.012V388H198.391ZM214.516 388V372.004H223.926C225.832 372.004 227.148 372.191 227.875 372.566C228.578 372.934 229.109 373.484 229.469 374.219C229.766 374.844 229.914 375.531 229.914 376.281C229.914 377.609 229.453 378.652 228.531 379.41C228.117 379.754 227.5 380.066 226.68 380.348C227.297 380.496 227.758 380.664 228.062 380.852C228.656 381.25 229.047 381.91 229.234 382.832C229.32 383.223 229.395 383.859 229.457 384.742C229.543 385.867 229.617 386.594 229.68 386.922C229.742 387.227 229.879 387.586 230.09 388H226.023C225.906 387.508 225.785 386.609 225.66 385.305C225.574 384.422 225.449 383.773 225.285 383.359C225.004 382.664 224.508 382.238 223.797 382.082C223.461 382.012 223.066 381.977 222.613 381.977H218.172V388H214.516ZM218.172 379.035H222.918C223.777 379.035 224.371 378.965 224.699 378.824C225.488 378.488 225.883 377.871 225.883 376.973C225.883 376.066 225.484 375.48 224.688 375.215C224.359 375.105 223.773 375.051 222.93 375.051H218.172V379.035ZM232.609 388V372.004H247.035V375.074H236.254V378.332H245.734V381.18H236.254V384.93H247.035V388H232.609ZM249.625 388V372.004H264.051V375.074H253.27V378.332H262.75V381.18H253.27V384.93H264.051V388H249.625ZM271.34 388L279.016 372.004H282.672L290.512 388H286.176L284.465 384.391H276.977L275.348 388H271.34ZM278.301 381.555H283.176L280.703 376.234L278.301 381.555ZM294.895 372.004V381.074C294.895 382.309 295.066 383.227 295.41 383.828C296.059 384.945 297.273 385.504 299.055 385.504C301.008 385.504 302.277 384.836 302.863 383.5C303.098 382.961 303.215 382.152 303.215 381.074V372.004H306.883V381.379C306.883 382.551 306.805 383.449 306.648 384.074C306.492 384.691 306.195 385.281 305.758 385.844C304.398 387.586 302.164 388.457 299.055 388.457C297.094 388.457 295.48 388.105 294.215 387.402C292.52 386.449 291.559 385.098 291.332 383.348C291.262 382.84 291.227 382.133 291.227 381.227V372.004H294.895ZM310.07 388V372.004H318.309C319.402 372.004 320.359 372.066 321.18 372.191C323.094 372.496 324.613 373.465 325.738 375.098C326.684 376.457 327.156 378.055 327.156 379.891C327.156 381.883 326.625 383.609 325.562 385.07C324.414 386.641 322.816 387.562 320.77 387.836C319.973 387.945 319.047 388 317.992 388H310.07ZM313.738 384.953H317.664C318.547 384.953 319.207 384.922 319.645 384.859C320.09 384.797 320.488 384.684 320.84 384.52C322.34 383.793 323.09 382.301 323.09 380.043C323.09 378.582 322.754 377.418 322.082 376.551C321.426 375.715 320.438 375.238 319.117 375.121C318.742 375.09 318.246 375.074 317.629 375.074H313.738V384.953ZM329.805 388V372.004H333.473V388H329.805ZM341.031 388V375.074H335.441V372.004H350.301V375.074H344.688V388H341.031Z" fill="white"/>
<defs>
<linearGradient id="paint0_linear_453_876" x1="403.338" y1="0.64196" x2="491.604" y2="404.101" gradientUnits="userSpaceOnUse">
<stop stop-color="#AEAEAE"/>
<stop offset="1" stop-color="#484848"/>
</linearGradient>
<linearGradient id="paint1_linear_453_876" x1="0" y1="378" x2="370" y2="378" gradientUnits="userSpaceOnUse">
<stop stop-opacity="0.81"/>
<stop offset="1"/>
</linearGradient>
</defs>
</svg>
